<svg width="547" height="338" viewBox="0 0 547 338" fill="none" xmlns="http://www.w3.org/2000/svg">
<path d="M204.32 118.173C204.468 117.448 205.503 117.448 205.651 118.173L206.06 120.172C206.729 123.446 209.287 126.004 212.561 126.674L214.561 127.082C215.285 127.23 215.285 128.265 214.561 128.413L212.561 128.822C209.287 129.491 206.729 132.049 206.06 135.323L205.651 137.323C205.503 138.047 204.468 138.047 204.32 137.323L203.911 135.323C203.242 132.049 200.684 129.491 197.41 128.822L195.41 128.413C194.686 128.265 194.686 127.23 195.41 127.082L197.41 126.674C200.684 126.004 203.242 123.446 203.911 120.172L204.32 118.173Z" fill="black"/>
<path d="M444.718 118.173C444.867 117.448 445.901 117.448 446.049 118.173L446.458 120.172C447.127 123.446 449.686 126.004 452.959 126.674L454.959 127.082C455.683 127.23 455.683 128.265 454.959 128.413L452.959 128.822C449.686 129.491 447.127 132.049 446.458 135.323L446.049 137.323C445.901 138.047 444.867 138.047 444.718 137.323L444.31 135.323C443.641 132.049 441.082 129.491 437.809 128.822L435.809 128.413C435.085 128.265 435.085 127.23 435.809 127.082L437.809 126.674C441.082 126.004 443.641 123.446 444.31 120.172L444.718 118.173Z" fill="white"/>
<path d="M88.3591 55.449C88.5071 54.7247 89.542 54.7247 89.69 55.4489L90.0987 57.4487C90.7678 60.7224 93.3262 63.2808 96.5999 63.9499L98.5996 64.3586C99.3239 64.5066 99.3239 65.5415 98.5996 65.6895L96.5999 66.0982C93.3262 66.7673 90.7678 69.3257 90.0987 72.5994L89.69 74.5992C89.542 75.3234 88.5071 75.3234 88.3591 74.5992L87.9504 72.5994C87.2812 69.3257 84.7229 66.7673 81.4492 66.0982L79.4494 65.6895C78.7252 65.5415 78.7252 64.5066 79.4494 64.3586L81.4492 63.9499C84.7229 63.2808 87.2812 60.7224 87.9504 57.4487L88.3591 55.449Z" fill="white"/>
<path d="M271.851 1.45575C272.189 -0.200739 274.556 -0.200746 274.895 1.45574L277.25 12.9775C277.919 16.2512 280.477 18.8096 283.751 19.4787L295.273 21.8336C296.929 22.1722 296.929 24.539 295.273 24.8776L283.751 27.2325C280.477 27.9017 277.919 30.46 277.25 33.7337L274.895 45.2555C274.556 46.912 272.189 46.912 271.851 45.2555L269.496 33.7337C268.827 30.46 266.268 27.9017 262.995 27.2325L251.473 24.8776C249.816 24.539 249.816 22.1722 251.473 21.8336L262.995 19.4787C266.268 18.8096 268.827 16.2512 269.496 12.9775L271.851 1.45575Z" fill="white"/>
<path d="M525.17 208.175C525.463 206.741 527.512 206.741 527.805 208.175L529.844 218.149C530.423 220.983 532.638 223.198 535.472 223.777L545.447 225.816C546.881 226.109 546.881 228.158 545.447 228.451L535.472 230.49C532.638 231.069 530.423 233.284 529.844 236.118L527.805 246.093C527.512 247.527 525.463 247.527 525.17 246.093L523.131 236.118C522.552 233.284 520.337 231.069 517.503 230.49L507.529 228.451C506.095 228.158 506.095 226.109 507.529 225.816L517.503 223.777C520.337 223.198 522.552 220.983 523.131 218.149L525.17 208.175Z" fill="#0075FF"/>
<path d="M9.91286 22.7995C10.0526 22.1157 11.0296 22.1157 11.1694 22.7995L12.1415 27.5555C12.4177 28.9068 13.4737 29.9629 14.8251 30.2391L19.5811 31.2112C20.2649 31.351 20.2649 32.328 19.5811 32.4677L14.8251 33.4398C13.4737 33.716 12.4177 34.7721 12.1415 36.1234L11.1694 40.8795C11.0296 41.5632 10.0526 41.5632 9.91287 40.8795L8.94077 36.1234C8.66457 34.7721 7.6085 33.716 6.25715 33.4398L1.50112 32.4677C0.817338 32.328 0.817336 31.351 1.50111 31.2112L6.25715 30.2391C7.6085 29.9629 8.66457 28.9068 8.94077 27.5555L9.91286 22.7995Z" fill="#0075FF"/>
<path d="M100.549 181.883C129.102 165.398 175.397 165.398 203.951 181.883L217.621 189.776C246.175 206.262 246.175 232.99 217.621 249.475L203.832 257.437C175.278 273.922 128.984 273.922 100.43 257.437L86.7595 249.544C58.2059 233.058 58.2058 206.33 86.7594 189.845L100.549 181.883Z" fill="black"/>
<path d="M102.573 164.908C131.126 148.422 177.421 148.422 205.974 164.908L219.645 172.8C248.199 189.286 248.199 216.014 219.645 232.499L205.856 240.461C177.302 256.946 131.007 256.946 102.454 240.461L88.7831 232.568C60.2296 216.083 60.2295 189.354 88.7831 172.869L102.573 164.908Z" fill="white"/>
<path fill-rule="evenodd" clip-rule="evenodd" d="M219.265 173.02L205.594 165.127C177.25 148.763 131.296 148.763 102.953 165.127L89.1633 173.088C60.8196 189.453 60.8197 215.984 89.1633 232.349L102.834 240.241C131.178 256.606 177.132 256.606 205.475 240.241L219.265 232.28C247.609 215.916 247.608 189.384 219.265 173.02ZM205.974 164.908C177.421 148.422 131.126 148.422 102.573 164.908L88.7831 172.869C60.2295 189.354 60.2296 216.083 88.7831 232.568L102.454 240.461C131.007 256.946 177.302 256.946 205.856 240.461L219.645 232.499C248.199 216.014 248.199 189.286 219.645 172.8L205.974 164.908Z" fill="black"/>
<path d="M110.24 175.22C134.566 161.176 174.005 161.176 198.331 175.22C222.657 189.265 222.657 212.035 198.331 226.08C174.005 240.124 134.566 240.124 110.24 226.08C85.9141 212.035 85.9141 189.265 110.24 175.22Z" fill="#0075FF"/>
<path fill-rule="evenodd" clip-rule="evenodd" d="M110.62 175.44C86.5042 189.363 86.5042 211.937 110.62 225.86C134.736 239.784 173.835 239.784 197.951 225.86C222.067 211.937 222.067 189.363 197.951 175.44C173.835 161.517 134.736 161.517 110.62 175.44ZM198.331 175.22C174.005 161.176 134.566 161.176 110.24 175.22C85.9141 189.265 85.9141 212.035 110.24 226.08C134.566 240.124 174.005 240.124 198.331 226.08C222.657 212.035 222.657 189.265 198.331 175.22Z" fill="black"/>
<path fill-rule="evenodd" clip-rule="evenodd" d="M154.512 85.8115C159.752 85.3388 164.202 81.0831 166.358 73.4269C170.204 59.768 165.292 40.4586 155.386 30.2982C150.529 25.317 145.374 23.4595 140.927 24.4698L129.319 26.0788L131.265 34.2644C130.98 35.0137 130.719 35.8034 130.485 36.633C126.639 50.2919 131.552 69.6013 141.458 79.7617C141.728 80.0395 142 80.3076 142.273 80.566L144.063 88.0949L154.512 85.8115Z" fill="white"/>
<path fill-rule="evenodd" clip-rule="evenodd" d="M155.229 30.4537C150.404 25.5049 145.322 23.6987 140.976 24.6861L140.967 24.6881L129.588 26.2653L131.494 34.2817L131.47 34.3448C131.187 35.0877 130.928 35.8711 130.697 36.6947C128.786 43.4784 129.048 51.6801 131.027 59.4575C133.006 67.2348 136.695 74.5646 141.615 79.6107C141.883 79.8865 142.153 80.1526 142.424 80.409L142.471 80.4539L144.226 87.8367L154.479 85.5964L154.493 85.5952C159.608 85.1337 164.005 80.9759 166.146 73.3697C168.057 66.5861 167.795 58.3843 165.816 50.607C163.837 42.8297 160.148 35.4998 155.229 30.4537ZM140.888 24.2559C145.433 23.2275 150.658 25.137 155.543 30.1473C160.529 35.2615 164.249 42.6666 166.241 50.4988C168.234 58.331 168.505 66.6134 166.569 73.4887C164.401 81.1882 159.904 85.541 154.546 86.0311L143.899 88.3576L142.074 80.6824C141.815 80.436 141.557 80.1809 141.3 79.9172C136.314 74.8029 132.594 67.3979 130.602 59.5657C128.609 51.7335 128.338 43.451 130.274 36.5758C130.503 35.7634 130.757 34.9886 131.036 34.2518L129.05 25.8968L140.888 24.2559Z" fill="black"/>
<path d="M156.327 75.5191C152.412 89.4219 141.065 92.3087 130.982 81.9669C120.899 71.6252 115.899 51.9711 119.814 38.0683C123.729 24.1655 135.076 21.2787 145.159 31.6204C155.242 41.9622 160.242 61.6163 156.327 75.5191Z" fill="white"/>
<path fill-rule="evenodd" clip-rule="evenodd" d="M131.101 81.5444C141.014 91.7126 152.171 88.8742 156.02 75.2048C159.869 61.5353 154.953 42.2111 145.04 32.043C135.126 21.8748 123.969 24.7131 120.12 38.3826C116.271 52.052 121.187 71.3762 131.101 81.5444ZM130.982 81.9669C141.065 92.3087 152.412 89.4219 156.327 75.5191C160.242 61.6163 155.242 41.9622 145.159 31.6204C135.076 21.2787 123.729 24.1655 119.814 38.0683C115.899 51.9711 120.899 71.6252 130.982 81.9669Z" fill="black"/>
<path d="M141.647 24.2576C140.992 24.207 136.839 25.2362 134.702 25.6943C143.694 27.6622 148.108 34.6395 152.159 41.6832L162.05 40.7444C160.626 37.9849 160.29 36.3025 154.954 30.3238C149.098 23.7614 142.466 24.3208 141.647 24.2576Z" fill="black"/>
<path fill-rule="evenodd" clip-rule="evenodd" d="M141.989 24.4865C141.829 24.4852 141.708 24.4842 141.63 24.4781C141.574 24.4738 141.459 24.481 141.278 24.5053C141.103 24.5287 140.882 24.5658 140.627 24.6138C140.115 24.7096 139.471 24.8472 138.778 25.0012C138.177 25.1347 137.538 25.2809 136.92 25.4223C136.488 25.5212 136.066 25.6176 135.675 25.7058C144.102 27.9468 148.389 34.6985 152.278 41.4531L161.708 40.5581C161.532 40.2075 161.371 39.8745 161.213 39.5465C160.8 38.6912 160.403 37.8696 159.782 36.8579C158.862 35.3601 157.454 33.4556 154.791 30.4717C151.894 27.2258 148.81 25.7454 146.353 25.0668C144.324 24.5062 142.733 24.4928 141.989 24.4865ZM146.47 24.6437C148.998 25.3418 152.159 26.8629 155.118 30.1794C157.791 33.1742 159.218 35.1002 160.156 36.6282C160.789 37.6584 161.201 38.5124 161.619 39.3787C161.819 39.7914 162.019 40.2068 162.246 40.6455L162.394 40.9339L152.039 41.9168L151.968 41.7944C147.915 34.7454 143.543 27.8554 134.655 25.9104L134.656 25.4814C135.258 25.3523 136.018 25.1784 136.816 24.9958C137.434 24.8544 138.074 24.7078 138.683 24.5726C139.377 24.4184 140.027 24.2795 140.546 24.1823C140.805 24.1337 141.033 24.0951 141.219 24.0702C141.399 24.0461 141.557 24.0322 141.664 24.0405C141.727 24.0453 141.831 24.046 141.973 24.047C142.69 24.0517 144.367 24.0629 146.47 24.6437Z" fill="black"/>
<path d="M154.754 78.3901C153.474 82.6871 149.814 85.9063 148.144 86.9788C147.581 87.3183 150.817 87.1245 156.526 85.294C163.564 83.038 166.523 74.5878 166.88 70.6649L156.887 72.0153C156.784 73.3256 155.301 76.8408 154.754 78.3901Z" fill="black"/>
<path fill-rule="evenodd" clip-rule="evenodd" d="M128.426 96.4717C127.937 99.7976 131.124 102.85 134.96 104.918L123.29 142.386C119.195 155.534 129.245 177.007 143.29 185.115L165.246 197.792C163.688 200.191 162.161 203.463 162.231 205.583C162.325 208.437 177.622 208.535 185.904 205.246C192.806 203.525 196.459 195.259 193.831 183.371L181.924 129.513C179.316 117.716 171.142 105.926 161.857 100.565L155.693 97.0064C151.337 94.4912 147.223 93.6729 143.814 94.4232C140.8 94.7275 132.977 95.7839 128.426 96.4717Z" fill="white"/>
<path fill-rule="evenodd" clip-rule="evenodd" d="M155.584 97.1943C151.259 94.6971 147.201 93.9004 143.862 94.6354C143.853 94.6372 143.845 94.6385 143.837 94.6394C140.864 94.9395 133.195 95.9739 128.623 96.6619C128.456 98.184 129.089 99.6612 130.24 101.023C131.431 102.432 133.162 103.696 135.065 104.723C135.157 104.773 135.201 104.881 135.17 104.981L123.5 142.449C121.476 148.949 122.943 157.545 126.687 165.545C130.43 173.541 136.427 180.897 143.4 184.923L165.357 197.599C165.409 197.63 165.446 197.68 165.46 197.738C165.474 197.797 165.464 197.859 165.431 197.909C164.658 199.099 163.894 200.505 163.332 201.873C162.768 203.248 162.417 204.561 162.451 205.574C162.459 205.821 162.632 206.079 163.05 206.333C163.464 206.585 164.076 206.804 164.854 206.981C166.408 207.335 168.569 207.511 170.997 207.496C175.852 207.467 181.717 206.67 185.824 205.04C185.833 205.036 185.842 205.033 185.852 205.031C189.223 204.19 191.811 201.752 193.237 198.04C194.665 194.324 194.925 189.332 193.618 183.417L181.71 129.558C179.114 117.813 170.973 106.079 161.748 100.753L155.584 97.1943ZM143.78 94.2039C147.256 93.4432 151.422 94.284 155.804 96.8142L161.967 100.373C171.313 105.769 179.519 117.615 182.139 129.463L194.046 183.322C195.367 189.294 195.114 194.379 193.647 198.198C192.18 202.016 189.496 204.569 185.972 205.453C181.798 207.108 175.881 207.905 170.999 207.935C168.555 207.95 166.357 207.773 164.757 207.409C163.959 207.227 163.295 206.996 162.822 206.708C162.354 206.424 162.028 206.055 162.012 205.588C161.976 204.482 162.354 203.099 162.926 201.707C163.469 200.383 164.196 199.031 164.938 197.865L143.181 185.303C136.11 181.221 130.06 173.786 126.29 165.731C122.522 157.681 121.011 148.965 123.081 142.318L134.698 105.023C132.827 103.996 131.109 102.731 129.904 101.306C128.666 99.8406 127.953 98.1848 128.209 96.4376C128.223 96.3421 128.298 96.2669 128.394 96.2525C132.939 95.5656 140.751 94.5105 143.78 94.2039Z" fill="black"/>
<path d="M171.05 108.494C169.213 108.407 157.671 112.322 152.129 114.291L168.639 144.45L184.041 138.809C181.629 121.382 174.273 111.596 171.05 108.494Z" fill="black"/>
<path d="M119.772 104.717C122.454 96.1055 130.572 93.85 139.771 99.1611L145.935 102.72C155.221 108.081 163.394 119.871 166.002 131.667L177.909 185.526C181.826 203.244 171.789 212.917 157.842 204.864L127.368 187.27C113.324 179.161 103.273 157.688 107.368 144.54L119.772 104.717Z" fill="white"/>
<path fill-rule="evenodd" clip-rule="evenodd" d="M145.935 103.159L139.771 99.6001C130.74 94.3856 122.769 96.6 120.135 105.055L107.732 144.878C103.711 157.787 113.579 178.87 127.368 186.831L157.842 204.425C171.536 212.331 181.39 202.834 177.544 185.439L165.637 131.58C163.076 119.998 155.052 108.422 145.935 103.159ZM139.771 99.1611C130.572 93.85 122.454 96.1055 119.772 104.717L107.368 144.54C103.273 157.688 113.324 179.161 127.368 187.27L157.842 204.864C171.789 212.917 181.826 203.244 177.909 185.526L166.002 131.667C163.394 119.871 155.221 108.081 145.935 102.72L139.771 99.1611Z" fill="black"/>
<path d="M193.22 181.157L178.031 187.116C181.792 206.606 168.352 207.187 168.866 207.316C169.278 207.418 172.254 207.616 173.691 207.701C186.685 206.608 190.609 203.713 193.632 197.795C196.051 193.061 194.365 184.73 193.22 181.157Z" fill="black"/>
<path fill-rule="evenodd" clip-rule="evenodd" d="M193.315 180.958C193.37 180.984 193.411 181.032 193.43 181.09C194.007 182.89 194.718 185.882 194.982 189.022C195.245 192.154 195.067 195.471 193.828 197.895C192.304 200.879 190.54 203.123 187.505 204.751C184.482 206.372 180.216 207.372 173.71 207.92C173.699 207.921 173.689 207.921 173.678 207.92C172.959 207.877 171.855 207.807 170.879 207.734C170.39 207.697 169.933 207.66 169.572 207.625C169.219 207.592 168.936 207.559 168.814 207.528C168.804 207.526 168.786 207.521 168.766 207.512L168.766 207.512C168.754 207.506 168.7 207.481 168.663 207.42C168.642 207.382 168.628 207.334 168.635 207.281C168.641 207.231 168.662 207.194 168.679 207.172C168.709 207.132 168.745 207.113 168.755 207.108C168.782 207.094 168.809 207.085 168.822 207.082C168.839 207.077 168.858 207.072 168.877 207.068C168.917 207.058 168.975 207.046 169.044 207.032C169.097 207.021 169.157 207.009 169.222 206.995C169.528 206.93 169.987 206.823 170.541 206.637C171.65 206.267 173.134 205.587 174.518 204.314C177.273 201.782 179.687 196.85 177.816 187.157C177.796 187.053 177.853 186.95 177.952 186.911L193.141 180.952C193.197 180.93 193.26 180.932 193.315 180.958ZM178.281 187.253C180.108 196.934 177.694 201.991 174.815 204.638C173.374 205.963 171.829 206.67 170.68 207.054C170.473 207.123 170.278 207.182 170.1 207.232C170.35 207.253 170.625 207.274 170.911 207.296C171.878 207.368 172.971 207.438 173.689 207.481C180.168 206.935 184.357 205.941 187.298 204.364C190.229 202.791 191.939 200.629 193.438 197.695C194.618 195.384 194.806 192.169 194.545 189.059C194.295 186.083 193.637 183.239 193.082 181.447L178.281 187.253ZM168.941 207.504C168.941 207.504 168.942 207.504 168.943 207.504C168.942 207.504 168.941 207.504 168.941 207.504Z" fill="black"/>
<path d="M187.717 156.52L172.281 162.001L176.193 178.515L191.442 173.181L187.717 156.52Z" fill="black"/>
<path fill-rule="evenodd" clip-rule="evenodd" d="M187.824 156.326C187.879 156.356 187.918 156.409 187.932 156.47L191.657 173.131C191.681 173.24 191.62 173.349 191.515 173.386L176.266 178.72C176.207 178.741 176.143 178.735 176.088 178.705C176.034 178.675 175.994 178.624 175.98 178.563L172.069 162.049C172.043 161.94 172.103 161.829 172.209 161.792L187.644 156.311C187.703 156.29 187.769 156.295 187.824 156.326ZM172.541 162.139L176.351 178.225L191.186 173.036L187.558 156.808L172.541 162.139Z" fill="black"/>
<path d="M148.074 136.721C148.074 135.789 147.136 134.733 146.511 134.961L143.006 136.238C142.783 136.319 142.653 136.559 142.653 136.891L142.653 145.284C142.653 146.173 141.792 146.201 141.155 145.334L137.278 140.045C136.642 139.177 135.78 139.206 135.78 140.094L135.78 144.006C135.78 144.355 135.923 144.766 136.165 145.115L142.398 154.092C142.564 154.331 142.765 154.524 142.972 154.643L147.116 157.036C147.645 157.342 148.074 157.094 148.074 156.483L148.074 136.721Z" fill="#0075FF"/>
<path d="M129.109 145.452C129.109 146.384 130.047 147.44 130.673 147.212L134.178 145.935C134.401 145.854 134.531 145.614 134.531 145.281L134.531 136.889C134.531 136 135.392 135.972 136.028 136.839L139.906 142.128C140.542 142.996 141.403 142.967 141.403 142.079L141.403 138.167C141.403 137.818 141.261 137.407 141.019 137.058L134.786 128.081C134.62 127.842 134.419 127.649 134.212 127.529L130.068 125.137C129.538 124.831 129.109 125.079 129.109 125.69L129.109 145.452Z" fill="#0075FF"/>
<path d="M334.815 184.678C363.368 168.193 409.663 168.193 438.216 184.678L451.887 192.571C480.441 209.056 480.441 235.785 451.887 252.27L438.098 260.231C409.544 276.717 363.25 276.717 334.696 260.231L321.025 252.338C292.472 235.853 292.472 209.125 321.025 192.639L334.815 184.678Z" fill="black"/>
<path d="M333.291 163.437C361.845 146.951 408.139 146.951 436.693 163.437L450.364 171.329C478.917 187.815 478.917 214.543 450.364 231.028L436.574 238.99C408.02 255.475 361.726 255.475 333.172 238.99L319.502 231.097C290.948 214.612 290.948 187.883 319.502 171.398L333.291 163.437Z" fill="white"/>
<path fill-rule="evenodd" clip-rule="evenodd" d="M449.983 171.549L436.313 163.656C407.969 147.292 362.015 147.292 333.671 163.656L319.882 171.618C291.538 187.982 291.538 214.513 319.882 230.878L333.553 238.77C361.896 255.135 407.85 255.135 436.194 238.77L449.983 230.809C478.327 214.445 478.327 187.913 449.983 171.549ZM436.693 163.437C408.139 146.951 361.845 146.951 333.291 163.437L319.502 171.398C290.948 187.883 290.948 214.612 319.502 231.097L333.172 238.99C361.726 255.475 408.02 255.475 436.574 238.99L450.364 231.028C478.917 214.543 478.917 187.815 450.364 171.329L436.693 163.437Z" fill="black"/>
<path d="M340.962 173.752C365.288 159.707 404.728 159.707 429.053 173.752C453.379 187.796 453.379 210.567 429.053 224.611C404.728 238.655 365.288 238.655 340.962 224.611C316.636 210.567 316.636 187.796 340.962 173.752Z" fill="#0075FF"/>
<path fill-rule="evenodd" clip-rule="evenodd" d="M341.342 173.971C317.227 187.894 317.227 210.468 341.342 224.392C365.458 238.315 404.557 238.315 428.673 224.392C452.789 210.468 452.789 187.894 428.673 173.971C404.558 160.048 365.458 160.048 341.342 173.971ZM429.053 173.752C404.728 159.707 365.288 159.707 340.962 173.752C316.636 187.796 316.636 210.567 340.962 224.611C365.288 238.655 404.728 238.655 429.053 224.611C453.379 210.567 453.379 187.796 429.053 173.752Z" fill="black"/>
<path fill-rule="evenodd" clip-rule="evenodd" d="M385.24 84.3428C390.479 83.8702 394.929 79.6144 397.085 71.9582C400.931 58.2993 396.019 38.9899 386.113 28.8295C381.257 23.8483 376.101 21.9909 371.655 23.001L360.046 24.6101L361.992 32.796C361.707 33.5452 361.446 34.3348 361.213 35.1643C357.366 48.8232 362.279 68.1326 372.185 78.293C372.456 78.5707 372.727 78.8387 373 79.0971L374.79 86.6262L385.24 84.3428Z" fill="white"/>
<path fill-rule="evenodd" clip-rule="evenodd" d="M385.956 28.985C381.131 24.0362 376.049 22.23 371.703 23.2173L371.694 23.2194L360.315 24.7966L362.221 32.8133L362.197 32.8764C361.914 33.6192 361.656 34.4025 361.424 35.226C359.514 42.0097 359.776 50.2114 361.754 57.9888C363.733 65.7661 367.422 73.0959 372.342 78.142C372.611 78.4178 372.88 78.6838 373.151 78.9401L373.198 78.985L374.953 86.3681L385.206 84.1277L385.22 84.1265C390.335 83.6651 394.732 79.5073 396.874 71.901C398.784 65.1174 398.522 56.9156 396.543 49.1383C394.565 41.361 390.875 34.0311 385.956 28.985ZM371.615 22.7872C376.16 21.7589 381.385 23.6683 386.27 28.6786C391.256 33.7928 394.976 41.1979 396.969 49.0301C398.961 56.8623 399.232 65.1447 397.296 72.02C395.128 79.7195 390.631 84.0724 385.273 84.5624L374.626 86.8889L372.801 79.2135C372.542 78.9671 372.284 78.7121 372.027 78.4485C367.041 73.3342 363.321 65.9292 361.329 58.097C359.336 50.2648 359.065 41.9823 361.001 35.107C361.23 34.2948 361.484 33.5201 361.763 32.7834L359.777 24.4282L371.615 22.7872Z" fill="black"/>
<path d="M387.054 74.0503C383.139 87.9531 371.792 90.8399 361.709 80.4982C351.626 70.1564 346.626 50.5023 350.541 36.5995C354.456 22.6967 365.803 19.8099 375.886 30.1517C385.969 40.4934 390.969 60.1475 387.054 74.0503Z" fill="white"/>
<path fill-rule="evenodd" clip-rule="evenodd" d="M361.828 80.0756C371.741 90.2438 382.898 87.4055 386.747 73.736C390.597 60.0666 385.68 40.7424 375.767 30.5742C365.853 20.406 354.697 23.2444 350.847 36.9138C346.998 50.5833 351.914 69.9075 361.828 80.0756ZM361.709 80.4982C371.792 90.8399 383.139 87.9531 387.054 74.0503C390.969 60.1475 385.969 40.4934 375.886 30.1517C365.803 19.8099 354.456 22.6967 350.541 36.5995C346.626 50.5023 351.626 70.1564 361.709 80.4982Z" fill="black"/>
<path d="M372.374 22.7888C371.719 22.7382 367.566 23.7674 365.429 24.2255C374.422 26.1934 378.835 33.1708 382.886 40.2145L392.777 39.2756C391.353 36.5162 391.017 34.8337 385.682 28.8551C379.825 22.2926 373.193 22.8521 372.374 22.7888Z" fill="black"/>
<path fill-rule="evenodd" clip-rule="evenodd" d="M372.712 23.0175C372.552 23.0162 372.431 23.0152 372.354 23.0092C372.297 23.0048 372.182 23.012 372.001 23.0363C371.826 23.0597 371.606 23.0968 371.35 23.1448C370.839 23.2406 370.194 23.3782 369.501 23.5322C368.9 23.6657 368.261 23.8119 367.643 23.9533C367.211 24.0522 366.789 24.1486 366.398 24.2368C374.826 26.4778 379.113 33.2295 383.002 39.9841L392.431 39.0891C392.255 38.7385 392.094 38.4055 391.936 38.0775C391.523 37.2222 391.127 36.4006 390.505 35.3889C389.586 33.8911 388.177 31.9866 385.514 29.0027C382.617 25.7568 379.534 24.2764 377.077 23.5978C375.047 23.0372 373.457 23.0238 372.712 23.0175ZM377.193 23.1747C379.721 23.8728 382.882 25.3939 385.841 28.7104C388.514 31.7052 389.941 33.6312 390.879 35.1592C391.512 36.1894 391.924 37.0434 392.342 37.9097C392.542 38.3224 392.742 38.7378 392.969 39.1765L393.118 39.465L382.762 40.4478L382.692 40.3254C378.638 33.2764 374.266 26.3864 365.378 24.4414L365.379 24.0124C365.981 23.8833 366.741 23.7094 367.539 23.5268C368.157 23.3854 368.798 23.2388 369.406 23.1037C370.1 22.9494 370.75 22.8105 371.269 22.7133C371.528 22.6647 371.757 22.6261 371.942 22.6012C372.122 22.5771 372.28 22.5632 372.387 22.5715C372.45 22.5763 372.554 22.577 372.696 22.578C373.413 22.5827 375.091 22.5939 377.193 23.1747Z" fill="black"/>
<path d="M385.481 76.9194C384.201 81.2164 380.541 84.4356 378.871 85.5081C378.308 85.8476 381.544 85.6538 387.253 83.8233C394.291 81.5673 397.25 73.1171 397.607 69.1942L387.614 70.5446C387.511 71.8549 386.028 75.3701 385.481 76.9194Z" fill="black"/>
<path fill-rule="evenodd" clip-rule="evenodd" d="M359.148 95.0029C358.66 98.3288 361.846 101.381 365.682 103.449L354.012 140.917C349.917 154.065 359.968 175.538 374.012 183.646L395.969 196.323C394.41 198.722 392.883 201.995 392.953 204.115C393.048 206.968 408.345 207.066 416.626 203.777C423.528 202.056 427.182 193.79 424.554 181.903L412.646 128.044C410.038 116.247 401.865 104.457 392.579 99.0961L386.416 95.5376C382.059 93.0224 377.945 92.2042 374.536 92.9544C371.522 93.2587 363.699 94.3152 359.148 95.0029Z" fill="white"/>
<path fill-rule="evenodd" clip-rule="evenodd" d="M386.307 95.7256C381.981 93.2283 377.924 92.4317 374.584 93.1666C374.576 93.1684 374.567 93.1698 374.559 93.1706C371.586 93.4708 363.917 94.5052 359.346 95.1931C359.178 96.7152 359.811 98.1924 360.962 99.5539C362.154 100.963 363.884 102.228 365.787 103.254C365.88 103.304 365.924 103.412 365.893 103.512L354.223 140.98C352.198 147.481 353.665 156.076 357.41 164.076C361.152 172.072 367.149 179.428 374.123 183.454L396.079 196.131C396.131 196.161 396.169 196.211 396.183 196.27C396.197 196.328 396.186 196.39 396.153 196.44C395.381 197.63 394.616 199.036 394.054 200.405C393.49 201.779 393.14 203.092 393.173 204.105C393.182 204.352 393.354 204.61 393.773 204.865C394.187 205.116 394.798 205.335 395.577 205.512C397.131 205.866 399.292 206.043 401.719 206.028C406.575 205.998 412.44 205.202 416.546 203.571C416.555 203.567 416.565 203.564 416.574 203.562C419.945 202.721 422.534 200.283 423.96 196.572C425.387 192.855 425.648 187.863 424.34 181.948L412.433 128.089C409.836 116.344 401.696 104.61 392.47 99.2841L386.307 95.7256ZM374.502 92.7352C377.978 91.9744 382.144 92.8153 386.526 95.3454L392.69 98.9039C402.036 104.3 410.242 116.146 412.861 127.994L424.769 181.853C426.089 187.826 425.837 192.91 424.369 196.729C422.902 200.548 420.218 203.101 416.695 203.984C412.52 205.639 406.603 206.437 401.722 206.467C399.278 206.482 397.079 206.304 395.479 205.94C394.681 205.758 394.017 205.527 393.545 205.24C393.076 204.955 392.75 204.586 392.735 204.12C392.698 203.013 393.077 201.63 393.648 200.238C394.191 198.915 394.918 197.562 395.66 196.396L373.903 183.834C366.833 179.752 360.782 172.317 357.012 164.262C353.244 156.212 351.733 147.497 353.804 140.849L365.42 103.554C363.549 102.527 361.832 101.262 360.627 99.8373C359.388 98.3719 358.675 96.7161 358.932 94.9689C358.946 94.8733 359.021 94.7982 359.116 94.7838C363.662 94.0968 371.474 93.0417 374.502 92.7352Z" fill="black"/>
<path d="M401.773 107.025C399.935 106.938 388.393 110.853 382.852 112.822L399.361 142.981L414.764 137.34C412.352 119.913 404.996 110.127 401.773 107.025Z" fill="black"/>
<path d="M350.498 103.249C353.18 94.6367 361.299 92.3813 370.498 97.6924L376.661 101.251C385.947 106.612 394.12 118.402 396.728 130.199L408.636 184.057C412.553 201.775 402.516 211.448 388.569 203.396L358.094 185.801C344.05 177.693 333.999 156.22 338.095 143.072L350.498 103.249Z" fill="white"/>
<path fill-rule="evenodd" clip-rule="evenodd" d="M376.661 101.69L370.498 98.1314C361.466 92.9168 353.495 95.1312 350.862 103.587L338.458 143.41C334.437 156.319 344.305 177.401 358.094 185.362L388.569 202.957C402.262 210.862 412.117 201.366 408.271 183.97L396.363 130.111C393.803 118.529 385.778 106.953 376.661 101.69ZM370.498 97.6924C361.299 92.3813 353.18 94.6367 350.498 103.249L338.095 143.072C333.999 156.22 344.05 177.693 358.094 185.801L388.569 203.396C402.516 211.448 412.553 201.775 408.636 184.057L396.728 130.199C394.12 118.402 385.947 106.612 376.661 101.251L370.498 97.6924Z" fill="black"/>
<path d="M423.938 179.688L408.749 185.647C412.511 205.137 399.07 205.718 399.585 205.847C399.996 205.95 402.973 206.147 404.409 206.233C417.403 205.139 421.327 202.244 424.351 196.326C426.77 191.592 425.084 183.261 423.938 179.688Z" fill="black"/>
<path fill-rule="evenodd" clip-rule="evenodd" d="M424.033 179.488C424.088 179.514 424.13 179.561 424.148 179.619C424.725 181.419 425.437 184.411 425.701 187.551C425.964 190.683 425.785 194.001 424.547 196.424C423.022 199.408 421.258 201.652 418.224 203.28C415.2 204.902 410.934 205.902 404.428 206.449C404.418 206.45 404.407 206.45 404.397 206.45C403.678 206.407 402.574 206.336 401.597 206.263C401.109 206.226 400.652 206.189 400.29 206.155C399.937 206.121 399.655 206.088 399.532 206.058C399.522 206.055 399.504 206.05 399.484 206.041L399.484 206.041C399.472 206.035 399.418 206.011 399.382 205.949C399.36 205.911 399.347 205.863 399.353 205.81C399.359 205.76 399.381 205.723 399.398 205.701C399.428 205.662 399.464 205.643 399.474 205.637C399.5 205.623 399.527 205.615 399.54 205.611C399.557 205.606 399.576 205.601 399.595 205.597C399.635 205.588 399.693 205.576 399.762 205.561C399.816 205.55 399.876 205.538 399.94 205.524C400.246 205.459 400.706 205.352 401.26 205.167C402.368 204.796 403.853 204.116 405.237 202.844C407.991 200.312 410.405 195.38 408.535 185.686C408.515 185.583 408.572 185.479 408.67 185.441L423.859 179.481C423.915 179.459 423.979 179.462 424.033 179.488ZM409 185.783C410.827 195.463 408.413 200.52 405.534 203.167C404.092 204.492 402.548 205.199 401.399 205.583C401.192 205.652 400.997 205.711 400.818 205.761C401.069 205.782 401.343 205.804 401.63 205.825C402.596 205.897 403.689 205.968 404.407 206.011C410.887 205.464 415.075 204.47 418.016 202.893C420.948 201.321 422.657 199.158 424.156 196.224C425.337 193.913 425.524 190.698 425.263 187.588C425.013 184.612 424.355 181.768 423.8 179.976L409 185.783ZM399.66 206.033C399.66 206.033 399.66 206.033 399.661 206.033C399.66 206.033 399.66 206.033 399.66 206.033Z" fill="black"/>
<path d="M418.435 155.051L403 160.532L406.911 177.046L422.16 171.712L418.435 155.051Z" fill="black"/>
<path fill-rule="evenodd" clip-rule="evenodd" d="M418.542 154.857C418.597 154.887 418.637 154.94 418.65 155.001L422.375 171.662C422.4 171.771 422.339 171.88 422.234 171.917L406.985 177.251C406.926 177.272 406.861 177.266 406.807 177.237C406.752 177.207 406.713 177.155 406.699 177.095L402.787 160.58C402.761 160.471 402.822 160.36 402.927 160.323L418.363 154.842C418.422 154.821 418.487 154.827 418.542 154.857ZM403.26 160.671L407.07 176.756L421.904 171.567L418.276 155.339L403.26 160.671Z" fill="black"/>
<path d="M221.791 232.499C250.345 216.014 296.639 216.014 325.193 232.499L338.864 240.392C367.417 256.878 367.417 283.606 338.864 300.091L325.074 308.053C296.521 324.538 250.226 324.538 221.673 308.053L208.002 300.16C179.448 283.674 179.448 256.946 208.002 240.461L221.791 232.499Z" fill="black"/>
<path d="M221.733 213.159C250.286 196.673 296.581 196.673 325.134 213.159L338.805 221.051C367.359 237.537 367.359 264.265 338.805 280.75L325.016 288.712C296.462 305.197 250.168 305.197 221.614 288.712L207.943 280.819C179.39 264.334 179.39 237.605 207.943 221.12L221.733 213.159Z" fill="white"/>
<path fill-rule="evenodd" clip-rule="evenodd" d="M338.425 221.271L324.754 213.378C296.411 197.014 250.457 197.014 222.113 213.378L208.323 221.339C179.98 237.704 179.98 264.235 208.323 280.599L221.994 288.492C250.338 304.856 296.292 304.856 324.636 288.492L338.425 280.531C366.769 264.167 366.769 237.635 338.425 221.271ZM325.134 213.159C296.581 196.673 250.286 196.673 221.733 213.159L207.943 221.12C179.39 237.605 179.39 264.334 207.943 280.819L221.614 288.712C250.168 305.197 296.462 305.197 325.016 288.712L338.805 280.75C367.359 264.265 367.359 237.537 338.805 221.051L325.134 213.159Z" fill="black"/>
<path d="M221.733 213.159C250.286 196.673 296.581 196.673 325.134 213.159L338.805 221.051C367.359 237.537 367.359 264.265 338.805 280.75L325.016 288.712C296.462 305.197 250.168 305.197 221.614 288.712L207.943 280.819C179.39 264.334 179.39 237.605 207.943 221.12L221.733 213.159Z" fill="white"/>
<path fill-rule="evenodd" clip-rule="evenodd" d="M338.425 221.271L324.754 213.378C296.411 197.014 250.457 197.014 222.113 213.378L208.323 221.339C179.98 237.704 179.98 264.235 208.323 280.599L221.994 288.492C250.338 304.856 296.292 304.856 324.636 288.492L338.425 280.531C366.769 264.167 366.769 237.635 338.425 221.271ZM325.134 213.159C296.581 196.673 250.286 196.673 221.733 213.159L207.943 221.12C179.39 237.605 179.39 264.334 207.943 280.819L221.614 288.712C250.168 305.197 296.462 305.197 325.016 288.712L338.805 280.75C367.359 264.265 367.359 237.537 338.805 221.051L325.134 213.159Z" fill="black"/>
<path d="M229.4 223.471C253.725 209.427 293.165 209.427 317.491 223.471C341.817 237.516 341.817 260.286 317.491 274.331C293.165 288.375 253.725 288.375 229.4 274.331C205.074 260.286 205.074 237.516 229.4 223.471Z" fill="#0075FF"/>
<path fill-rule="evenodd" clip-rule="evenodd" d="M229.78 223.691C205.664 237.614 205.664 260.188 229.78 274.111C253.896 288.035 292.995 288.035 317.111 274.111C341.227 260.188 341.227 237.614 317.111 223.691C292.995 209.767 253.896 209.767 229.78 223.691ZM317.491 223.471C293.165 209.427 253.725 209.427 229.4 223.471C205.074 237.516 205.074 260.286 229.4 274.331C253.725 288.375 293.165 288.375 317.491 274.331C341.817 260.286 341.817 237.516 317.491 223.471Z" fill="black"/>
<path fill-rule="evenodd" clip-rule="evenodd" d="M273.676 134.059C278.916 133.586 283.366 129.33 285.522 121.674C289.368 108.015 284.456 88.7057 274.55 78.5453C269.693 73.5641 264.538 71.7067 260.091 72.7169L248.483 74.3259L250.429 82.5118C250.143 83.261 249.883 84.0506 249.649 84.8801C245.803 98.539 250.716 117.848 260.622 128.009C260.892 128.287 261.164 128.555 261.436 128.813L263.226 136.342L273.676 134.059Z" fill="white"/>
<path fill-rule="evenodd" clip-rule="evenodd" d="M274.392 78.7008C269.568 73.7521 264.486 71.9458 260.14 72.9332L260.131 72.9352L248.752 74.5125L250.658 82.5291L250.634 82.5922C250.351 83.335 250.092 84.1183 249.861 84.9418C247.95 91.7255 248.212 99.9273 250.191 107.705C252.17 115.482 255.859 122.812 260.779 127.858C261.047 128.134 261.317 128.4 261.587 128.656L261.635 128.701L263.39 136.084L273.643 133.844L273.656 133.842C278.772 133.381 283.169 129.223 285.31 121.617C287.221 114.833 286.959 106.631 284.98 98.8541C283.001 91.0768 279.312 83.7469 274.392 78.7008ZM260.052 72.503C264.597 71.4747 269.822 73.3841 274.707 78.3944C279.693 83.5087 283.413 90.9137 285.405 98.7459C287.398 106.578 287.669 114.861 285.733 121.736C283.565 129.435 279.067 133.788 273.71 134.278L263.063 136.605L261.238 128.929C260.979 128.683 260.721 128.428 260.464 128.164C255.478 123.05 251.758 115.645 249.766 107.813C247.773 99.9806 247.502 91.6982 249.438 84.8229C249.667 84.0107 249.921 83.236 250.2 82.4992L248.213 74.144L260.052 72.503Z" fill="black"/>
<path d="M275.491 123.766C271.576 137.669 260.228 140.556 250.146 130.214C240.063 119.872 235.063 100.218 238.978 86.3153C242.893 72.4125 254.24 69.5257 264.323 79.8675C274.405 90.2093 279.405 109.863 275.491 123.766Z" fill="white"/>
<path fill-rule="evenodd" clip-rule="evenodd" d="M250.265 129.791C260.178 139.96 271.335 137.121 275.184 123.452C279.033 109.782 274.117 90.4582 264.204 80.29C254.29 70.1219 243.133 72.9602 239.284 86.6296C235.435 100.299 240.351 119.623 250.265 129.791ZM250.146 130.214C260.228 140.556 271.576 137.669 275.491 123.766C279.405 109.863 274.405 90.2093 264.323 79.8675C254.24 69.5257 242.893 72.4125 238.978 86.3153C235.063 100.218 240.063 119.872 250.146 130.214Z" fill="black"/>
<path d="M260.811 72.5047C260.156 72.4541 256.002 73.4833 253.865 73.9413C262.858 75.9092 267.272 82.8866 271.322 89.9303L281.214 88.9915C279.79 86.232 279.454 84.5495 274.118 78.5709C268.262 72.0085 261.63 72.5679 260.811 72.5047Z" fill="black"/>
<path fill-rule="evenodd" clip-rule="evenodd" d="M261.153 72.7336C260.993 72.7323 260.872 72.7312 260.794 72.7252C260.738 72.7209 260.622 72.7281 260.441 72.7523C260.266 72.7758 260.046 72.8129 259.79 72.8608C259.279 72.9567 258.635 73.0942 257.942 73.2482C257.34 73.3818 256.701 73.528 256.083 73.6694C255.652 73.7682 255.23 73.8647 254.839 73.9529C263.266 76.1939 267.553 82.9455 271.442 89.7002L280.872 88.8052C280.695 88.4546 280.535 88.1216 280.376 87.7935C279.964 86.9382 279.567 86.1167 278.946 85.105C278.026 83.6072 276.617 81.7027 273.955 78.7188C271.058 75.4728 267.974 73.9924 265.517 73.3139C263.487 72.7533 261.897 72.7399 261.153 72.7336ZM265.634 72.8908C268.162 73.5889 271.322 75.11 274.282 78.4265C276.955 81.4213 278.382 83.3473 279.32 84.8752C279.953 85.9055 280.365 86.7595 280.783 87.6258C280.982 88.0384 281.183 88.4539 281.409 88.8925L281.558 89.181L271.203 90.1639L271.132 90.0414C267.078 82.9925 262.707 76.1025 253.818 74.1575L253.819 73.7285C254.422 73.5993 255.182 73.4255 255.98 73.2429C256.597 73.1015 257.238 72.9548 257.846 72.8197C258.541 72.6655 259.191 72.5266 259.71 72.4294C259.969 72.3808 260.197 72.3422 260.383 72.3173C260.563 72.2931 260.721 72.2793 260.828 72.2876C260.891 72.2924 260.995 72.2931 261.137 72.294C261.854 72.2988 263.531 72.31 265.634 72.8908Z" fill="black"/>
<path d="M273.918 126.637C272.638 130.934 268.978 134.153 267.307 135.226C266.745 135.565 269.98 135.372 275.69 133.541C282.728 131.285 285.687 122.835 286.043 118.912L276.05 120.262C275.948 121.573 274.465 125.088 273.918 126.637Z" fill="black"/>
<path fill-rule="evenodd" clip-rule="evenodd" d="M247.59 144.721C247.101 148.047 250.288 151.099 254.124 153.167L242.454 190.635C238.359 203.783 248.409 225.256 262.454 233.364L284.41 246.041C282.852 248.44 281.324 251.712 281.395 253.832C281.489 256.686 296.786 256.784 305.068 253.495C311.969 251.774 315.623 243.508 312.995 231.62L301.087 177.762C298.479 165.965 290.306 154.175 281.021 148.814L274.857 145.255C270.501 142.74 266.387 141.922 262.978 142.672C259.964 142.976 252.141 144.033 247.59 144.721Z" fill="white"/>
<path fill-rule="evenodd" clip-rule="evenodd" d="M274.748 145.445C270.423 142.948 266.365 142.151 263.025 142.886C263.017 142.888 263.009 142.89 263 142.89C260.028 143.191 252.358 144.225 247.787 144.913C247.62 146.435 248.253 147.912 249.403 149.274C250.595 150.683 252.325 151.947 254.229 152.974C254.321 153.023 254.365 153.132 254.334 153.232L242.664 190.7C240.639 197.2 242.107 205.796 245.851 213.796C249.594 221.792 255.59 229.148 262.564 233.174L284.521 245.85C284.573 245.881 284.61 245.931 284.624 245.989C284.638 246.048 284.628 246.11 284.595 246.16C283.822 247.35 283.057 248.756 282.496 250.124C281.931 251.499 281.581 252.812 281.615 253.825C281.623 254.072 281.795 254.33 282.214 254.584C282.628 254.836 283.24 255.055 284.018 255.232C285.572 255.586 287.733 255.762 290.16 255.747C295.016 255.718 300.881 254.921 304.988 253.291C304.997 253.287 305.006 253.284 305.016 253.282C308.387 252.441 310.975 250.003 312.401 246.291C313.829 242.575 314.089 237.583 312.781 231.668L300.874 177.809C298.277 166.064 290.137 154.33 280.912 149.004L274.748 145.445ZM262.944 142.455C266.42 141.694 270.585 142.535 274.968 145.065L281.131 148.624C290.477 154.02 298.683 165.866 301.303 177.714L313.21 231.573C314.53 237.545 314.278 242.63 312.811 246.449C311.344 250.267 308.66 252.82 305.136 253.704C300.962 255.358 295.045 256.156 290.163 256.186C287.719 256.201 285.521 256.024 283.921 255.66C283.123 255.478 282.459 255.247 281.986 254.959C281.518 254.675 281.191 254.306 281.176 253.839C281.139 252.732 281.518 251.35 282.089 249.958C282.633 248.634 283.359 247.282 284.102 246.115L262.345 233.554C255.274 229.472 249.224 222.037 245.453 213.982C241.685 205.931 240.175 197.216 242.245 190.569L253.861 153.274C251.99 152.247 250.273 150.982 249.068 149.557C247.829 148.092 247.117 146.436 247.373 144.689C247.387 144.593 247.462 144.518 247.558 144.503C252.103 143.817 259.915 142.761 262.944 142.455Z" fill="black"/>
<path d="M290.214 156.745C288.377 156.658 276.834 160.573 271.293 162.542L287.803 192.701L303.205 187.06C300.793 169.632 293.437 159.847 290.214 156.745Z" fill="black"/>
<path d="M238.935 152.968C241.618 144.356 249.736 142.101 258.935 147.412L265.099 150.971C274.384 156.332 282.558 168.122 285.166 179.918L297.073 233.777C300.99 251.495 290.953 261.168 277.006 253.115L246.532 235.521C232.487 227.412 222.437 205.939 226.532 192.791L238.935 152.968Z" fill="white"/>
<path fill-rule="evenodd" clip-rule="evenodd" d="M265.099 151.41L258.935 147.851C249.903 142.637 241.933 144.851 239.299 153.306L226.896 193.129C222.875 206.038 232.743 227.121 246.532 235.082L277.006 252.676C290.699 260.582 300.554 251.085 296.708 233.69L284.801 179.831C282.24 168.249 274.216 156.673 265.099 151.41ZM258.935 147.412C249.736 142.101 241.618 144.356 238.935 152.968L226.532 192.791C222.437 205.939 232.487 227.412 246.532 235.521L277.006 253.115C290.953 261.168 300.99 251.495 297.073 233.777L285.166 179.918C282.558 168.122 274.384 156.332 265.099 150.971L258.935 147.412Z" fill="black"/>
<path d="M312.38 229.408L297.191 235.367C300.952 254.857 287.512 255.438 288.026 255.567C288.438 255.669 291.414 255.867 292.851 255.952C305.845 254.859 309.769 251.964 312.792 246.046C315.211 241.312 313.525 232.981 312.38 229.408Z" fill="black"/>
<path fill-rule="evenodd" clip-rule="evenodd" d="M312.475 229.21C312.53 229.236 312.571 229.284 312.59 229.341C313.167 231.142 313.878 234.134 314.142 237.274C314.405 240.406 314.226 243.723 312.988 246.147C311.464 249.131 309.7 251.375 306.665 253.003C303.642 254.624 299.376 255.624 292.87 256.172C292.859 256.173 292.849 256.173 292.838 256.172C292.119 256.129 291.015 256.059 290.038 255.986C289.55 255.949 289.093 255.912 288.732 255.877C288.379 255.844 288.096 255.811 287.974 255.78C287.964 255.778 287.946 255.773 287.926 255.764L287.926 255.763C287.913 255.758 287.859 255.733 287.823 255.672C287.801 255.634 287.788 255.586 287.795 255.533C287.801 255.483 287.822 255.446 287.839 255.424C287.869 255.384 287.905 255.365 287.915 255.36C287.942 255.346 287.969 255.337 287.982 255.334C287.999 255.329 288.018 255.324 288.037 255.32C288.077 255.31 288.135 255.298 288.204 255.284C288.257 255.273 288.317 255.261 288.381 255.247C288.688 255.182 289.147 255.074 289.701 254.889C290.81 254.519 292.294 253.839 293.678 252.566C296.433 250.034 298.847 245.102 296.976 235.409C296.956 235.305 297.013 235.202 297.111 235.163L312.3 229.204C312.357 229.182 312.42 229.184 312.475 229.21ZM297.441 235.505C299.268 245.185 296.854 250.243 293.975 252.89C292.534 254.215 290.989 254.922 289.84 255.306C289.633 255.375 289.438 255.434 289.26 255.484C289.51 255.505 289.785 255.526 290.071 255.548C291.038 255.62 292.131 255.69 292.849 255.733C299.328 255.187 303.517 254.193 306.457 252.616C309.389 251.043 311.099 248.881 312.597 245.947C313.778 243.636 313.966 240.421 313.705 237.311C313.454 234.335 312.797 231.491 312.242 229.699L297.441 235.505ZM288.101 255.756C288.101 255.756 288.102 255.756 288.103 255.756C288.102 255.756 288.101 255.756 288.101 255.756Z" fill="black"/>
<path d="M306.877 204.769L291.441 210.25L295.353 226.764L310.602 221.43L306.877 204.769Z" fill="black"/>
<path fill-rule="evenodd" clip-rule="evenodd" d="M306.984 204.577C307.039 204.607 307.078 204.66 307.092 204.721L310.817 221.382C310.841 221.491 310.78 221.6 310.675 221.637L295.426 226.971C295.367 226.991 295.303 226.986 295.248 226.956C295.194 226.926 295.154 226.875 295.14 226.814L291.229 210.3C291.203 210.191 291.263 210.08 291.369 210.043L306.804 204.562C306.863 204.541 306.929 204.546 306.984 204.577ZM291.701 210.39L295.511 226.476L310.346 221.287L306.717 205.059L291.701 210.39Z" fill="black"/>
<path d="M269.934 183.037C269.934 182.105 268.996 181.049 268.37 181.277L264.865 182.554C264.642 182.635 264.512 182.875 264.512 183.207L264.512 191.6C264.512 192.488 263.651 192.517 263.015 191.649L259.137 186.36C258.501 185.493 257.64 185.522 257.64 186.41L257.64 190.322C257.64 190.671 257.782 191.082 258.024 191.43L264.257 200.408C264.423 200.647 264.624 200.84 264.831 200.959L268.975 203.352C269.505 203.658 269.934 203.41 269.934 202.799L269.934 183.037Z" fill="#0075FF"/>
<path d="M250.969 191.767C250.969 192.699 251.907 193.755 252.532 193.527L256.037 192.25C256.26 192.169 256.39 191.929 256.39 191.596L256.39 183.204C256.39 182.315 257.251 182.287 257.888 183.154L261.765 188.443C262.401 189.311 263.263 189.282 263.263 188.393L263.263 184.482C263.263 184.133 263.12 183.722 262.878 183.373L256.645 174.396C256.479 174.157 256.278 173.964 256.071 173.844L251.927 171.451C251.398 171.146 250.969 171.394 250.969 172.005L250.969 191.767Z" fill="#0075FF"/>
<path d="M382.645 131.166C382.645 130.233 381.707 129.177 381.081 129.405L377.576 130.682C377.353 130.763 377.223 131.003 377.223 131.336L377.223 139.728C377.223 140.617 376.362 140.645 375.726 139.778L371.848 134.489C371.212 133.621 370.351 133.65 370.351 134.539L370.351 138.451C370.351 138.8 370.493 139.21 370.735 139.559L376.968 148.536C377.134 148.775 377.335 148.968 377.542 149.088L381.686 151.481C382.216 151.786 382.645 151.538 382.645 150.927L382.645 131.166Z" fill="#0075FF"/>
<path d="M363.68 139.896C363.68 140.828 364.617 141.884 365.243 141.656L368.748 140.38C368.971 140.298 369.101 140.058 369.101 139.726L369.101 131.333C369.101 130.445 369.962 130.416 370.598 131.284L374.476 136.573C375.112 137.44 375.974 137.412 375.974 136.523L375.974 132.611C375.974 132.262 375.831 131.851 375.589 131.503L369.356 122.525C369.19 122.286 368.989 122.093 368.782 121.974L364.638 119.581C364.109 119.275 363.68 119.523 363.68 120.134L363.68 139.896Z" fill="#0075FF"/>
</svg>
