<svg width="336" height="231" viewBox="0 0 336 231" fill="none" xmlns="http://www.w3.org/2000/svg">
<g clip-path="url(#clip0_167_7685)">
<rect x="-0.5" y="1.24829" width="337.297" height="228.959" rx="25" fill="url(#paint0_radial_167_7685)"/>
<path d="M216.457 108.845C216.457 111.105 215.166 113.293 212.756 115.315C210.346 117.337 206.845 119.168 202.496 120.712C193.802 123.797 181.773 125.71 168.476 125.71C155.178 125.71 143.149 123.797 134.455 120.712C130.106 119.168 126.605 117.337 124.195 115.315C121.785 113.293 120.494 111.105 120.494 108.845C120.494 106.584 121.785 104.396 124.195 102.374C126.605 100.352 130.106 98.5207 134.455 96.9776C143.149 93.892 155.178 91.9789 168.476 91.9789C181.773 91.9789 193.802 93.892 202.496 96.9776C206.845 98.5207 210.346 100.352 212.756 102.374C215.166 104.396 216.457 106.584 216.457 108.845Z" stroke="black" stroke-width="0.5"/>
<path d="M227.232 102.923C227.232 106.362 225.621 109.659 222.666 112.68C219.71 115.703 215.42 118.436 210.1 120.737C199.46 125.338 184.744 128.19 168.475 128.19C152.207 128.19 137.491 125.338 126.851 120.737C121.531 118.436 117.241 115.703 114.285 112.68C111.33 109.659 109.719 106.362 109.719 102.923C109.719 99.483 111.33 96.186 114.285 93.1648C117.241 90.1424 121.531 87.4092 126.851 85.1084C137.491 80.5071 152.207 77.655 168.475 77.655C184.744 77.655 199.46 80.5071 210.1 85.1084C215.42 87.4092 219.71 90.1424 222.666 93.1648C225.621 96.186 227.232 99.483 227.232 102.923Z" stroke="black" stroke-opacity="0.8" stroke-width="0.5"/>
<path d="M246.893 93.2572C246.893 103.258 238.212 112.39 223.996 119.036C209.8 125.673 190.171 129.785 168.475 129.785C146.78 129.785 127.151 125.673 112.955 119.036C98.7385 112.39 90.0576 103.258 90.0576 93.2572C90.0576 83.2559 98.7385 74.1241 112.955 67.4779C127.151 60.8412 146.78 56.7295 168.475 56.7295C190.171 56.7295 209.8 60.8412 223.996 67.4779C238.212 74.1241 246.893 83.2559 246.893 93.2572Z" stroke="black" stroke-opacity="0.6" stroke-width="0.5"/>
<path d="M274.217 82.8486C274.217 96.252 262.479 108.465 243.318 117.342C224.177 126.21 197.717 131.701 168.476 131.701C139.235 131.701 112.775 126.21 93.6343 117.342C74.4726 108.465 62.7352 96.252 62.7352 82.8486C62.7352 69.4452 74.4726 57.232 93.6343 48.355C112.775 39.4877 139.235 33.9965 168.476 33.9965C197.717 33.9965 224.177 39.4877 243.318 48.355C262.479 57.232 274.217 69.4452 274.217 82.8486Z" stroke="black" stroke-opacity="0.4" stroke-width="0.5"/>
<path d="M298.844 71.3832C298.844 88.5651 284.343 104.194 260.728 115.541C237.131 126.881 204.515 133.901 168.474 133.901C132.434 133.901 99.8174 126.881 76.2206 115.541C52.6058 104.194 38.1047 88.5651 38.1047 71.3832C38.1047 54.2014 52.6058 38.5729 76.2206 27.2251C99.8174 15.886 132.434 8.8656 168.474 8.8656C204.515 8.8656 237.131 15.886 260.728 27.2251C284.343 38.5729 298.844 54.2014 298.844 71.3832Z" stroke="black" stroke-opacity="0.2" stroke-width="0.5"/>
<path d="M324.679 59.7303C324.679 80.5541 307.371 99.5481 279.062 113.366C250.786 127.168 211.689 135.718 168.475 135.718C125.262 135.718 86.1642 127.168 57.8885 113.366C29.5793 99.5481 12.2718 80.5541 12.2718 59.7303C12.2718 38.9066 29.5793 19.9125 57.8885 6.09463C86.1642 -7.70691 125.262 -16.2574 168.475 -16.2574C211.689 -16.2574 250.786 -7.70691 279.062 6.09463C307.371 19.9125 324.679 38.9066 324.679 59.7303Z" stroke="black" stroke-opacity="0.1"/>
<path d="M361.269 59.7304C361.269 85.486 339.866 108.945 304.935 125.995C270.038 143.028 221.793 153.578 168.475 153.578C115.158 153.578 66.9129 143.028 32.0157 125.995C-2.91498 108.945 -24.3179 85.486 -24.3179 59.7304C-24.3179 33.9748 -2.91498 10.5158 32.0157 -6.534C66.9129 -23.5675 115.158 -34.1171 168.475 -34.1171C221.793 -34.1171 270.038 -23.5675 304.935 -6.534C339.866 10.5158 361.269 33.9748 361.269 59.7304Z" stroke="black" stroke-opacity="0.1"/>
<path d="M168.476 -11.6245V113.749" stroke="url(#paint1_linear_167_7685)"/>
<path d="M180.729 114.038C186.293 86.9427 220.138 23.7521 311.005 -12.2462" stroke="url(#paint2_linear_167_7685)" stroke-width="0.5"/>
<path d="M197.672 118.596C203.236 91.5004 268.497 55.7951 318.109 53.9438" stroke="url(#paint3_linear_167_7685)" stroke-width="0.5"/>
<path d="M137.34 119.244C131.775 92.1481 66.5143 56.4428 16.9027 54.5916" stroke="url(#paint4_linear_167_7685)" stroke-width="0.5"/>
<path d="M156.221 114.038C150.656 86.9427 116.811 23.7521 25.9446 -12.2462" stroke="url(#paint5_linear_167_7685)" stroke-width="0.5"/>
<path fill-rule="evenodd" clip-rule="evenodd" d="M178.561 93.6747C182.678 92.8834 186.129 89.2785 187.861 83.1272C191.176 71.3531 186.942 54.7082 178.403 45.9499C174.49 41.9364 170.352 40.2754 166.698 40.7868C166.629 40.7489 166.561 40.7117 166.493 40.6751L158.132 42.2527L159.093 46.2983C158.222 47.7361 157.492 49.443 156.938 51.4105C153.623 63.1846 157.857 79.8295 166.396 88.5878C167.53 89.7505 168.682 90.7157 169.836 91.4879L170.84 95.711L178.561 93.6747Z" fill="white"/>
<path fill-rule="evenodd" clip-rule="evenodd" d="M178.345 46.006C174.443 42.0037 170.329 40.3599 166.709 40.8665L166.683 40.8702L166.659 40.8573C166.599 40.8242 166.539 40.7916 166.48 40.7595L158.23 42.3161L159.179 46.3118L159.162 46.34C158.295 47.7707 157.568 49.4708 157.016 51.4322C155.363 57.3025 155.591 64.3924 157.3 71.1101C159.009 77.8278 162.197 84.1648 166.454 88.5315C167.584 89.6906 168.732 90.6521 169.881 91.4208L169.908 91.4384L170.9 95.612L178.543 93.596L178.545 93.5955C182.623 92.812 186.056 89.2395 187.783 83.1053C189.436 77.235 189.208 70.1451 187.499 63.4274C185.79 56.7097 182.602 50.3727 178.345 46.006ZM166.713 40.7032C170.395 40.1989 174.546 41.8785 178.461 45.8935C182.742 50.2852 185.941 56.6498 187.655 63.3876C189.369 70.1255 189.601 77.245 187.938 83.1489C186.202 89.3159 182.736 92.953 178.579 93.7532L170.781 95.8099L169.766 91.5372C168.615 90.7645 167.467 89.8014 166.339 88.6439C162.057 84.2523 158.858 77.8877 157.144 71.1498C155.43 64.412 155.198 57.2924 156.861 51.3886C157.413 49.428 158.14 47.7236 159.007 46.2848L158.034 42.189L166.506 40.5905L166.532 40.6041C166.592 40.6367 166.652 40.6697 166.713 40.7032Z" fill="black"/>
<path d="M181.413 84.8699C178.039 96.8542 168.257 99.3427 159.566 90.428C150.874 81.5133 146.564 64.5713 149.939 52.587C153.314 40.6027 163.095 38.1142 171.787 47.0289C180.478 55.9436 184.788 72.8856 181.413 84.8699Z" fill="white"/>
<path fill-rule="evenodd" clip-rule="evenodd" d="M159.61 90.2729C168.239 99.1238 177.95 96.6532 181.301 84.7545C184.651 72.8559 180.372 56.035 171.743 47.184C163.114 38.3331 153.402 40.8037 150.051 52.7024C146.701 64.601 150.98 81.4219 159.61 90.2729ZM159.566 90.428C168.257 99.3427 178.039 96.8542 181.413 84.8699C184.788 72.8856 180.478 55.9436 171.787 47.0289C163.095 38.1142 153.314 40.6027 149.939 52.587C146.564 64.5713 150.874 81.5133 159.566 90.428Z" fill="black"/>
<path d="M177.819 81.1842C175.215 90.432 167.667 92.3522 160.961 85.4731C154.254 78.594 150.928 65.5205 153.532 56.2727C156.136 47.0249 163.684 45.1047 170.391 51.9838C177.098 58.8629 180.423 71.9363 177.819 81.1842Z" fill="white"/>
<path fill-rule="evenodd" clip-rule="evenodd" d="M161.004 85.318C167.649 92.1334 175.127 90.2309 177.707 81.0688C180.287 71.9066 176.992 58.9543 170.347 52.1389C163.702 45.3235 156.224 47.226 153.644 56.3881C151.064 65.5503 154.36 78.5026 161.004 85.318ZM160.961 85.4731C167.667 92.3522 175.215 90.432 177.819 81.1842C180.423 71.9363 177.098 58.8629 170.391 51.9838C163.684 45.1047 156.136 47.0249 153.532 56.2727C150.928 65.5205 154.254 78.594 160.961 85.4731Z" fill="black"/>
<path d="M166.774 40.5619C166.209 40.5182 162.629 41.4054 160.786 41.8003C169.922 42.4986 174.298 49.4573 177.79 55.529L184.361 54.7736C183.134 52.3949 182.844 50.9446 178.245 45.791C173.196 40.1341 167.48 40.6164 166.774 40.5619Z" fill="black"/>
<path fill-rule="evenodd" clip-rule="evenodd" d="M167.064 40.6491C166.93 40.6481 166.83 40.6473 166.767 40.6424C166.706 40.6377 166.596 40.6455 166.44 40.6664C166.287 40.687 166.095 40.7194 165.873 40.7608C165.431 40.8438 164.874 40.9627 164.276 41.0955C163.756 41.211 163.205 41.3372 162.672 41.4591C162.192 41.5689 161.727 41.6752 161.314 41.7673C170.119 42.6872 174.414 49.501 177.833 55.4431L184.236 54.7071C184.057 54.3556 183.897 54.0246 183.739 53.6982C183.382 52.9581 183.037 52.242 182.498 51.3653C181.701 50.0667 180.482 48.4197 178.184 45.8449C175.672 43.0294 172.994 41.7432 170.859 41.1534C169.091 40.6653 167.699 40.6542 167.064 40.6491ZM170.902 40.9981C173.063 41.5951 175.769 42.8962 178.304 45.7376C180.606 48.3164 181.831 49.9713 182.636 51.281C183.178 52.1644 183.53 52.8925 183.889 53.6366C184.061 53.9934 184.235 54.3538 184.433 54.7369L184.486 54.8406L177.746 55.6153L177.72 55.5694C174.226 49.495 169.869 42.5756 160.78 41.8808L160.769 41.7217C161.289 41.6104 161.945 41.4601 162.634 41.3025C163.167 41.1806 163.719 41.0543 164.241 40.9382C164.839 40.8053 165.399 40.6859 165.844 40.6025C166.066 40.5607 166.261 40.5278 166.419 40.5067C166.574 40.4859 166.7 40.4756 166.78 40.4817C166.837 40.4862 166.931 40.4869 167.058 40.4878C167.684 40.4923 169.108 40.5025 170.902 40.9981Z" fill="black"/>
<path d="M180.587 87.0326C179.483 90.7366 176.328 93.5116 174.889 94.4361C174.403 94.7288 174.94 94.8374 179.862 93.2595C185.928 91.3148 188.192 83.3083 188.499 79.9267L182.112 81.6143C182.024 82.7438 181.058 85.6971 180.587 87.0326Z" fill="black"/>
<path d="M188.736 71.3188L182.425 72.6782C182.541 73.5329 182.619 76.2188 182.519 77.6294L188.69 76.1552C188.86 75.3537 188.705 72.7261 188.736 71.3188Z" fill="black"/>
<path fill-rule="evenodd" clip-rule="evenodd" d="M188.819 71.2183L188.817 71.3203C188.806 71.8229 188.818 72.4812 188.832 73.1581C188.837 73.4262 188.842 73.6973 188.846 73.9627C188.853 74.4295 188.855 74.8784 188.845 75.2611C188.835 75.6422 188.813 75.9634 188.768 76.1717L188.758 76.2215L182.43 77.733L182.438 77.6234C182.538 76.2173 182.46 73.5371 182.345 72.6887L182.335 72.6149L188.819 71.2183ZM182.514 72.7411C182.623 73.6491 182.693 76.1252 182.606 77.5254L188.62 76.0886C188.655 75.8949 188.675 75.6067 188.684 75.2569C188.694 74.8776 188.692 74.4313 188.685 73.9651C188.681 73.702 188.676 73.4324 188.671 73.1651C188.658 72.5314 188.646 71.9103 188.654 71.4187L182.514 72.7411Z" fill="black"/>
<path d="M172.074 65.5753C172.074 64.9403 171.435 64.2214 171.009 64.3766L168.622 65.2459C168.47 65.3013 168.382 65.4648 168.382 65.6912L168.382 71.4061C168.382 72.0113 167.795 72.0308 167.362 71.44L164.722 67.8383C164.288 67.2476 163.702 67.267 163.702 67.8722L163.702 70.5361C163.702 70.7737 163.799 71.0535 163.964 71.2908L168.208 77.4043C168.321 77.5668 168.458 77.6985 168.599 77.7798L171.421 79.4092C171.781 79.6173 172.074 79.4486 172.074 79.0325L172.074 65.5753Z" fill="#0075FF"/>
<path d="M159.159 71.5197C159.159 72.1547 159.798 72.8736 160.224 72.7184L162.611 71.8491C162.763 71.7937 162.851 71.6302 162.851 71.4038L162.851 65.6888C162.851 65.0837 163.438 65.0642 163.871 65.655L166.511 69.2566C166.945 69.8474 167.531 69.8279 167.531 69.2228L167.531 66.5588C167.531 66.3212 167.434 66.0415 167.269 65.8041L163.025 59.6906C162.912 59.5282 162.775 59.3965 162.634 59.3152L159.812 57.6857C159.452 57.4777 159.159 57.6464 159.159 58.0625L159.159 71.5197Z" fill="#0075FF"/>
<ellipse cx="137.422" cy="-4.96217" rx="5.15156" ry="7.63171" transform="rotate(-37.4761 137.422 -4.96217)" fill="#0075FF"/>
<path d="M199.891 48.2845C199.94 48.0468 200.28 48.0468 200.328 48.2845C200.629 49.7572 201.78 50.9081 203.253 51.2091C203.491 51.2577 203.491 51.5974 203.253 51.646C201.78 51.947 200.629 53.0979 200.328 54.5706C200.28 54.8084 199.94 54.8084 199.891 54.5706C199.59 53.0979 198.439 51.947 196.967 51.646C196.729 51.5974 196.729 51.2577 196.967 51.2091C198.439 50.9081 199.59 49.7572 199.891 48.2845Z" fill="white"/>
<path d="M146.407 28.4052C146.435 28.2652 146.635 28.2652 146.664 28.4052C146.841 29.2728 147.519 29.9509 148.387 30.1282C148.527 30.1569 148.527 30.357 148.387 30.3856C147.519 30.5629 146.841 31.241 146.664 32.1086C146.635 32.2487 146.435 32.2487 146.407 32.1086C146.229 31.241 145.551 30.5629 144.684 30.3856C144.544 30.357 144.544 30.1569 144.684 30.1282C145.551 29.9509 146.229 29.2728 146.407 28.4052Z" fill="white"/>
<path d="M116.74 41.9905L120.384 55.5898L106.784 51.9459L103.14 38.3465L116.74 41.9905Z" fill="#BDBDBD"/>
<path d="M120.033 38.6971L123.688 52.3364L110.088 48.6924L106.434 35.0532L120.033 38.6971Z" fill="white"/>
<path fill-rule="evenodd" clip-rule="evenodd" d="M123.625 52.2733L119.997 38.7335L106.497 35.1162L110.125 48.6561L123.625 52.2733ZM120.033 38.6971L106.434 35.0532L110.088 48.6924L123.688 52.3364L120.033 38.6971Z" fill="black"/>
<path d="M118.725 39.3111C119.027 39.392 119.338 39.7025 119.419 40.0045L122.213 50.4314C122.293 50.7335 122.114 50.9127 121.812 50.8318L111.385 48.0379C111.083 47.957 110.773 47.6465 110.692 47.3445L107.898 36.9176C107.817 36.6155 107.996 36.4363 108.298 36.5172L118.725 39.3111Z" fill="#0075FF"/>
<path fill-rule="evenodd" clip-rule="evenodd" d="M122.163 50.4181L119.369 39.9912C119.295 39.7166 119.013 39.4344 118.739 39.3608L108.312 36.5669C108.037 36.4934 107.874 36.6563 107.948 36.9309L110.742 47.3578C110.815 47.6324 111.097 47.9146 111.372 47.9882L121.799 50.7821C122.073 50.8556 122.236 50.6927 122.163 50.4181ZM119.419 40.0045C119.338 39.7025 119.027 39.392 118.725 39.3111L108.298 36.5172C107.996 36.4363 107.817 36.6155 107.898 36.9176L110.692 47.3445C110.773 47.6465 111.083 47.957 111.385 48.0379L121.812 50.8318C122.114 50.9127 122.293 50.7335 122.213 50.4314L119.419 40.0045Z" fill="black"/>
<path d="M106.434 35.0529L110.092 48.705L106.669 52.1279L103.011 38.4757L106.434 35.0529Z" fill="white"/>
<path fill-rule="evenodd" clip-rule="evenodd" d="M110.042 48.6917L106.411 35.139L103.061 38.489L106.692 52.0418L110.042 48.6917ZM106.434 35.0529L103.011 38.4757L106.669 52.1279L110.092 48.705L106.434 35.0529Z" fill="black"/>
<path d="M123.691 52.3296L110.053 48.6754L106.63 52.0982L120.268 55.7525L123.691 52.3296Z" fill="#E8E8E8"/>
<path fill-rule="evenodd" clip-rule="evenodd" d="M110.066 48.7251L123.604 52.3527L120.254 55.7027L106.716 52.0752L110.066 48.7251ZM123.691 52.3296L120.268 55.7525L106.63 52.0982L110.053 48.6754L123.691 52.3296Z" fill="black"/>
<path d="M120.99 55.0631L107.326 51.4018L106.629 52.0982L120.294 55.7595L120.99 55.0631Z" fill="#0075FF"/>
<path fill-rule="evenodd" clip-rule="evenodd" d="M107.339 51.4515L120.904 55.0862L120.28 55.7098L106.716 52.0751L107.339 51.4515ZM120.99 55.0631L120.294 55.7595L106.629 52.0982L107.326 51.4018L120.99 55.0631Z" fill="black"/>
<path d="M121.803 51.84L116.152 50.3258L116.405 51.2676L120.172 52.2771L121.803 51.84Z" fill="black"/>
<path fill-rule="evenodd" clip-rule="evenodd" d="M122.215 53.8035L108.675 50.1525L108.689 50.1029L122.229 53.7538L122.215 53.8035Z" fill="black"/>
<path d="M106.496 39.5775L108.216 45.995L106.607 47.6039L104.887 41.1865L106.496 39.5775Z" fill="#838383"/>
<path fill-rule="evenodd" clip-rule="evenodd" d="M108.166 45.9816L106.473 39.6636L104.937 41.1998L106.63 47.5178L108.166 45.9816ZM106.496 39.5775L104.887 41.1865L106.607 47.6039L108.216 45.995L106.496 39.5775Z" fill="black"/>
<path d="M106.55 39.78L108.216 45.9949L106.772 47.4382L105.107 41.2233L106.55 39.78Z" fill="black"/>
<path fill-rule="evenodd" clip-rule="evenodd" d="M108.166 45.9816L106.527 39.8661L105.157 41.2367L106.795 47.3521L108.166 45.9816ZM106.55 39.78L105.107 41.2233L106.772 47.4382L108.216 45.9949L106.55 39.78Z" fill="black"/>
<path fill-rule="evenodd" clip-rule="evenodd" d="M107.222 44.2884L106.645 45.3376L106.657 45.7532L106.812 45.598L106.876 46.1492L107.317 46.142L107.057 46.9057L106.991 46.873L107.197 46.2669L106.808 46.2732L106.751 45.7849L106.584 45.9523L106.567 45.3218L107.09 44.3681L106.47 44.1011L106.134 44.2712L106.157 43.5052L106.366 42.8203L105.95 42.7841L105.907 42.092L105.655 42.0244L105.864 41.2462L105.314 41.0989L105.346 40.9771L105.967 41.1433L105.758 41.9214L105.98 41.981L106.023 42.6651L106.477 42.7047L106.234 43.5037L106.216 44.1115L106.489 43.9729L107.222 44.2884Z" fill="#0075FF"/>
<path d="M106.38 40.2326C106.423 40.1905 106.469 40.203 106.485 40.2605C106.5 40.318 106.478 40.3988 106.436 40.4409L106.179 40.6981C106.137 40.7402 106.09 40.7277 106.075 40.6702C106.059 40.6127 106.081 40.5319 106.123 40.4898L106.38 40.2326Z" fill="#0075FF"/>
<path d="M106.454 40.6059C106.496 40.5638 106.543 40.5763 106.558 40.6338C106.573 40.6913 106.552 40.7721 106.51 40.8142L106.252 41.0714C106.21 41.1135 106.164 41.101 106.148 41.0435C106.133 40.986 106.154 40.9052 106.197 40.8631L106.454 40.6059Z" fill="#0075FF"/>
<path d="M106.536 40.9713C106.578 40.9292 106.624 40.9416 106.64 40.9992C106.655 41.0567 106.634 41.1374 106.592 41.1795L106.334 41.4367C106.292 41.4788 106.246 41.4663 106.23 41.4088C106.215 41.3513 106.236 41.2706 106.278 41.2285L106.536 40.9713Z" fill="#0075FF"/>
<path d="M106.61 41.3437C106.652 41.3016 106.699 41.3141 106.714 41.3716C106.729 41.4291 106.708 41.5099 106.666 41.552L106.409 41.8092C106.366 41.8513 106.32 41.8388 106.304 41.7813C106.289 41.7238 106.311 41.643 106.353 41.6009L106.61 41.3437Z" fill="#0075FF"/>
<path fill-rule="evenodd" clip-rule="evenodd" d="M107.807 45.8761L106.233 40.5102L106.283 40.4957L107.857 45.8616L107.807 45.8761Z" fill="#0075FF"/>
<path d="M104.875 37.5953L106.614 35.856L106.444 35.0825L103.017 38.5093L103.404 39.8397L104.629 38.6148L104.875 37.5953Z" fill="#0075FF"/>
<path fill-rule="evenodd" clip-rule="evenodd" d="M106.458 35.0308L106.642 35.8639L104.897 37.608L104.651 38.6276L103.391 39.8884L102.988 38.5015L106.458 35.0308ZM106.428 35.1336L103.045 38.5164L103.416 39.7904L104.605 38.6014L104.851 37.5819L106.585 35.8475L106.428 35.1336Z" fill="black"/>
<path fill-rule="evenodd" clip-rule="evenodd" d="M110.898 52.3732L113.6 49.6714L113.636 49.7078L110.935 52.4096L110.898 52.3732Z" fill="black"/>
<path d="M121.508 52.5903C121.674 52.3414 122.051 52.1552 122.349 52.1745C122.648 52.1937 122.755 52.4112 122.589 52.6601C122.423 52.909 122.047 53.0952 121.748 53.076C121.45 53.0567 121.342 52.8393 121.508 52.5903Z" fill="black"/>
<path fill-rule="evenodd" clip-rule="evenodd" d="M122.321 52.2173C122.05 52.1999 121.71 52.3684 121.559 52.5936C121.409 52.8189 121.507 53.0157 121.777 53.0331C122.047 53.0506 122.388 52.8821 122.538 52.6568C122.688 52.4315 122.591 52.2347 122.321 52.2173ZM122.349 52.1745C122.051 52.1552 121.674 52.3414 121.508 52.5903C121.342 52.8393 121.45 53.0567 121.748 53.076C122.047 53.0952 122.423 52.909 122.589 52.6601C122.755 52.4112 122.648 52.1937 122.349 52.1745Z" fill="black"/>
<path fill-rule="evenodd" clip-rule="evenodd" d="M122.513 52.3836L122.513 52.3835L122.513 52.3835C122.477 52.3194 122.398 52.2766 122.286 52.2693C122.05 52.2541 121.753 52.4011 121.622 52.5977C121.551 52.7042 121.543 52.8034 121.589 52.8743L121.772 53.2444L122.71 52.7807L122.523 52.4028C122.52 52.3962 122.517 52.3898 122.513 52.3836Z" fill="white"/>
<path fill-rule="evenodd" clip-rule="evenodd" d="M122.744 52.7921L121.76 53.2787L121.566 52.8868C121.514 52.8042 121.527 52.694 121.601 52.5832C121.669 52.4803 121.78 52.3917 121.904 52.3308C122.027 52.2699 122.164 52.2355 122.288 52.2435C122.394 52.2503 122.476 52.2881 122.522 52.3502L122.525 52.3488L122.536 52.3713C122.54 52.378 122.543 52.3848 122.546 52.3919L122.744 52.7921Z" fill="black"/>
<path d="M121.808 52.9853C121.94 52.7867 122.241 52.6381 122.479 52.6535C122.717 52.6689 122.803 52.8424 122.671 53.041C122.538 53.2396 122.238 53.3882 121.999 53.3728C121.761 53.3574 121.675 53.1839 121.808 52.9853Z" fill="white"/>
<path fill-rule="evenodd" clip-rule="evenodd" d="M122.45 52.6963C122.241 52.6828 121.976 52.8136 121.859 52.9886C121.743 53.1636 121.818 53.3164 122.028 53.33C122.238 53.3435 122.503 53.2126 122.619 53.0377C122.736 52.8627 122.66 52.7099 122.45 52.6963ZM122.479 52.6535C122.241 52.6381 121.94 52.7867 121.808 52.9853C121.675 53.1839 121.761 53.3574 121.999 53.3728C122.238 53.3882 122.538 53.2396 122.671 53.041C122.803 52.8424 122.717 52.6689 122.479 52.6535Z" fill="black"/>
<path d="M121.868 52.9546C121.977 52.791 122.225 52.6687 122.421 52.6813C122.617 52.694 122.688 52.8369 122.579 53.0004C122.47 53.164 122.222 53.2864 122.026 53.2737C121.83 53.261 121.759 53.1182 121.868 52.9546Z" fill="black"/>
<path fill-rule="evenodd" clip-rule="evenodd" d="M122.392 52.7242C122.224 52.7133 122.013 52.818 121.919 52.9579C121.826 53.0978 121.887 53.22 122.054 53.2309C122.222 53.2417 122.434 53.1371 122.527 52.9971C122.621 52.8572 122.56 52.735 122.392 52.7242ZM122.421 52.6813C122.225 52.6687 121.977 52.791 121.868 52.9546C121.759 53.1182 121.83 53.261 122.026 53.2737C122.222 53.2864 122.47 53.164 122.579 53.0004C122.688 52.8369 122.617 52.694 122.421 52.6813Z" fill="black"/>
<path fill-rule="evenodd" clip-rule="evenodd" d="M122.563 52.8737C122.541 52.8222 122.486 52.7867 122.403 52.7802C122.246 52.7677 122.049 52.865 121.964 52.9975C121.917 53.0692 121.913 53.1365 121.944 53.1851L122.146 53.5946L122.767 53.2876L122.563 52.8737Z" fill="white"/>
<path fill-rule="evenodd" clip-rule="evenodd" d="M122.802 53.2991L122.135 53.6289L121.922 53.1975C121.885 53.1376 121.893 53.0597 121.942 52.9834C121.988 52.9124 122.063 52.8521 122.145 52.8112C122.228 52.7704 122.321 52.7476 122.406 52.7543C122.494 52.7613 122.56 52.7999 122.586 52.8628L122.802 53.2991ZM122.733 53.2757L122.539 52.8841L122.539 52.8834C122.523 52.8438 122.478 52.8117 122.402 52.8056C122.329 52.7998 122.245 52.8196 122.168 52.8574C122.092 52.8952 122.025 52.9499 121.986 53.0113C121.943 53.0778 121.942 53.1339 121.966 53.1712L121.967 53.1723L122.158 53.56L122.733 53.2757Z" fill="black"/>
<path d="M122.175 53.4704C122.27 53.3291 122.483 53.2234 122.653 53.2344C122.822 53.2453 122.883 53.3687 122.789 53.51C122.695 53.6512 122.481 53.7569 122.312 53.7459C122.142 53.735 122.081 53.6116 122.175 53.4704Z" fill="white"/>
<path fill-rule="evenodd" clip-rule="evenodd" d="M122.624 53.2772C122.483 53.2681 122.305 53.356 122.227 53.4737C122.148 53.5913 122.199 53.694 122.34 53.7031C122.481 53.7122 122.659 53.6243 122.738 53.5066C122.816 53.389 122.765 53.2863 122.624 53.2772ZM122.653 53.2344C122.483 53.2234 122.27 53.3291 122.175 53.4704C122.081 53.6116 122.142 53.735 122.312 53.7459C122.481 53.7569 122.695 53.6512 122.789 53.51C122.883 53.3687 122.822 53.2453 122.653 53.2344Z" fill="black"/>
<path fill-rule="evenodd" clip-rule="evenodd" d="M122.677 53.419C122.665 53.3872 122.634 53.3637 122.586 53.3565C122.495 53.3429 122.38 53.3932 122.328 53.469C122.3 53.5098 122.297 53.5497 122.313 53.5799L122.407 53.7949L122.771 53.6361L122.677 53.419Z" fill="white"/>
<path fill-rule="evenodd" clip-rule="evenodd" d="M122.805 53.6496L122.394 53.829L122.29 53.5915C122.268 53.5505 122.275 53.5005 122.307 53.4547C122.336 53.412 122.382 53.3777 122.432 53.3559C122.482 53.334 122.539 53.3236 122.59 53.3313C122.644 53.3394 122.685 53.3669 122.701 53.4097L122.805 53.6496ZM122.737 53.623L122.653 53.4287L122.652 53.4279C122.645 53.4077 122.624 53.3884 122.582 53.3822C122.543 53.3763 122.496 53.3842 122.453 53.403C122.409 53.4219 122.372 53.4507 122.349 53.4837C122.325 53.5192 122.325 53.5485 122.336 53.5677L122.336 53.5688L122.42 53.7613L122.737 53.623Z" fill="black"/>
<path d="M122.406 53.6968C122.467 53.6145 122.599 53.557 122.7 53.5685C122.802 53.58 122.835 53.6561 122.774 53.7384C122.714 53.8208 122.582 53.8783 122.48 53.8668C122.378 53.8553 122.345 53.7792 122.406 53.6968Z" fill="black"/>
<path fill-rule="evenodd" clip-rule="evenodd" d="M122.67 53.6099C122.596 53.6016 122.501 53.6431 122.457 53.7026C122.413 53.7621 122.437 53.8171 122.511 53.8254C122.584 53.8337 122.679 53.7922 122.723 53.7327C122.767 53.6732 122.743 53.6182 122.67 53.6099ZM122.7 53.5685C122.599 53.557 122.467 53.6145 122.406 53.6968C122.345 53.7792 122.378 53.8553 122.48 53.8668C122.582 53.8783 122.714 53.8208 122.774 53.7384C122.835 53.6561 122.802 53.58 122.7 53.5685Z" fill="black"/>
<path fill-rule="evenodd" clip-rule="evenodd" d="M222.709 91.3345C224.41 91.8861 226.441 91.2491 228.354 89.3072C232.015 85.5903 233.857 78.5003 232.469 73.4712C231.833 71.1666 230.628 69.6948 229.158 69.1341C229.14 69.1057 229.122 69.0778 229.104 69.0502L225.656 67.9194L225.183 69.6288C224.562 69.9868 223.938 70.4744 223.326 71.0954C219.665 74.8124 217.823 81.9024 219.211 86.9314C219.395 87.599 219.627 88.1967 219.9 88.7226L219.406 90.5071L222.709 91.3345Z" fill="white"/>
<path fill-rule="evenodd" clip-rule="evenodd" d="M232.408 73.4882C231.775 71.1956 230.581 69.7449 229.136 69.1939L229.116 69.1863L229.105 69.1683C229.091 69.1466 229.077 69.1252 229.064 69.1039L225.701 68.0011L225.238 69.6712L225.216 69.6843C224.6 70.0389 223.981 70.5228 223.373 71.1403C221.552 72.9889 220.18 75.6797 219.438 78.5374C218.695 81.3952 218.583 84.4131 219.274 86.9143C219.457 87.578 219.687 88.1715 219.957 88.6931L219.969 88.7154L219.486 90.4608L222.728 91.2728L222.73 91.2735C224.4 91.8149 226.406 91.194 228.309 89.2621C230.13 87.4136 231.501 84.7228 232.244 81.865C232.986 79.0073 233.099 75.9893 232.408 73.4882ZM229.202 69.0818C230.688 69.6578 231.895 71.1478 232.532 73.4541C233.23 75.982 233.115 79.0235 232.368 81.8973C231.621 84.771 230.241 87.4837 228.4 89.3521C226.479 91.3032 224.425 91.9567 222.692 91.3961L219.327 90.5532L219.832 88.7296C219.562 88.2048 219.333 87.6103 219.15 86.9484C218.452 84.4205 218.567 81.3789 219.314 78.5052C220.061 75.6314 221.441 72.9187 223.281 71.0504C223.889 70.4333 224.51 69.9463 225.129 69.5864L225.613 67.8374L229.147 68.9963L229.159 69.0155C229.173 69.0373 229.187 69.0594 229.202 69.0818Z" fill="black"/>
<path d="M225.587 88.6316C221.86 92.4149 217.694 91.3322 216.281 86.2134C214.868 81.0946 216.743 73.878 220.469 70.0947C224.196 66.3115 228.362 67.3941 229.775 72.5129C231.188 77.6318 229.313 84.8483 225.587 88.6316Z" fill="white"/>
<path fill-rule="evenodd" clip-rule="evenodd" d="M216.371 86.1221C217.765 91.1726 221.876 92.2409 225.553 88.508C229.229 84.7752 231.08 77.6548 229.685 72.6043C228.291 67.5537 224.18 66.4855 220.503 70.2183C216.827 73.9512 214.976 81.0715 216.371 86.1221ZM216.281 86.2134C217.694 91.3322 221.86 92.4149 225.587 88.6316C229.313 84.8483 231.188 77.6318 229.775 72.5129C228.362 67.3941 224.196 66.3115 220.469 70.0947C216.743 73.878 214.868 81.0946 216.281 86.2134Z" fill="black"/>
<path d="M225.003 86.5153C222.127 89.4347 218.912 88.5992 217.821 84.6492C216.731 80.6993 218.178 75.1305 221.054 72.2111C223.929 69.2917 227.144 70.1271 228.235 74.0771C229.325 78.0271 227.878 83.5958 225.003 86.5153Z" fill="white"/>
<path fill-rule="evenodd" clip-rule="evenodd" d="M217.911 84.5579C218.983 88.4396 222.143 89.2606 224.969 86.3917C227.794 83.5227 229.216 78.0502 228.145 74.1685C227.073 70.2867 223.913 69.4657 221.088 72.3347C218.262 75.2037 216.84 80.6762 217.911 84.5579ZM217.821 84.6492C218.912 88.5992 222.127 89.4347 225.003 86.5153C227.878 83.5958 229.325 78.0271 228.235 74.0771C227.144 70.1271 223.929 69.2917 221.054 72.2111C218.178 75.1305 216.731 80.6993 217.821 84.6492Z" fill="black"/>
<path d="M229.233 69.0651C229.031 68.9326 227.511 68.5275 226.741 68.296C230.011 70.4363 230.214 73.9367 230.27 76.9235L232.88 77.9933C232.911 76.852 233.101 76.2505 232.443 73.3788C231.721 70.2267 229.486 69.2307 229.233 69.0651Z" fill="#0075FF"/>
<path fill-rule="evenodd" clip-rule="evenodd" d="M229.31 69.1844C229.259 69.156 229.221 69.1345 229.197 69.1191C229.178 69.1066 229.138 69.0879 229.076 69.0637C229.015 69.04 228.937 69.0128 228.846 68.9829C228.664 68.923 228.432 68.8529 228.181 68.7796C227.964 68.7159 227.732 68.6497 227.508 68.5856C227.369 68.5459 227.233 68.507 227.105 68.47C230.075 70.6349 230.278 74.0077 230.332 76.8806L232.818 77.8993C232.824 77.7459 232.831 77.6022 232.839 77.4606C232.858 77.1114 232.876 76.7752 232.855 76.3383C232.824 75.6915 232.708 74.8272 232.38 73.3935C232.022 71.8309 231.289 70.8045 230.616 70.1483C230.06 69.6058 229.547 69.318 229.31 69.1844ZM230.706 70.0565C231.394 70.7277 232.141 71.7753 232.505 73.3648C232.834 74.8028 232.952 75.6751 232.983 76.3323C233.004 76.7754 232.986 77.1222 232.967 77.4749C232.958 77.6433 232.949 77.8131 232.944 77.9954L232.941 78.0882L230.206 76.9673L230.205 76.9251C230.149 73.9358 229.944 70.47 226.705 68.35L226.759 68.235C226.976 68.3003 227.252 68.3791 227.541 68.4618C227.765 68.5259 227.998 68.5923 228.217 68.6565C228.468 68.73 228.702 68.8005 228.886 68.8611C228.978 68.8913 229.058 68.9193 229.122 68.9441C229.184 68.9683 229.236 68.9912 229.267 69.0119C229.287 69.0248 229.321 69.0439 229.367 69.0697C229.598 69.199 230.134 69.4985 230.706 70.0565Z" fill="black"/>
<path d="M224.833 89.2693C223.659 90.4262 221.909 90.8139 221.181 90.8631C220.94 90.8727 221.118 91.0237 223.281 91.4468C225.948 91.9682 228.441 89.4426 229.252 88.2424L226.518 87.5588C226.253 87.9627 225.284 88.8674 224.833 89.2693Z" fill="black"/>
<path d="M231.111 85.0749L228.473 84.2844C228.34 84.6275 227.817 85.6471 227.489 86.1535L230.098 86.8723C230.327 86.608 230.81 85.5943 231.111 85.0749Z" fill="black"/>
<path fill-rule="evenodd" clip-rule="evenodd" d="M231.206 85.0371L231.166 85.1074C231.058 85.2923 230.928 85.54 230.794 85.7954C230.741 85.8968 230.687 85.9994 230.633 86.0997C230.54 86.2756 230.448 86.4442 230.365 86.5857C230.283 86.726 230.208 86.8436 230.146 86.9146L230.12 86.9452L227.387 86.1924L227.435 86.119C227.761 85.6156 228.282 84.5999 228.413 84.2616L228.434 84.2063L231.206 85.0371ZM228.51 84.3629C228.355 84.7346 227.903 85.6131 227.589 86.115L230.074 86.7997C230.124 86.736 230.185 86.64 230.255 86.521C230.336 86.3818 230.427 86.215 230.52 86.0395C230.573 85.9408 230.626 85.8393 230.679 85.7385C230.798 85.5129 230.914 85.2912 231.014 85.1135L228.51 84.3629Z" fill="black"/>
<path fill-rule="evenodd" clip-rule="evenodd" d="M57.8909 20.5038C57.081 21.186 56.7653 22.406 57.1422 23.9752C57.8637 26.9788 60.8497 30.1246 63.8116 31.0016C65.169 31.4035 66.2857 31.2591 67.0279 30.6958C67.0477 30.6956 67.0674 30.6954 67.0867 30.6952L68.7349 29.3163L68.0239 28.5433C68.0386 28.119 67.9889 27.6529 67.8683 27.151C67.1468 24.1474 64.1608 21.0016 61.1989 20.1246C60.8057 20.0082 60.4327 19.9376 60.0832 19.9098L59.341 19.1029L57.8909 20.5038Z" fill="white"/>
<path fill-rule="evenodd" clip-rule="evenodd" d="M63.8225 30.9658C65.1728 31.3656 66.2757 31.2198 67.005 30.6662L67.0151 30.6585L67.0277 30.6584C67.0429 30.6583 67.058 30.6582 67.0729 30.658L68.6801 29.3133L67.9856 28.5581L67.9861 28.5426C68.0006 28.1222 67.9514 27.6595 67.8315 27.1605C67.4727 25.6667 66.5499 24.135 65.3464 22.867C64.1428 21.5991 62.6613 20.5978 61.1882 20.1616C60.7973 20.0459 60.4269 19.9758 60.0803 19.9482L60.0654 19.947L59.3396 19.1579L57.9165 20.5326L57.9155 20.5334C57.1205 21.2031 56.8042 22.4058 57.1792 23.9669C57.5381 25.4607 58.4609 26.9924 59.6644 28.2604C60.868 29.5283 62.3495 30.5296 63.8225 30.9658ZM67.0408 30.7342C66.2859 31.301 65.1593 31.4408 63.801 31.0386C62.3121 30.5978 60.8197 29.5877 59.6094 28.3126C58.3991 27.0375 57.4681 25.4945 57.1054 23.9847C56.7267 22.408 57.0415 21.1712 57.8656 20.4762L59.3428 19.0492L60.1012 19.8738C60.4493 19.9026 60.8199 19.9734 61.2098 20.0888C62.6986 20.5296 64.1911 21.5397 65.4014 22.8148C66.6117 24.0899 67.5427 25.6329 67.9054 27.1427C68.0251 27.6413 68.0755 28.1057 68.0625 28.5296L68.7898 29.3204L67.1009 30.7335L67.0874 30.7337C67.072 30.7339 67.0565 30.7341 67.0408 30.7342Z" fill="black"/>
<path d="M58.3482 22.7963C57.6138 19.7391 59.4625 17.9843 62.4773 18.877C65.4921 19.7696 68.5314 22.9715 69.2658 26.0288C70.0001 29.086 68.1515 30.8407 65.1367 29.9481C62.1219 29.0555 59.0825 25.8535 58.3482 22.7963Z" fill="white"/>
<path fill-rule="evenodd" clip-rule="evenodd" d="M62.495 18.9508C59.5204 18.07 57.6964 19.8014 58.421 22.8178C59.1455 25.8343 62.1443 28.9936 65.1189 29.8743C68.0935 30.755 69.9176 29.0237 69.193 26.0072C68.4684 22.9908 65.4696 19.8315 62.495 18.9508ZM62.4773 18.877C59.4625 17.9843 57.6138 19.7391 58.3482 22.7963C59.0825 25.8535 62.1219 29.0555 65.1367 29.9481C68.1515 30.8407 70.0001 29.086 69.2658 26.0288C68.5314 22.9715 65.4921 19.7696 62.4773 18.877Z" fill="black"/>
<path d="M59.5947 23.1655C59.028 20.8063 60.4545 19.4523 62.7809 20.1411C65.1073 20.8299 67.4527 23.3007 68.0193 25.6598C68.586 28.0189 67.1595 29.373 64.8331 28.6842C62.5067 27.9954 60.1614 25.5246 59.5947 23.1655Z" fill="white"/>
<path fill-rule="evenodd" clip-rule="evenodd" d="M62.7987 20.2149C60.5125 19.538 59.1106 20.8686 59.6675 23.187C60.2244 25.5054 62.5291 27.9335 64.8153 28.6104C67.1016 29.2873 68.5034 27.9566 67.9465 25.6383C67.3897 23.3199 65.0849 20.8918 62.7987 20.2149ZM62.7809 20.1411C60.4545 19.4523 59.028 20.8063 59.5947 23.1655C60.1614 25.5246 62.5067 27.9954 64.8331 28.6842C67.1595 29.373 68.586 28.0189 68.0193 25.6598C67.4527 23.3007 65.1073 20.8299 62.7809 20.1411Z" fill="black"/>
<path d="M67.0391 30.7552C67.1689 30.6952 67.8485 30.0581 68.2058 29.7439C66.1065 30.7166 64.2838 29.7229 62.7655 28.8155L61.4105 29.7924C61.9744 30.1652 62.2172 30.4491 63.8663 31.0176C65.6765 31.6416 66.8768 30.8302 67.0391 30.7552Z" fill="#0075FF"/>
<path fill-rule="evenodd" clip-rule="evenodd" d="M66.9551 30.7563C66.9852 30.7398 67.008 30.7273 67.0231 30.7203C67.0353 30.7147 67.0572 30.7004 67.089 30.6766C67.1199 30.6534 67.158 30.6228 67.2015 30.5865C67.2886 30.5138 67.3965 30.4191 67.5118 30.3161C67.6119 30.2267 67.7178 30.131 67.8201 30.0384C67.8836 29.981 67.9458 29.9248 68.0044 29.8721C65.9864 30.687 64.2281 29.7326 62.7673 28.8605L61.477 29.7908C61.5524 29.8415 61.6222 29.8904 61.691 29.9385C61.8606 30.0573 62.0239 30.1717 62.2499 30.298C62.5845 30.4852 63.0552 30.6974 63.8786 30.9813C64.7759 31.2906 65.521 31.2439 66.0615 31.1112C66.5083 31.0015 66.8135 30.8341 66.9551 30.7563ZM66.0796 31.185C65.5268 31.3207 64.7666 31.3677 63.8538 31.053C63.0281 30.7684 62.5528 30.5544 62.2128 30.3643C61.9835 30.2361 61.8151 30.1182 61.6438 29.9982C61.562 29.9409 61.4795 29.8832 61.3895 29.8237L61.3436 29.7934L62.7634 28.7697L62.7849 28.7825C64.3044 29.6907 66.1104 30.6725 68.1897 29.709L68.2308 29.7719C68.13 29.8605 68.0041 29.9744 67.8718 30.094C67.7695 30.1866 67.6634 30.2825 67.5623 30.3727C67.4469 30.4758 67.3382 30.5713 67.2501 30.6447C67.2061 30.6815 67.167 30.713 67.1345 30.7373C67.1029 30.7611 67.0752 30.7799 67.0549 30.7892C67.0422 30.7951 67.022 30.8062 66.9946 30.8213C66.8573 30.897 66.5391 31.0721 66.0796 31.185Z" fill="black"/>
<path d="M58.2639 22.2177C58.0502 21.2653 58.4032 20.2647 58.6064 19.8834C58.6772 19.7591 58.5456 19.8013 57.6555 20.7561C56.5585 21.9328 57.0472 23.9764 57.3964 24.7595L58.5959 23.5999C58.476 23.3401 58.3246 22.5702 58.2639 22.2177Z" fill="black"/>
<path d="M58.4059 26.6861L59.629 25.6081C59.4982 25.434 59.1497 24.8518 58.9978 24.5286L57.8197 25.6145C57.8809 25.8122 58.2392 26.3721 58.4059 26.6861Z" fill="black"/>
<path fill-rule="evenodd" clip-rule="evenodd" d="M58.3951 26.7457L58.3725 26.7033C58.3132 26.5915 58.2295 26.4485 58.1432 26.3011C58.1089 26.2426 58.0742 26.1834 58.0405 26.1251C57.9814 26.023 57.9254 25.9242 57.8802 25.8383C57.8354 25.753 57.8 25.6782 57.7836 25.6251L57.7765 25.6022L59.0103 24.465L59.0323 24.5118C59.1833 24.8331 59.5305 25.4131 59.6595 25.5847L59.6806 25.6128L58.3951 26.7457ZM59.5781 25.6019C59.4398 25.4078 59.1399 24.9054 58.9859 24.5906L57.8638 25.625C57.8803 25.6698 57.9094 25.7306 57.9474 25.8029C57.9918 25.8874 58.0472 25.9852 58.1062 26.0871C58.1394 26.1444 58.1737 26.203 58.2078 26.2612C58.284 26.3914 58.3589 26.5194 58.4168 26.6254L59.5781 25.6019Z" fill="black"/>
<path fill-rule="evenodd" clip-rule="evenodd" d="M-13.3483 43.7028C-15.1612 45.23 -15.868 47.9607 -15.0242 51.4734C-13.4092 58.1967 -6.72524 65.2384 -0.0951616 67.2014C2.94311 68.101 5.44282 67.7779 7.10413 66.5169C7.14862 66.5166 7.19256 66.5161 7.23594 66.5155L10.9251 63.4289L9.33373 61.6987C9.36655 60.749 9.25529 59.7056 8.98543 58.5821C7.37042 51.8588 0.686456 44.8171 -5.94362 42.8541C-6.82374 42.5935 -7.65867 42.4355 -8.44112 42.3732L-10.1023 40.5671L-13.3483 43.7028Z" fill="white"/>
<path fill-rule="evenodd" clip-rule="evenodd" d="M-0.0711032 67.121C2.95135 68.0159 5.42014 67.6895 7.0527 66.4503L7.07519 66.4332L7.10342 66.433C7.13746 66.4327 7.17117 66.4324 7.20456 66.432L10.8022 63.422L9.24756 61.7317L9.24876 61.6968C9.28127 60.7559 9.17109 59.7201 8.90276 58.603C8.09956 55.2593 6.03395 51.8308 3.33987 48.9925C0.645791 46.1543 -2.67043 43.9129 -5.96781 42.9366C-6.84291 42.6775 -7.672 42.5207 -8.44793 42.4589L-8.48115 42.4563L-10.1059 40.6897L-13.2914 43.767L-13.2936 43.7689C-15.0731 45.2678 -15.7811 47.9601 -14.9417 51.4546C-14.1385 54.7983 -12.0729 58.2268 -9.37878 61.0651C-6.6847 63.9033 -3.36848 66.1447 -0.0711032 67.121ZM7.13285 66.6027C5.44288 67.8713 2.92117 68.1842 -0.119345 67.2839C-3.45205 66.2972 -6.79285 64.0362 -9.50203 61.1821C-12.2112 58.3279 -14.2951 54.8738 -15.1069 51.4943C-15.9547 47.9649 -15.25 45.1965 -13.4053 43.6408L-10.0988 40.4465L-8.40116 42.2922C-7.62184 42.3569 -6.79227 42.5153 -5.91957 42.7737C-2.58686 43.7604 0.753944 46.0214 3.46312 48.8755C6.17229 51.7297 8.25618 55.1838 9.06799 58.5633C9.33609 59.6795 9.44896 60.7188 9.41973 61.6678L11.0479 63.438L7.26723 66.6011L7.23703 66.6015C7.20265 66.602 7.16792 66.6024 7.13285 66.6027Z" fill="black"/>
<path d="M-12.325 48.8343C-13.9688 41.9909 -9.83073 38.063 -3.08228 40.0611C3.66616 42.0592 10.4694 49.2266 12.1133 56.0699C13.7571 62.9133 9.61903 66.8412 2.87059 64.8431C-3.87786 62.845 -10.6811 55.6776 -12.325 48.8343Z" fill="white"/>
<path fill-rule="evenodd" clip-rule="evenodd" d="M-3.04259 40.2263C-9.70105 38.2549 -13.784 42.1304 -12.1621 48.8825C-10.5401 55.6346 -3.82756 62.7064 2.8309 64.6779C9.48935 66.6493 13.5723 62.7738 11.9504 56.0217C10.3284 49.2696 3.61586 42.1978 -3.04259 40.2263ZM-3.08228 40.0611C-9.83073 38.063 -13.9688 41.9909 -12.325 48.8343C-10.6811 55.6776 -3.87786 62.845 2.87059 64.8431C9.61903 66.8412 13.7571 62.9133 12.1133 56.0699C10.4694 49.2266 3.66616 42.0592 -3.08228 40.0611Z" fill="black"/>
<path d="M-9.53526 49.6604C-10.8037 44.3797 -7.61054 41.3487 -2.40303 42.8905C2.80447 44.4324 8.05429 49.9632 9.32277 55.2439C10.5913 60.5247 7.39805 63.5556 2.19055 62.0138C-3.01695 60.472 -8.26677 54.9412 -9.53526 49.6604Z" fill="white"/>
<path fill-rule="evenodd" clip-rule="evenodd" d="M-2.36335 43.0558C-7.48086 41.5406 -10.6189 44.5192 -9.37232 49.7087C-8.12575 54.8982 -2.96665 60.3334 2.15086 61.8486C7.26838 63.3638 10.4064 60.3852 9.15984 55.1957C7.91327 50.0062 2.75417 44.571 -2.36335 43.0558ZM-2.40303 42.8905C-7.61054 41.3487 -10.8037 44.3797 -9.53526 49.6604C-8.26677 54.9412 -3.01695 60.472 2.19055 62.0138C7.39805 63.5556 10.5913 60.5247 9.32277 55.2439C8.05429 49.9632 2.80447 44.4324 -2.40303 42.8905Z" fill="black"/>
<path d="M7.12915 66.6498C7.41977 66.5155 8.94099 65.0894 9.74072 64.386C5.04165 66.5635 0.961606 64.3391 -2.43704 62.308L-5.47007 64.4948C-4.2078 65.3292 -3.66436 65.9646 0.0270768 67.2371C4.07898 68.6339 6.76587 66.8178 7.12915 66.6498Z" fill="#0075FF"/>
<path fill-rule="evenodd" clip-rule="evenodd" d="M6.94045 66.6524C7.00792 66.6153 7.0588 66.5874 7.09264 66.5718C7.11992 66.5591 7.16906 66.5272 7.24018 66.4739C7.30947 66.4219 7.39459 66.3535 7.49206 66.2721C7.68691 66.1095 7.92844 65.8974 8.18658 65.667C8.4107 65.4669 8.64768 65.2526 8.87682 65.0454C9.01897 64.9168 9.15811 64.791 9.2893 64.673C4.77215 66.4971 0.836294 64.3608 -2.43351 62.4086L-5.32185 64.4911C-5.15301 64.6046 -4.99676 64.714 -4.84282 64.8218C-4.46327 65.0876 -4.09772 65.3437 -3.59182 65.6265C-2.84273 66.0454 -1.78913 66.5205 0.0539192 67.1558C2.06257 67.8483 3.73046 67.7438 4.94024 67.4468C5.94041 67.2012 6.62345 66.8264 6.94045 66.6524ZM4.98076 67.6118C3.7433 67.9157 2.04179 68.0209 -0.00146289 67.3165C-1.84985 66.6793 -2.91369 66.2004 -3.67475 65.7749C-4.18798 65.4879 -4.56502 65.2239 -4.94849 64.9554C-5.13161 64.8272 -5.31619 64.6979 -5.51777 64.5647L-5.6204 64.4968L-2.44226 62.2054L-2.3943 62.2341C1.00717 64.2669 5.04973 66.4648 9.70415 64.308L9.79598 64.4489C9.57052 64.6472 9.28854 64.9022 8.99255 65.1698C8.76344 65.377 8.52594 65.5918 8.29975 65.7937C8.0413 66.0245 7.79805 66.2381 7.60095 66.4026C7.50244 66.4848 7.41478 66.5554 7.34213 66.6098C7.2713 66.663 7.20933 66.705 7.16396 66.726C7.13557 66.7391 7.0903 66.7641 7.02887 66.7979C6.7215 66.9671 6.00939 67.3593 4.98076 67.6118Z" fill="black"/>
<mask id="mask0_167_7685" style="mask-type:alpha" maskUnits="userSpaceOnUse" x="120" y="91" width="97" height="36">
<path d="M216.457 108.917C216.457 111.177 215.166 113.365 212.756 115.387C210.346 117.409 206.845 119.241 202.496 120.784C193.802 123.869 181.773 125.782 168.476 125.782C155.178 125.782 143.149 123.869 134.455 120.784C130.106 119.241 126.605 117.409 124.195 115.387C121.785 113.365 120.494 111.177 120.494 108.917C120.494 106.656 121.785 104.469 124.195 102.446C126.605 100.425 130.106 98.5929 134.455 97.0497C143.149 93.9642 155.178 92.051 168.476 92.051C181.773 92.051 193.802 93.9642 202.496 97.0497C206.845 98.5929 210.346 100.425 212.756 102.446C215.166 104.469 216.457 106.656 216.457 108.917Z" fill="black" stroke="black" stroke-width="0.5"/>
</mask>
<g mask="url(#mask0_167_7685)">
<path d="M200.537 121.62C200.537 122.504 199.834 123.481 198.217 124.469C196.63 125.439 194.299 126.33 191.375 127.086C185.534 128.596 177.437 129.535 168.475 129.535C159.513 129.535 151.416 128.596 145.575 127.086C142.651 126.33 140.32 125.439 138.732 124.469C137.115 123.481 136.412 122.504 136.412 121.62C136.412 120.736 137.115 119.759 138.732 118.771C140.32 117.801 142.651 116.91 145.575 116.154C151.416 114.644 159.513 113.705 168.475 113.705C177.437 113.705 185.534 114.644 191.375 116.154C194.299 116.91 196.63 117.801 198.217 118.771C199.834 119.759 200.537 120.736 200.537 121.62Z" fill="black" stroke="black"/>
</g>
<path fill-rule="evenodd" clip-rule="evenodd" d="M264.085 36.7173C264.713 37.0938 265.561 36.9806 266.431 36.2975C267.983 35.0787 269.014 32.5073 268.735 30.554C268.597 29.5964 268.171 28.9652 267.588 28.7141L266.153 27.9431L265.7 29.022C265.607 29.0828 265.513 29.1501 265.419 29.2241C263.867 30.4429 262.835 33.0143 263.115 34.9676C263.123 35.021 263.131 35.0733 263.141 35.1247L262.724 36.1171L264.085 36.7173Z" fill="white"/>
<path fill-rule="evenodd" clip-rule="evenodd" d="M268.703 30.5588C268.567 29.6074 268.144 28.9879 267.575 28.7425L267.574 28.742L266.166 27.9863L265.723 29.0429L265.715 29.048C265.623 29.1083 265.529 29.1751 265.436 29.2485C264.665 29.8538 264.022 30.7965 263.607 31.8322C263.191 32.8679 263.005 33.9936 263.144 34.9637C263.151 35.0167 263.16 35.0687 263.169 35.1196L263.171 35.1286L262.763 36.1017L264.098 36.6906L264.1 36.6916C264.712 37.0591 265.547 36.9526 266.411 36.2739C267.181 35.6686 267.824 34.726 268.24 33.6903C268.655 32.6545 268.842 31.5288 268.703 30.5588ZM267.6 28.687C268.195 28.9441 268.625 29.5869 268.763 30.5501C268.904 31.5333 268.715 32.67 268.296 33.713C267.878 34.756 267.23 35.7085 266.448 36.3219C265.574 37.0089 264.712 37.1291 264.07 36.7449L262.683 36.1333L263.108 35.1217C263.099 35.0728 263.091 35.023 263.083 34.9723C262.943 33.9892 263.132 32.8525 263.55 31.8095C263.969 30.7665 264.617 29.814 265.398 29.2005C265.49 29.1281 265.583 29.0619 265.674 29.002L266.136 27.9007L267.6 28.687Z" fill="black"/>
<path d="M265.132 35.7101C263.552 36.9507 262.041 36.3446 261.756 34.3565C261.472 32.3683 262.522 29.751 264.101 28.5105C265.681 27.2699 267.192 27.876 267.476 29.8641C267.761 31.8522 266.711 34.4696 265.132 35.7101Z" fill="white"/>
<path fill-rule="evenodd" clip-rule="evenodd" d="M261.804 34.3188C262.084 36.2735 263.57 36.8694 265.123 35.6497C266.676 34.43 267.708 31.8566 267.428 29.9018C267.148 27.9471 265.663 27.3512 264.11 28.5709C262.557 29.7906 261.525 32.364 261.804 34.3188ZM261.756 34.3565C262.041 36.3446 263.552 36.9507 265.132 35.7101C266.711 34.4696 267.761 31.8522 267.476 29.8641C267.192 27.876 265.681 27.2699 264.101 28.5105C262.522 29.751 261.472 32.3683 261.756 34.3565Z" fill="black"/>
<path d="M267.685 28.7495C267.616 28.6901 267.065 28.4652 266.787 28.3414C267.636 29.2997 267.56 30.4452 267.437 31.5684L268.625 32.2739C268.691 31.8472 268.792 31.6306 268.682 30.5218C268.563 29.3046 267.772 28.8237 267.685 28.7495Z" fill="black"/>
<path fill-rule="evenodd" clip-rule="evenodd" d="M267.705 28.8028C267.687 28.7895 267.674 28.7795 267.666 28.7724C267.66 28.7674 267.646 28.7587 267.624 28.7466C267.602 28.7349 267.575 28.721 267.542 28.7054C267.477 28.6742 267.393 28.6369 267.302 28.5973C267.224 28.563 267.14 28.5271 267.059 28.4923C267.003 28.468 266.947 28.4443 266.896 28.4221C267.659 29.3647 267.587 30.4745 267.47 31.5519L268.602 32.2245C268.611 32.1706 268.621 32.12 268.63 32.0702C268.654 31.9403 268.676 31.8156 268.69 31.651C268.709 31.4074 268.707 31.078 268.652 30.5245C268.593 29.9225 268.368 29.5034 268.148 29.2258C267.966 28.9964 267.788 28.8645 267.705 28.8028ZM268.196 29.1878C268.422 29.4735 268.653 29.9034 268.713 30.5185C268.768 31.074 268.77 31.4073 268.75 31.6559C268.737 31.8234 268.713 31.9531 268.689 32.0847C268.678 32.1474 268.666 32.2105 268.656 32.2783L268.649 32.3229L267.405 31.5844L267.407 31.5648C267.53 30.4408 267.604 29.3086 266.765 28.3614L266.8 28.3133C266.878 28.3482 266.978 28.391 267.083 28.4359C267.164 28.4706 267.248 28.5067 267.327 28.5414C267.418 28.581 267.502 28.6187 267.568 28.6503C267.601 28.6661 267.63 28.6805 267.653 28.6929C267.675 28.705 267.694 28.7163 267.705 28.7261C267.712 28.7317 267.724 28.7404 267.74 28.7521C267.82 28.8114 268.007 28.9502 268.196 29.1878Z" fill="black"/>
<path d="M264.72 35.903C264.224 36.2806 263.549 36.3421 263.273 36.3257C263.182 36.3177 263.561 36.5612 264.353 36.8237C265.328 37.1473 266.353 36.4408 266.715 36.0294L265.482 35.3618C265.363 35.5006 264.908 35.7738 264.72 35.903Z" fill="black"/>
<path fill-rule="evenodd" clip-rule="evenodd" d="M260.281 35.7761C259.954 36.1096 260.062 36.7136 260.323 37.2604L255.94 40.5118C254.403 41.6528 253.771 44.8885 254.684 46.9506L256.11 50.1744C255.739 50.3161 255.299 50.5584 255.133 50.8023C254.91 51.1305 256.62 52.3956 257.819 52.7051C258.736 53.0777 259.824 52.4488 260.503 50.8982L263.581 43.8729C264.255 42.3342 264.304 40.3399 263.701 38.9766L263.3 38.0716C263.017 37.4319 262.622 37.0028 262.178 36.8075C261.814 36.5946 260.849 36.0719 260.281 35.7761Z" fill="white"/>
<path fill-rule="evenodd" clip-rule="evenodd" d="M263.271 38.0841C262.99 37.449 262.599 37.0269 262.164 36.8357C262.163 36.8352 262.162 36.8346 262.161 36.834C261.802 36.6241 260.856 36.1115 260.286 35.814C260.143 35.9712 260.093 36.189 260.11 36.4363C260.129 36.6922 260.219 36.9761 260.349 37.2474C260.355 37.2606 260.351 37.2764 260.34 37.2851L255.957 40.5365C255.197 41.1006 254.657 42.1863 254.422 43.3918C254.187 44.5967 254.257 45.9145 254.71 46.9384L256.137 50.1622C256.14 50.1698 256.14 50.1786 256.137 50.1863C256.134 50.194 256.128 50.2001 256.12 50.2031C255.936 50.2733 255.734 50.3686 255.559 50.4762C255.383 50.5843 255.236 50.7031 255.157 50.8196C255.138 50.848 255.136 50.8912 255.162 50.954C255.188 51.0163 255.239 51.0909 255.311 51.1747C255.457 51.3418 255.685 51.5388 255.959 51.7361C256.507 52.1309 257.231 52.5223 257.826 52.6758C257.827 52.6761 257.828 52.6765 257.83 52.677C258.277 52.859 258.768 52.7973 259.232 52.4974C259.697 52.1971 260.136 51.6577 260.474 50.8861L263.552 43.8608C264.223 42.3289 264.271 40.3436 263.671 38.9891L263.271 38.0841ZM262.19 36.7805C262.643 36.98 263.042 37.416 263.327 38.0594L263.727 38.9644C264.335 40.3366 264.285 42.3399 263.608 43.8853L260.53 50.9106C260.188 51.6897 259.743 52.2401 259.265 52.5487C258.787 52.8573 258.277 52.924 257.809 52.7344C257.204 52.5779 256.474 52.1825 255.923 51.7857C255.648 51.587 255.415 51.3868 255.265 51.2148C255.191 51.1289 255.135 51.0485 255.106 50.9775C255.076 50.9071 255.07 50.8389 255.106 50.7853C255.193 50.6579 255.349 50.5337 255.527 50.4242C255.697 50.3201 255.889 50.2278 256.068 50.1576L254.654 46.9631C254.195 45.9249 254.125 44.5939 254.362 43.3801C254.599 42.167 255.143 41.0643 255.921 40.4875L260.283 37.251C260.157 36.9823 260.068 36.6994 260.05 36.4406C260.031 36.1745 260.086 35.9301 260.258 35.7549C260.268 35.7453 260.282 35.743 260.294 35.7492C260.861 36.0447 261.825 36.5666 262.19 36.7805Z" fill="black"/>
<path d="M264.082 40.6214C263.882 40.461 262.265 39.9545 261.481 39.7213L260.863 44.4621L263.055 45.0912C264.213 42.9362 264.189 41.2341 264.082 40.6214Z" fill="black"/>
<path d="M258.633 35.9929C259.641 35.2456 260.737 35.6578 261.335 37.0085L261.736 37.9135C262.339 39.2769 262.29 41.2711 261.616 42.8098L258.538 49.8351C257.525 52.1462 255.605 52.4097 254.699 50.362L252.719 45.8875C251.806 43.8254 252.438 40.5897 253.975 39.4487L258.633 35.9929Z" fill="white"/>
<path fill-rule="evenodd" clip-rule="evenodd" d="M261.7 37.9628L261.299 37.0578C260.712 35.7317 259.635 35.3269 258.646 36.0607L253.989 39.5165C252.479 40.6367 251.859 43.8136 252.755 45.8382L254.735 50.3127C255.625 52.3232 257.51 52.0645 258.504 49.7954L261.582 42.7701C262.244 41.2594 262.292 39.3014 261.7 37.9628ZM261.335 37.0085C260.737 35.6578 259.641 35.2456 258.633 35.9929L253.975 39.4487C252.438 40.5897 251.806 43.8254 252.719 45.8875L254.699 50.362C255.605 52.4097 257.525 52.1462 258.538 49.8351L261.616 42.8098C262.29 41.2711 262.339 39.2769 261.736 37.9135L261.335 37.0085Z" fill="black"/>
<path d="M260.615 50.5991L258.42 50.0231C257.245 52.5205 255.688 51.4839 255.735 51.5405C255.773 51.5858 256.091 51.852 256.245 51.9794C257.794 52.9218 258.472 52.9184 259.297 52.5016C259.957 52.1681 260.451 51.0943 260.615 50.5991Z" fill="black"/>
<path fill-rule="evenodd" clip-rule="evenodd" d="M260.641 50.5846C260.645 50.592 260.646 50.6007 260.643 50.6087C260.561 50.8582 260.395 51.2527 260.167 51.6269C259.94 52.0003 259.648 52.3582 259.31 52.5289C258.895 52.7391 258.512 52.8465 258.038 52.7805C257.566 52.7148 257.005 52.4774 256.229 52.0055C256.228 52.0047 256.226 52.0039 256.225 52.003C256.148 51.9392 256.03 51.8407 255.926 51.7524C255.874 51.7083 255.826 51.6667 255.788 51.6331C255.751 51.6004 255.722 51.5736 255.711 51.5601C255.71 51.559 255.709 51.557 255.707 51.5543L255.707 51.5543C255.706 51.5527 255.702 51.5455 255.703 51.5356C255.704 51.5296 255.706 51.523 255.711 51.5176C255.716 51.5125 255.721 51.5101 255.725 51.509C255.732 51.5071 255.737 51.5079 255.739 51.5081C255.743 51.5087 255.747 51.51 255.749 51.5106C255.751 51.5114 255.753 51.5125 255.756 51.5135C255.761 51.5158 255.769 51.5192 255.778 51.5233C255.785 51.5264 255.792 51.5299 255.801 51.5337C255.84 51.5514 255.901 51.577 255.978 51.6017C256.133 51.651 256.356 51.6962 256.615 51.6668C257.132 51.6082 257.808 51.2522 258.392 50.0102C258.399 49.9969 258.413 49.9899 258.428 49.9937L260.622 50.5696C260.63 50.5717 260.637 50.5772 260.641 50.5846ZM258.437 50.0591C257.848 51.2961 257.163 51.6662 256.622 51.7275C256.352 51.7581 256.12 51.7109 255.96 51.6598C255.931 51.6506 255.904 51.6413 255.88 51.6322C255.906 51.6551 255.935 51.6801 255.966 51.706C256.068 51.7933 256.185 51.8908 256.263 51.9545C257.035 52.4243 257.587 52.6561 258.047 52.72C258.505 52.7838 258.874 52.681 259.283 52.4744C259.605 52.3116 259.89 51.9659 260.115 51.5952C260.331 51.2405 260.49 50.8671 260.575 50.6203L258.437 50.0591ZM255.727 51.5678C255.727 51.5678 255.727 51.5679 255.728 51.5679C255.728 51.5679 255.727 51.5678 255.727 51.5678Z" fill="black"/>
<path d="M262.016 47.3807L259.833 46.7308L258.919 48.9062L261.069 49.5573L262.016 47.3807Z" fill="black"/>
<path fill-rule="evenodd" clip-rule="evenodd" d="M262.044 47.3683C262.048 47.3762 262.048 47.3854 262.045 47.3934L261.097 49.57C261.091 49.5842 261.075 49.5915 261.06 49.5871L258.91 48.936C258.902 48.9335 258.895 48.9276 258.892 48.9198C258.888 48.9119 258.888 48.9029 258.891 48.895L259.806 46.7195C259.812 46.7051 259.828 46.6976 259.843 46.7021L262.025 47.3519C262.034 47.3544 262.041 47.3604 262.044 47.3683ZM259.851 46.7684L258.961 48.8874L261.052 49.5208L261.975 47.4006L259.851 46.7684Z" fill="black"/>
<path d="M259.958 41.7659C260.035 41.6611 260.016 41.4657 259.927 41.44L259.429 41.296C259.397 41.2868 259.363 41.3032 259.336 41.3405L258.648 42.2831C258.575 42.3829 258.476 42.3155 258.475 42.1659L258.473 41.254C258.473 41.1044 258.374 41.037 258.301 41.1368L257.98 41.5762C257.952 41.6154 257.934 41.6732 257.933 41.7322L257.897 43.2515C257.896 43.2919 257.903 43.3301 257.916 43.3604L258.185 43.969C258.22 44.0467 258.288 44.054 258.338 43.9854L259.958 41.7659Z" fill="#0075FF"/>
<path d="M257.112 41.1907C257.036 41.2954 257.055 41.4909 257.144 41.5166L257.642 41.6605C257.674 41.6697 257.708 41.6534 257.735 41.616L258.423 40.6734C258.496 40.5736 258.595 40.641 258.596 40.7906L258.598 41.7025C258.598 41.8521 258.697 41.9196 258.77 41.8197L259.091 41.3804C259.119 41.3412 259.137 41.2834 259.138 41.2244L259.174 39.705C259.175 39.6647 259.168 39.6265 259.155 39.5961L258.886 38.9876C258.851 38.9099 258.783 38.9025 258.733 38.9712L257.112 41.1907Z" fill="#0075FF"/>
<path fill-rule="evenodd" clip-rule="evenodd" d="M333.745 67.8914C332.846 68.4311 331.629 68.2689 330.382 67.2895C328.157 65.5421 326.678 61.8555 327.079 59.0551C327.276 57.6822 327.888 56.7772 328.722 56.4172L330.781 55.3119L331.43 56.8587C331.564 56.9458 331.698 57.0423 331.833 57.1484C334.058 58.8958 335.537 62.5824 335.136 65.3828C335.125 65.4593 335.113 65.5344 335.099 65.6081L335.696 67.0308L333.745 67.8914Z" fill="white"/>
<path fill-rule="evenodd" clip-rule="evenodd" d="M327.124 59.0618C327.32 57.6978 327.926 56.8097 328.741 56.4578L328.743 56.4571L330.761 55.3736L331.396 56.8885L331.407 56.8959C331.54 56.9822 331.674 57.0779 331.808 57.1833C332.913 58.0511 333.835 59.4026 334.43 60.8875C335.026 62.3724 335.293 63.9863 335.094 65.3771C335.083 65.453 335.071 65.5276 335.058 65.6006L335.056 65.6134L335.641 67.0086L333.726 67.8529L333.724 67.8543C332.846 68.3813 331.649 68.2286 330.411 67.2555C329.306 66.3877 328.384 65.0362 327.788 63.5513C327.193 62.0665 326.925 60.4526 327.124 59.0618ZM328.705 56.3782C327.852 56.7468 327.235 57.6684 327.038 59.0494C326.836 60.4589 327.107 62.0886 327.707 63.5839C328.307 65.0793 329.237 66.4448 330.357 67.3243C331.611 68.3093 332.846 68.4816 333.767 67.9308L335.755 67.054L335.146 65.6036C335.159 65.5335 335.171 65.4621 335.181 65.3895C335.383 63.9799 335.111 62.3503 334.512 60.8549C333.912 59.3595 332.982 57.994 331.862 57.1145C331.73 57.0106 331.598 56.9157 331.466 56.8298L330.804 55.251L328.705 56.3782Z" fill="black"/>
<path d="M332.245 66.4474C334.509 68.226 336.676 67.3571 337.084 64.5067C337.492 61.6564 335.987 57.9039 333.722 56.1254C331.458 54.3468 329.291 55.2157 328.883 58.0661C328.475 60.9164 329.98 64.6689 332.245 66.4474Z" fill="white"/>
<path fill-rule="evenodd" clip-rule="evenodd" d="M337.015 64.4527C336.614 67.2552 334.484 68.1095 332.257 66.3608C330.031 64.6121 328.551 60.9227 328.952 58.1201C329.353 55.3176 331.483 54.4633 333.71 56.212C335.936 57.9607 337.416 61.6502 337.015 64.4527ZM337.084 64.5067C336.676 67.3571 334.509 68.226 332.245 66.4474C329.98 64.6689 328.475 60.9164 328.883 58.0661C329.291 55.2157 331.458 54.3468 333.722 56.1254C335.987 57.9039 337.492 61.6564 337.084 64.5067Z" fill="black"/>
<path d="M328.584 56.4677C328.683 56.3825 329.473 56.06 329.871 55.8826C328.654 57.2565 328.764 58.8988 328.939 60.5091L327.236 61.5206C327.141 60.9088 326.998 60.5984 327.154 59.0086C327.326 57.2635 328.459 56.5741 328.584 56.4677Z" fill="black"/>
<path fill-rule="evenodd" clip-rule="evenodd" d="M328.555 56.5446C328.58 56.5256 328.6 56.5113 328.611 56.5011C328.62 56.4938 328.639 56.4814 328.671 56.464C328.702 56.4472 328.742 56.4273 328.789 56.405C328.883 56.3604 329.002 56.3068 329.132 56.2501C329.245 56.2009 329.365 56.1494 329.481 56.0995C329.562 56.0646 329.641 56.0306 329.715 55.9988C328.621 57.3502 328.724 58.9413 328.892 60.4861L327.268 61.4503C327.256 61.3731 327.242 61.3006 327.229 61.2291C327.195 61.0429 327.162 60.864 327.144 60.6281C327.116 60.2788 327.119 59.8065 327.197 59.0131C327.282 58.1499 327.604 57.5491 327.92 57.1511C328.181 56.8222 328.435 56.6332 328.555 56.5446ZM327.851 57.0967C327.526 57.5062 327.196 58.1226 327.11 59.0045C327.031 59.8009 327.028 60.2787 327.056 60.6351C327.076 60.8753 327.11 61.0613 327.144 61.2499C327.16 61.3398 327.177 61.4303 327.192 61.5275L327.202 61.5915L328.985 60.5326L328.982 60.5046C328.806 58.8931 328.7 57.2698 329.903 55.9119L329.852 55.8429C329.74 55.8929 329.597 55.9542 329.447 56.0186C329.331 56.0685 329.211 56.1202 329.097 56.1699C328.967 56.2266 328.846 56.2807 328.751 56.326C328.704 56.3487 328.662 56.3693 328.63 56.3871C328.598 56.4044 328.571 56.4207 328.554 56.4346C328.545 56.4428 328.528 56.4551 328.506 56.472C328.391 56.557 328.122 56.756 327.851 57.0967Z" fill="black"/>
<path d="M332.836 66.7244C333.547 67.2659 334.515 67.3541 334.91 67.3305C335.04 67.319 334.496 67.6681 333.362 68.0445C331.963 68.5084 330.494 67.4955 329.975 66.9057L331.743 65.9486C331.914 66.1476 332.566 66.5393 332.836 66.7244Z" fill="black"/>
<path fill-rule="evenodd" clip-rule="evenodd" d="M339.199 66.5423C339.668 67.0204 339.514 67.8864 339.139 68.6703L345.422 73.3319C347.627 74.9677 348.532 79.6066 347.224 82.5631L345.178 87.185C345.711 87.3881 346.342 87.7356 346.58 88.0852C346.9 88.5558 344.448 90.3695 342.728 90.8133C341.415 91.3474 339.855 90.4459 338.881 88.2227L334.468 78.1506C333.501 75.9446 333.431 73.0854 334.296 71.1308L334.871 69.8333C335.277 68.9163 335.843 68.301 336.48 68.0211C337.001 67.7158 338.385 66.9664 339.199 66.5423Z" fill="white"/>
<path fill-rule="evenodd" clip-rule="evenodd" d="M334.913 69.8512C335.316 68.9407 335.876 68.3354 336.5 68.0612C336.501 68.0606 336.503 68.0598 336.504 68.0589C337.018 67.7579 338.375 67.023 339.192 66.5965C339.398 66.8219 339.469 67.1341 339.444 67.4887C339.418 67.8556 339.288 68.2626 339.102 68.6516C339.093 68.6705 339.098 68.6931 339.115 68.7056L345.398 73.3671C346.488 74.1759 347.262 75.7324 347.6 77.4607C347.937 79.1882 347.836 81.0775 347.186 82.5455L345.141 87.1674C345.136 87.1783 345.136 87.1908 345.14 87.2019C345.145 87.213 345.154 87.2217 345.165 87.226C345.429 87.3267 345.718 87.4632 345.969 87.6176C346.221 87.7725 346.432 87.9429 346.546 88.1099C346.573 88.1506 346.576 88.2125 346.539 88.3026C346.501 88.3918 346.429 88.4989 346.324 88.619C346.116 88.8586 345.788 89.141 345.396 89.4239C344.61 89.9898 343.572 90.551 342.719 90.7711C342.718 90.7716 342.716 90.7722 342.714 90.7729C342.072 91.0338 341.369 90.9454 340.703 90.5154C340.036 90.0848 339.408 89.3115 338.923 88.2053L334.51 78.1332C333.548 75.9368 333.479 73.0906 334.339 71.1486L334.913 69.8512ZM336.462 67.9822C335.813 68.2682 335.241 68.8932 334.833 69.8157L334.259 71.1132C333.388 73.0806 333.459 75.9526 334.43 78.1683L338.843 88.2404C339.332 89.3573 339.97 90.1464 340.656 90.5889C341.341 91.0313 342.073 91.1269 342.744 90.8551C343.611 90.6308 344.657 90.0638 345.447 89.4949C345.842 89.2101 346.175 88.9231 346.39 88.6764C346.497 88.5533 346.577 88.438 346.619 88.3362C346.661 88.2354 346.67 88.1376 346.618 88.0607C346.494 87.8781 346.27 87.7 346.015 87.543C345.772 87.3938 345.496 87.2614 345.239 87.1608L347.266 82.5809C347.925 81.0925 348.025 79.1841 347.686 77.444C347.346 75.7047 346.565 74.1239 345.45 73.2968L339.196 68.6567C339.377 68.2715 339.505 67.8659 339.531 67.4949C339.558 67.1133 339.479 66.7629 339.232 66.5117C339.218 66.498 339.198 66.4947 339.18 66.5036C338.368 66.9273 336.986 67.6756 336.462 67.9822Z" fill="black"/>
<path d="M333.75 73.4887C334.036 73.2586 336.355 72.5325 337.478 72.1981L338.365 78.995L335.221 79.897C333.562 76.8073 333.596 74.3671 333.75 73.4887Z" fill="black"/>
<path d="M341.561 66.853C340.117 65.7816 338.545 66.3726 337.688 68.3091L337.114 69.6065C336.249 71.5612 336.318 74.4203 337.285 76.6264L341.698 86.6985C343.15 90.0119 345.903 90.3897 347.202 87.4538L350.041 81.0388C351.35 78.0824 350.444 73.4434 348.239 71.8076L341.561 66.853Z" fill="white"/>
<path fill-rule="evenodd" clip-rule="evenodd" d="M337.165 69.6772L337.74 68.3798C338.581 66.4785 340.125 65.8982 341.543 66.9502L348.221 71.9048C350.385 73.5108 351.274 78.0655 349.99 80.9681L347.151 87.3831C345.875 90.2656 343.172 89.8947 341.746 86.6415L337.333 76.5694C336.384 74.4035 336.316 71.5963 337.165 69.6772ZM337.688 68.3091C338.545 66.3726 340.117 65.7816 341.561 66.853L348.239 71.8076C350.444 73.4434 351.35 78.0824 350.041 81.0388L347.202 87.4538C345.903 90.3897 343.15 90.0119 341.698 86.6985L337.285 76.6264C336.318 74.4203 336.249 71.5612 337.114 69.6065L337.688 68.3091Z" fill="black"/>
<path fill-rule="evenodd" clip-rule="evenodd" d="M88.6876 78.9416C89.2383 78.4155 89.3584 77.5322 88.9121 76.4707C88.1158 74.577 85.818 72.8333 83.7798 72.576C82.7806 72.4499 82.0293 72.7045 81.6168 73.22L80.4473 74.4491L81.4059 75.2007C81.4412 75.3112 81.4829 75.4242 81.5312 75.5392C82.3275 77.4329 84.6253 79.1766 86.6635 79.4338C86.7192 79.4409 86.7742 79.4467 86.8283 79.4514L87.7101 80.1426L88.6876 78.9416Z" fill="white"/>
<path fill-rule="evenodd" clip-rule="evenodd" d="M83.7749 72.6085C82.7821 72.4833 82.0438 72.737 81.6406 73.2408L81.6398 73.2419L80.4934 74.4467L81.4323 75.1827L81.4352 75.192C81.4702 75.3016 81.5115 75.4137 81.5595 75.5278C81.955 76.4683 82.7244 77.3735 83.6499 78.0758C84.5754 78.7782 85.6543 79.2755 86.6665 79.4033C86.7218 79.4103 86.7764 79.4161 86.8301 79.4207L86.8395 79.4215L87.7041 80.0993L88.6632 78.9209L88.6646 78.9196C89.2023 78.406 89.3253 77.5385 88.8818 76.484C88.4863 75.5435 87.717 74.6383 86.7915 73.936C85.866 73.2337 84.7871 72.7363 83.7749 72.6085ZM81.5918 73.2C82.0138 72.6736 82.7778 72.4186 83.7828 72.5455C84.8087 72.675 85.8979 73.1781 86.8299 73.8853C87.7619 74.5926 88.5396 75.5061 88.9404 76.4594C89.3893 77.5268 89.2725 78.4254 88.71 78.9641L87.7141 80.1878L86.8152 79.4832C86.7637 79.4786 86.7114 79.473 86.6586 79.4663C85.6326 79.3368 84.5435 78.8337 83.6115 78.1265C82.6795 77.4192 81.9018 76.5057 81.501 75.5525C81.4536 75.4399 81.4126 75.3292 81.3777 75.2206L80.3992 74.4535L81.5918 73.2Z" fill="black"/>
<path d="M87.964 77.6129C88.7745 79.5405 87.7498 80.8908 85.6753 80.629C83.6007 80.3671 81.2619 78.5923 80.4514 76.6648C79.6408 74.7373 80.6655 73.3869 82.7401 73.6488C84.8146 73.9106 87.1535 75.6854 87.964 77.6129Z" fill="white"/>
<path fill-rule="evenodd" clip-rule="evenodd" d="M85.6506 80.5704C87.6904 80.8278 88.6979 79.5002 87.9009 77.605C87.104 75.7098 84.8044 73.9648 82.7647 73.7073C80.725 73.4499 79.7175 74.7776 80.5144 76.6727C81.3113 78.5679 83.6109 80.313 85.6506 80.5704ZM85.6753 80.629C87.7498 80.8908 88.7745 79.5405 87.964 77.6129C87.1535 75.6854 84.8146 73.9106 82.7401 73.6488C80.6655 73.3869 79.6408 74.7373 80.4514 76.6648C81.2619 78.5923 83.6007 80.3671 85.6753 80.629Z" fill="black"/>
<path d="M81.6785 73.1321C81.5998 73.1855 81.2222 73.6766 81.0215 73.9213C82.2174 73.3331 83.3465 73.7252 84.4405 74.1575L85.4761 73.1591C85.0659 72.975 84.8761 72.8148 83.7326 72.619C82.4776 72.404 81.777 73.0654 81.6785 73.1321Z" fill="black"/>
<path fill-rule="evenodd" clip-rule="evenodd" d="M81.7376 73.1274C81.7194 73.1417 81.7056 73.1524 81.6962 73.1588C81.6895 73.1634 81.677 73.1746 81.6587 73.1937C81.641 73.2121 81.6194 73.2362 81.5948 73.2647C81.5455 73.3216 81.4849 73.3953 81.4203 73.4753C81.3643 73.5446 81.3051 73.6188 81.2479 73.6906C81.2079 73.7407 81.1688 73.7897 81.1325 73.835C82.289 73.3287 83.3834 73.7066 84.433 74.1208L85.4202 73.169C85.3686 73.1452 85.3204 73.122 85.2728 73.0991C85.149 73.0395 85.03 72.9822 84.8684 72.9237C84.6291 72.837 84.2978 72.7484 83.7271 72.6506C83.1064 72.5443 82.6236 72.6547 82.2842 72.7995C82.0037 72.9191 81.8225 73.061 81.7376 73.1274ZM82.2593 72.741C82.6085 72.5921 83.1036 72.4793 83.7379 72.588C84.3106 72.6861 84.6459 72.7755 84.89 72.8639C85.0546 72.9235 85.1783 72.9831 85.3038 73.0435C85.3636 73.0722 85.4237 73.1012 85.4889 73.1304L85.5318 73.1497L84.4477 74.195L84.4287 74.1874C83.3339 73.7548 82.2174 73.3688 81.0354 73.9501L80.9968 73.9015C81.0534 73.8325 81.1238 73.7443 81.1977 73.6516C81.2549 73.5799 81.3142 73.5055 81.3709 73.4354C81.4356 73.3553 81.4967 73.2809 81.5467 73.2231C81.5717 73.1942 81.5941 73.1693 81.6129 73.1497C81.6311 73.1307 81.6476 73.1149 81.6606 73.1062C81.6681 73.1011 81.68 73.0918 81.6961 73.0791C81.7778 73.0149 81.9687 72.8649 82.2593 72.741Z" fill="black"/>
<path d="M88.0442 78.0799C88.2868 78.682 88.1626 79.3766 88.0702 79.6487C88.0371 79.7379 88.3861 79.4241 88.8676 78.7019C89.4611 77.8117 89.0341 76.5879 88.7207 76.1115L87.7108 77.1656C87.8174 77.3232 87.9665 77.8551 88.0442 78.0799Z" fill="black"/>
<path fill-rule="evenodd" clip-rule="evenodd" d="M86.6932 82.5012C86.9378 82.9219 87.574 82.9801 88.1949 82.8684L90.2525 88.164C90.9745 90.0223 94.0493 91.5476 96.3711 91.1992L100.001 90.6546C100.041 91.0668 100.163 91.5752 100.362 91.8089C100.63 92.1236 102.371 90.755 103.013 89.6356C103.639 88.8183 103.307 87.5527 101.938 86.4435L95.7316 81.418C94.3723 80.3174 92.3834 79.7193 90.8483 79.9496L89.8294 80.1025C89.1092 80.2105 88.5695 80.4889 88.2511 80.8814C87.9372 81.1876 87.1465 82.0128 86.6932 82.5012Z" fill="white"/>
<path fill-rule="evenodd" clip-rule="evenodd" d="M89.834 80.1354C89.1189 80.2427 88.5875 80.5185 88.2756 80.9029C88.2748 80.9038 88.274 80.9048 88.2731 80.9056C87.9636 81.2077 87.1883 82.0165 86.7326 82.5067C86.851 82.6942 87.0559 82.8044 87.309 82.8548C87.571 82.9069 87.881 82.8941 88.1892 82.8386C88.2041 82.8359 88.2189 82.8442 88.2244 82.8584L90.282 88.154C90.639 89.0728 91.5803 89.9139 92.7259 90.4822C93.8709 91.0501 95.2134 91.3423 96.3663 91.1693L99.9961 90.6247C100.005 90.6234 100.013 90.6257 100.02 90.6311C100.027 90.6364 100.032 90.6444 100.032 90.6531C100.052 90.8575 100.092 91.0857 100.152 91.2913C100.212 91.4978 100.291 91.6781 100.386 91.7898C100.409 91.8171 100.452 91.8308 100.523 91.8218C100.592 91.8129 100.681 91.7825 100.785 91.7324C100.993 91.6323 101.254 91.4574 101.527 91.2368C102.075 90.7955 102.667 90.1764 102.985 89.6214C102.986 89.6201 102.986 89.619 102.987 89.6178C103.293 89.2186 103.366 88.709 103.193 88.1601C103.02 87.6105 102.599 87.0216 101.917 86.4697L95.7114 81.4443C94.3582 80.3484 92.378 79.7537 90.8529 79.9825L89.834 80.1354ZM88.2274 80.8614C88.5525 80.4618 89.1001 80.1813 89.8245 80.0726L90.8435 79.9197C92.3885 79.6879 94.3862 80.2894 95.7514 81.3949L101.957 86.4203C102.646 86.9776 103.076 87.5762 103.254 88.141C103.432 88.7058 103.358 89.237 103.039 89.6548C102.715 90.2187 102.117 90.8427 101.567 91.2863C101.292 91.5084 101.027 91.6866 100.813 91.7897C100.706 91.8411 100.61 91.8747 100.531 91.8848C100.452 91.8949 100.382 91.8825 100.338 91.8311C100.234 91.709 100.152 91.5183 100.091 91.3091C100.033 91.1102 99.9937 90.8915 99.9725 90.6925L96.3757 91.2322C95.2068 91.4076 93.851 91.1113 92.6976 90.5391C91.5448 89.9672 90.5878 89.1165 90.2227 88.177L88.1746 82.9057C87.8701 82.9582 87.5615 82.9698 87.2966 82.9171C87.0241 82.8629 86.7941 82.7397 86.6656 82.5186C86.6585 82.5066 86.6602 82.4913 86.6698 82.4811C87.1226 81.9933 87.9121 81.1693 88.2274 80.8614Z" fill="black"/>
<path d="M92.6057 80.0196C92.3897 80.1754 91.4357 81.6598 90.9857 82.3826L95.5754 84.309L96.8109 82.281C94.966 80.525 93.2505 80.0803 92.6057 80.0196Z" fill="black"/>
<path d="M86.4578 84.2157C85.9849 82.9985 86.7009 82.0109 88.2217 81.7827L89.2406 81.6298C90.7757 81.3995 92.7646 81.9976 94.1239 83.0983L100.33 88.1237C102.371 89.7769 102.107 91.7776 99.8014 92.1235L94.7634 92.8795C92.4416 93.2278 89.3668 91.7025 88.6448 89.8442L86.4578 84.2157Z" fill="white"/>
<path fill-rule="evenodd" clip-rule="evenodd" d="M89.2802 81.6795L88.2612 81.8324C86.7681 82.0565 86.0652 83.0261 86.5295 84.2212L88.7164 89.8497C89.4253 91.6742 92.4442 93.1718 94.7238 92.8297L99.7618 92.0738C102.026 91.7342 102.285 89.7699 100.281 88.1467L94.0747 83.1213C92.7401 82.0406 90.7873 81.4534 89.2802 81.6795ZM88.2217 81.7827C86.7009 82.0109 85.9849 82.9985 86.4578 84.2157L88.6448 89.8442C89.3668 91.7025 92.4416 93.2278 94.7634 92.8795L99.8014 92.1235C102.107 91.7776 102.371 89.7769 100.33 88.1237L94.1239 83.0983C92.7646 81.9976 90.7757 81.3995 89.2406 81.6298L88.2217 81.7827Z" fill="black"/>
<path d="M101.668 86.249L100.485 88.2938C102.669 90.1618 101.199 91.4397 101.269 91.4079C101.325 91.3824 101.68 91.1363 101.85 91.0165C103.223 89.7207 103.406 89.039 103.215 88.0961C103.062 87.3418 102.12 86.5504 101.668 86.249Z" fill="black"/>
<path fill-rule="evenodd" clip-rule="evenodd" d="M101.662 86.2183C101.67 86.2163 101.679 86.2179 101.687 86.2228C101.914 86.3746 102.265 86.6493 102.578 86.9811C102.89 87.3121 103.169 87.7039 103.247 88.09C103.344 88.5655 103.346 88.9786 103.15 89.4367C102.953 89.893 102.561 90.391 101.873 91.0398C101.872 91.0408 101.871 91.0418 101.87 91.0426C101.784 91.1026 101.653 91.1942 101.536 91.274C101.477 91.3139 101.422 91.3509 101.378 91.3796C101.335 91.4076 101.3 91.4294 101.283 91.437C101.282 91.4376 101.279 91.4387 101.276 91.4394L101.276 91.4394C101.274 91.4399 101.266 91.442 101.257 91.4382C101.251 91.436 101.245 91.4317 101.241 91.4251C101.237 91.4189 101.236 91.4128 101.236 91.4088C101.236 91.4016 101.238 91.3962 101.239 91.3947C101.24 91.3906 101.243 91.3873 101.244 91.3857C101.245 91.3836 101.247 91.3813 101.249 91.3791C101.253 91.3745 101.258 91.3679 101.265 91.36C101.27 91.354 101.275 91.3472 101.281 91.3398C101.31 91.3048 101.353 91.2512 101.399 91.1803C101.491 91.0384 101.598 90.8274 101.639 90.5586C101.723 90.0234 101.552 89.2471 100.466 88.3181C100.454 88.3081 100.451 88.2913 100.459 88.278L101.641 86.2333C101.646 86.2257 101.653 86.2203 101.662 86.2183ZM100.527 88.287C101.607 89.2185 101.79 90.009 101.702 90.5684C101.659 90.8485 101.547 91.0678 101.452 91.2149C101.435 91.2415 101.418 91.2657 101.402 91.2874C101.432 91.2672 101.466 91.2449 101.5 91.2215C101.616 91.1425 101.746 91.0519 101.831 90.992C102.516 90.3458 102.9 89.8554 103.091 89.4116C103.281 88.9691 103.28 88.57 103.185 88.1026C103.11 87.7344 102.842 87.3533 102.532 87.0247C102.235 86.7103 101.904 86.4475 101.679 86.2946L100.527 88.287ZM101.296 91.4228C101.296 91.4228 101.296 91.4227 101.296 91.4225C101.296 91.4227 101.296 91.4228 101.296 91.4228Z" fill="black"/>
<path d="M98.8237 83.9552L97.57 85.968L99.5023 87.4854L100.748 85.506L98.8237 83.9552Z" fill="black"/>
<path fill-rule="evenodd" clip-rule="evenodd" d="M98.818 83.9237C98.827 83.9222 98.8362 83.9246 98.8432 83.9303L100.768 85.4811C100.78 85.4912 100.783 85.5091 100.775 85.5228L99.5288 87.5021C99.524 87.5098 99.5162 87.515 99.5074 87.5165C99.4985 87.5181 99.4894 87.5158 99.4823 87.5102L97.55 85.9928C97.5372 85.9827 97.534 85.9647 97.5426 85.951L98.7963 83.9382C98.8011 83.9305 98.809 83.9252 98.818 83.9237ZM97.6116 85.9604L99.4938 87.4384L100.706 85.5129L98.8313 84.0023L97.6116 85.9604Z" fill="black"/>
<path d="M129.741 95.4534C129.83 94.8865 130.455 94.8865 130.544 95.4533L130.738 96.6788C131.175 99.4532 133.209 101.708 135.924 102.427C136.362 102.543 136.362 103.353 135.924 103.469C133.209 104.188 131.175 106.442 130.738 109.217L130.544 110.442C130.455 111.009 129.83 111.009 129.741 110.442L129.548 109.217C129.11 106.442 127.076 104.188 124.361 103.469C123.924 103.353 123.924 102.543 124.361 102.427C127.076 101.708 129.11 99.4532 129.548 96.6788L129.741 95.4534Z" fill="white"/>
</g>
<defs>
<radialGradient id="paint0_radial_167_7685" cx="0" cy="0" r="1" gradientUnits="userSpaceOnUse" gradientTransform="translate(168.148 -26.7468) rotate(90) scale(240.907 288.827)">
<stop stop-color="white"/>
<stop offset="1" stop-color="#0075FF"/>
</radialGradient>
<linearGradient id="paint1_linear_167_7685" x1="168.476" y1="118.487" x2="168.476" y2="4.16241" gradientUnits="userSpaceOnUse">
<stop/>
<stop offset="1" stop-opacity="0"/>
</linearGradient>
<linearGradient id="paint2_linear_167_7685" x1="166.067" y1="114.038" x2="280.496" y2="-23.1766" gradientUnits="userSpaceOnUse">
<stop/>
<stop offset="1" stop-opacity="0"/>
</linearGradient>
<linearGradient id="paint3_linear_167_7685" x1="177.667" y1="133.742" x2="299.618" y2="49.9344" gradientUnits="userSpaceOnUse">
<stop offset="0.00867847"/>
<stop offset="1" stop-opacity="0"/>
</linearGradient>
<linearGradient id="paint4_linear_167_7685" x1="157.345" y1="134.389" x2="35.3942" y2="50.5821" gradientUnits="userSpaceOnUse">
<stop offset="0.00867847"/>
<stop offset="1" stop-opacity="0"/>
</linearGradient>
<linearGradient id="paint5_linear_167_7685" x1="156.221" y1="96.8763" x2="36.3561" y2="-1.28525" gradientUnits="userSpaceOnUse">
<stop/>
<stop offset="1" stop-opacity="0"/>
</linearGradient>
<clipPath id="clip0_167_7685">
<rect y="0.335938" width="336" height="230" rx="25" fill="white"/>
</clipPath>
</defs>
</svg>
