<svg width="621" height="414" viewBox="0 0 621 414" fill="none" xmlns="http://www.w3.org/2000/svg">
<path d="M501.174 209.379L560.502 158.354C561.341 157.632 561.442 156.373 560.709 155.543C532.709 123.816 486.758 91.3403 460.369 74.601C459.745 74.2051 458.969 74.1976 458.327 74.5638L392.941 111.869C391.212 112.855 391.76 115.898 393.665 116.475C423.508 125.509 478.764 179.455 498.17 208.966C498.843 209.989 500.246 210.177 501.174 209.379Z" fill="#0075FF" stroke="black"/>
<path d="M375.081 110.004L439.236 62.6106C439.922 62.1041 439.713 61.0341 438.88 60.8533C400.875 52.6061 340.916 57.1683 293.568 103.127C292.826 103.847 293.535 105.062 294.526 104.766L298.528 103.567C326.077 94.0601 341.801 90.6988 373.957 110.05C374.305 110.259 374.755 110.245 375.081 110.004Z" fill="white" stroke="black"/>
<path d="M295.045 101.46C282.521 112.721 275.524 131.455 274.758 141.189C274.442 145.206 278.143 146.872 282.134 146.32L303.957 143.305L329.282 138.847C330.747 138.589 331.171 136.691 329.956 135.834L328.95 135.125C317.344 126.942 310.998 113.18 312.31 99.0402L302.076 102.426C299.909 103.144 297.538 102.9 295.561 101.758L295.045 101.46Z" fill="black" stroke="black"/>
<path d="M124.633 154.207L53.8753 211.776C52.7129 212.721 52.4174 214.37 53.217 215.638C77.2025 253.658 126.294 295.996 151.196 318.235C151.963 318.92 153.008 319.15 153.997 318.87L229.304 297.548C230.208 297.292 230.323 295.986 229.511 295.514C202.822 280.026 146.238 192.916 129.355 155.357C128.532 153.525 126.191 152.94 124.633 154.207Z" fill="#0075FF" stroke="black"/>
<path d="M240.421 305.04L172.471 330.655C210.51 358.305 261.894 358.574 324.579 319.686L316.457 320.04C285.399 322.973 269.123 333.626 240.421 305.04Z" fill="white" stroke="black"/>
<path d="M300.189 299.485L300.292 320.991L315.529 319.748L324.744 319.37C336.189 312.46 348.941 297.439 352.221 289.133C353.391 286.17 350.557 284.639 347.467 285.414C341.634 286.878 331.94 289.165 324.713 290.131C319.153 290.874 311.582 291.837 306.323 292.499C302.807 292.942 300.172 295.94 300.189 299.485Z" fill="black" stroke="black"/>
<path d="M289.152 25.1931C289.413 23.9179 291.235 23.9179 291.496 25.1931L293.309 34.0631C293.824 36.5834 295.793 38.553 298.313 39.0681L307.183 40.8811C308.459 41.1417 308.459 42.9638 307.184 43.2245L298.313 45.0374C295.793 45.5525 293.824 47.5221 293.309 50.0424L291.496 58.9124C291.235 60.1876 289.413 60.1876 289.152 58.9124L287.339 50.0424C286.824 47.5221 284.855 45.5525 282.334 45.0374L273.464 43.2245C272.189 42.9638 272.189 41.1417 273.464 40.8811L282.334 39.0681C284.855 38.553 286.824 36.5834 287.339 34.0631L289.152 25.1931Z" fill="white"/>
<path d="M110.146 114.056C110.304 113.279 111.414 113.279 111.572 114.056L112.676 119.456C112.99 120.991 114.189 122.19 115.724 122.504L121.124 123.607C121.901 123.766 121.901 124.876 121.124 125.034L115.724 126.138C114.189 126.452 112.99 127.651 112.676 129.185L111.572 134.586C111.414 135.362 110.304 135.362 110.146 134.586L109.042 129.185C108.728 127.651 107.529 126.452 105.995 126.138L100.594 125.034C99.8176 124.876 99.8176 123.766 100.594 123.608L105.995 122.504C107.529 122.19 108.728 120.991 109.042 119.456L110.146 114.056Z" fill="white"/>
<path d="M554.912 113.654C555.023 113.108 555.803 113.108 555.915 113.654L556.691 117.451C556.912 118.53 557.755 119.374 558.834 119.594L562.632 120.37C563.178 120.482 563.178 121.262 562.632 121.374L558.834 122.15C557.755 122.371 556.912 123.214 556.691 124.293L555.915 128.091C555.803 128.637 555.023 128.637 554.912 128.091L554.135 124.293C553.915 123.214 553.072 122.371 551.992 122.15L548.195 121.374C547.649 121.262 547.649 120.482 548.195 120.37L551.992 119.594C553.072 119.374 553.915 118.53 554.135 117.451L554.912 113.654Z" fill="white"/>
<path d="M146.925 339.902C147.064 339.219 148.041 339.219 148.181 339.902L149.153 344.658C149.429 346.01 150.485 347.066 151.837 347.342L156.593 348.314C157.277 348.454 157.277 349.431 156.593 349.571L151.837 350.543C150.485 350.819 149.429 351.875 149.153 353.226L148.181 357.982C148.041 358.666 147.064 358.666 146.925 357.982L145.952 353.226C145.676 351.875 144.62 350.819 143.269 350.543L138.513 349.571C137.829 349.431 137.829 348.454 138.513 348.314L143.269 347.342C144.62 347.066 145.676 346.01 145.952 344.658L146.925 339.902Z" fill="#0075FF"/>
<path fill-rule="evenodd" clip-rule="evenodd" d="M342.188 289.657C354.762 287.241 365.297 276.233 370.586 257.45C380.71 221.498 367.78 170.673 341.706 143.93C329.758 131.674 317.123 126.603 305.965 128.164C305.755 128.048 305.546 127.935 305.34 127.823L279.808 132.64L282.745 144.994C280.085 149.384 277.856 154.596 276.165 160.603C266.041 196.556 278.971 247.381 305.045 274.124C308.506 277.674 312.025 280.622 315.549 282.98L318.615 295.875L342.188 289.657Z" fill="white"/>
<path fill-rule="evenodd" clip-rule="evenodd" d="M341.533 144.099C329.618 131.878 317.056 126.858 306.002 128.405L305.921 128.417L305.85 128.377C305.666 128.276 305.483 128.177 305.303 128.079L280.11 132.832L283.011 145.033L282.958 145.119C280.311 149.487 278.091 154.678 276.405 160.668C271.357 178.593 272.054 200.242 277.272 220.754C282.491 241.267 292.225 260.617 305.224 273.95C308.675 277.489 312.181 280.426 315.689 282.773L315.769 282.827L318.799 295.571L342.136 289.415L342.145 289.413C354.594 287.021 365.078 276.112 370.352 257.381C375.4 239.456 374.703 217.807 369.485 197.295C364.266 176.783 354.533 157.433 341.533 144.099ZM306.015 127.907C317.256 126.367 329.932 131.496 341.885 143.755C354.959 157.165 364.728 176.6 369.962 197.174C375.196 217.748 375.902 239.487 370.826 257.515C365.523 276.346 354.941 287.451 342.246 289.895L318.437 296.175L315.335 283.128C311.822 280.769 308.317 277.828 304.872 274.294C291.798 260.884 282.03 241.449 276.795 220.875C271.561 200.301 270.855 178.562 275.931 160.534C277.617 154.548 279.835 149.344 282.485 144.95L279.512 132.444L305.384 127.563L305.461 127.604C305.644 127.704 305.829 127.804 306.015 127.907Z" fill="black"/>
<path d="M350.898 262.77C340.594 299.364 310.726 306.963 284.187 279.742C257.648 252.521 244.487 200.788 254.791 164.194C265.096 127.6 294.963 120.002 321.503 147.223C348.042 174.444 361.203 226.176 350.898 262.77Z" fill="white"/>
<path fill-rule="evenodd" clip-rule="evenodd" d="M284.32 279.268C310.67 306.294 340.324 298.75 350.555 262.418C360.786 226.085 347.719 174.723 321.369 147.696C295.02 120.67 265.366 128.214 255.135 164.547C244.904 200.879 257.971 252.242 284.32 279.268ZM284.187 279.742C310.726 306.963 340.594 299.364 350.898 262.77C361.203 226.176 348.042 174.444 321.503 147.223C294.963 120.002 265.096 127.6 254.791 164.194C244.487 200.788 257.648 252.521 284.187 279.742Z" fill="black"/>
<path d="M339.928 251.517C331.977 279.755 308.929 285.619 288.45 264.614C267.971 243.608 257.815 203.689 265.767 175.45C273.718 147.212 296.766 141.349 317.245 162.354C337.724 183.359 347.88 223.279 339.928 251.517Z" fill="white"/>
<path fill-rule="evenodd" clip-rule="evenodd" d="M288.583 264.14C308.873 284.951 331.707 279.142 339.585 251.165C347.463 223.188 337.401 183.638 317.112 162.828C296.822 142.017 273.988 147.826 266.11 175.803C258.232 203.779 268.294 243.329 288.583 264.14ZM288.45 264.614C308.929 285.619 331.977 279.755 339.928 251.517C347.88 223.279 337.724 183.359 317.245 162.354C296.766 141.349 273.718 147.212 265.767 175.45C257.815 203.689 267.971 243.608 288.45 264.614Z" fill="black"/>
<path d="M306.194 127.476C304.47 127.342 293.537 130.051 287.912 131.257C315.806 133.389 329.17 154.638 339.832 173.178L359.898 170.871C356.149 163.608 355.264 159.179 341.22 143.443C325.806 126.17 308.35 127.642 306.194 127.476Z" fill="black"/>
<path fill-rule="evenodd" clip-rule="evenodd" d="M307.086 127.743C306.679 127.74 306.373 127.738 306.18 127.723C305.993 127.708 305.657 127.732 305.182 127.796C304.713 127.859 304.127 127.958 303.451 128.084C302.1 128.338 300.399 128.701 298.574 129.106C296.986 129.459 295.303 129.844 293.676 130.216C292.211 130.552 290.791 130.876 289.529 131.158C316.415 133.966 329.53 154.772 339.97 172.917L359.522 170.669C358.973 169.596 358.486 168.585 358.005 167.588C356.914 165.329 355.859 163.142 354.215 160.465C351.78 156.5 348.058 151.471 341.042 143.608C333.37 135.011 325.195 131.084 318.674 129.283C313.277 127.792 309.027 127.759 307.086 127.743ZM318.805 128.809C325.405 130.632 333.666 134.605 341.409 143.281C348.436 151.155 352.178 156.208 354.634 160.208C356.291 162.905 357.364 165.128 358.461 167.4C358.986 168.49 359.518 169.59 360.121 170.76L360.285 171.077L339.705 173.442L339.624 173.302C328.957 154.754 315.65 133.626 287.898 131.504L287.865 131.018C289.451 130.678 291.457 130.22 293.56 129.738C295.186 129.366 296.872 128.98 298.467 128.626C300.294 128.22 302.001 127.856 303.361 127.601C304.04 127.473 304.635 127.373 305.116 127.308C305.591 127.245 305.974 127.213 306.218 127.232C306.394 127.246 306.681 127.248 307.068 127.251C308.978 127.264 313.326 127.296 318.805 128.809Z" fill="black"/>
<path d="M348.374 269.374C345.005 280.684 335.371 289.158 330.975 291.98C329.494 292.874 331.133 293.206 346.162 288.388C364.685 282.45 371.597 258.002 372.536 247.676L353.033 252.829C352.764 256.278 349.815 265.296 348.374 269.374Z" fill="black"/>
<path d="M373.257 221.39L353.986 225.541C354.339 228.151 354.577 236.352 354.271 240.66L373.114 236.158C373.636 233.711 373.162 225.687 373.257 221.39Z" fill="black"/>
<path fill-rule="evenodd" clip-rule="evenodd" d="M373.508 221.085L373.501 221.397C373.468 222.931 373.507 224.942 373.547 227.008C373.563 227.827 373.579 228.655 373.591 229.466C373.611 230.891 373.619 232.261 373.588 233.43C373.558 234.594 373.489 235.574 373.354 236.211L373.321 236.363L354.001 240.978L354.025 240.643C354.33 236.35 354.091 228.166 353.741 225.575L353.71 225.35L373.508 221.085ZM354.257 225.735C354.588 228.508 354.803 236.069 354.538 240.344L372.902 235.957C373.009 235.365 373.068 234.485 373.096 233.417C373.127 232.259 373.119 230.896 373.099 229.473C373.087 228.669 373.071 227.846 373.055 227.03C373.018 225.095 372.981 223.198 373.004 221.697L354.257 225.735Z" fill="black"/>
<path d="M323.078 203.704C323.078 201.615 320.978 199.251 319.576 199.761L311.726 202.621C311.226 202.803 310.936 203.34 310.936 204.085L310.936 222.883C310.936 224.873 309.006 224.937 307.581 222.994L298.896 211.148C297.471 209.204 295.542 209.268 295.542 211.259L295.542 220.021C295.542 220.803 295.861 221.723 296.403 222.503L310.364 242.612C310.735 243.146 311.186 243.579 311.649 243.847L320.932 249.206C322.117 249.89 323.078 249.336 323.078 247.967L323.078 203.704Z" fill="#0075FF"/>
<path d="M280.602 223.258C280.602 225.347 282.702 227.711 284.104 227.201L291.954 224.342C292.454 224.159 292.744 223.622 292.744 222.877L292.744 204.079C292.744 202.089 294.674 202.025 296.098 203.968L304.784 215.815C306.208 217.758 308.138 217.694 308.138 215.703L308.138 206.941C308.138 206.16 307.819 205.24 307.277 204.459L293.315 184.35C292.944 183.816 292.494 183.383 292.031 183.116L282.748 177.756C281.562 177.072 280.602 177.626 280.602 178.995L280.602 223.258Z" fill="#0075FF"/>
</svg>
