<svg width="438" height="350" viewBox="0 0 438 350" fill="none" xmlns="http://www.w3.org/2000/svg">
<path d="M24.3602 147.739C24.7397 145.882 27.3927 145.882 27.7723 147.739L30.412 160.655C31.1621 164.324 34.0299 167.192 37.6996 167.942L50.6148 170.582C52.4716 170.961 52.4716 173.614 50.6148 173.994L37.6996 176.634C34.0299 177.384 31.1621 180.252 30.412 183.921L27.7723 196.836C27.3928 198.693 24.7397 198.693 24.3602 196.836L21.7204 183.921C20.9703 180.252 18.1025 177.384 14.4329 176.634L1.51763 173.994C-0.339204 173.614 -0.339212 170.961 1.51762 170.582L14.4329 167.942C18.1025 167.192 20.9703 164.324 21.7204 160.655L24.3602 147.739Z" fill="white"/>
<path d="M378.759 37.3435C378.997 36.1798 380.66 36.1798 380.898 37.3435L382.552 45.4379C383.022 47.7377 384.819 49.5351 387.119 50.0052L395.214 51.6596C396.377 51.8974 396.377 53.5602 395.214 53.798L387.119 55.4525C384.819 55.9225 383.022 57.7199 382.552 60.0198L380.898 68.1141C380.66 69.2779 378.997 69.2779 378.759 68.1141L377.105 60.0198C376.635 57.7199 374.837 55.9225 372.537 55.4525L364.443 53.798C363.279 53.5602 363.279 51.8974 364.443 51.6596L372.537 50.0052C374.837 49.5351 376.635 47.7377 377.105 45.4379L378.759 37.3435Z" fill="white"/>
<rect x="0.433013" y="0.75" width="207.421" height="221.05" rx="2.5" transform="matrix(0.866025 0.5 -2.20305e-08 1 174.972 8.17802)" fill="white" stroke="black"/>
<rect x="0.433013" y="0.75" width="181.392" height="192.458" rx="8.5" transform="matrix(0.866025 0.5 -2.20305e-08 1 186.792 29.7444)" fill="#E8E8E8" stroke="black"/>
<rect x="0.433013" y="0.75" width="171.548" height="182.831" rx="7.5" transform="matrix(0.866025 0.5 -2.20305e-08 1 190.507 36.2547)" fill="#1E5BA2" stroke="black"/>
<rect x="0.433013" y="0.75" width="165.543" height="177.347" rx="9.5" transform="matrix(0.866025 0.5 -2.20305e-08 1 195.706 39.2586)" fill="#0075FF" stroke="black"/>
<rect x="-2.98023e-08" y="0.5" width="206.188" height="16.624" rx="0.5" transform="matrix(0.866025 0.5 -0.866025 0.5 190.996 0.802246)" fill="white" stroke="black"/>
<path d="M437.139 286.185L369.168 104.341L355.023 112.331V332.992L437.139 286.185Z" fill="#E8E8E8" stroke="black"/>
<rect x="-0.433013" y="0.75" width="34.4838" height="11.1421" transform="matrix(-0.866025 0.5 2.20305e-08 1 401.555 271.624)" fill="#787878" stroke="black"/>
<rect x="-0.433013" y="0.75" width="31.4254" height="7.89187" transform="matrix(-0.866025 0.5 2.20305e-08 1 398.907 273.154)" fill="black" stroke="black"/>
<rect x="-0.433013" y="0.75" width="34.4838" height="11.1421" transform="matrix(-0.866025 0.5 2.20305e-08 1 401.555 250.86)" fill="#787878" stroke="black"/>
<rect x="-0.433013" y="0.75" width="31.4254" height="7.89187" transform="matrix(-0.866025 0.5 2.20305e-08 1 398.907 252.389)" fill="black" stroke="black"/>
<rect x="-0.433013" y="0.75" width="34.4838" height="11.1421" transform="matrix(-0.866025 0.5 2.20305e-08 1 401.555 228.554)" fill="#787878" stroke="black"/>
<rect x="-0.433013" y="0.75" width="31.4254" height="7.89187" transform="matrix(-0.866025 0.5 2.20305e-08 1 398.907 230.084)" fill="black" stroke="black"/>
<rect x="0.433013" y="0.75" width="164.677" height="176.419" rx="12.5" transform="matrix(0.866025 0.5 -2.20305e-08 1 195.706 40.8177)" fill="#0075FF" fill-opacity="0.19" stroke="black"/>
<rect x="0.433013" y="0.75" width="164.677" height="176.419" rx="12.5" transform="matrix(0.866025 0.5 -2.20305e-08 1 195.706 40.8177)" fill="#0075FF" fill-opacity="0.81" stroke="black"/>
<mask id="mask0_167_5212" style="mask-type:luminance" maskUnits="userSpaceOnUse" x="196" y="41" width="144" height="259">
<rect x="0.433013" y="0.75" width="164.258" height="176.419" rx="2.5" transform="matrix(0.866025 0.5 -2.20305e-08 1 196.394 40.0091)" fill="white" stroke="white"/>
</mask>
<g mask="url(#mask0_167_5212)">
<path fill-rule="evenodd" clip-rule="evenodd" d="M275.82 191.23C282.098 189.458 286.965 183.411 288.826 173.646C292.385 154.966 283.599 129.753 269.202 117.331C262.606 111.64 255.976 109.621 250.386 110.9C250.274 110.85 250.162 110.802 250.052 110.754L237.313 114.316L239.343 120.452C238.186 122.796 237.283 125.538 236.688 128.661C233.129 147.341 241.915 172.554 256.312 184.976C258.225 186.626 260.14 187.967 262.032 189.009L264.151 195.412L275.82 191.23Z" fill="white"/>
<path d="M275.82 191.23L275.685 190.749L275.668 190.754L275.652 190.759L275.82 191.23ZM269.202 117.331L269.528 116.953L269.202 117.331ZM250.386 110.9L250.184 111.357L250.336 111.425L250.498 111.388L250.386 110.9ZM250.052 110.754L250.252 110.295L250.089 110.224L249.918 110.272L250.052 110.754ZM237.313 114.316L237.178 113.835L236.674 113.976L236.838 114.473L237.313 114.316ZM239.343 120.452L239.792 120.673L239.882 120.489L239.818 120.295L239.343 120.452ZM256.312 184.976L256.639 184.597L256.312 184.976ZM262.032 189.009L262.506 188.852L262.445 188.666L262.273 188.571L262.032 189.009ZM264.151 195.412L263.676 195.569L263.837 196.055L264.319 195.883L264.151 195.412ZM288.335 173.552C286.494 183.21 281.715 189.047 275.685 190.749L275.956 191.711C282.482 189.869 287.436 183.613 289.317 173.74L288.335 173.552ZM268.875 117.71C275.992 123.85 281.745 133.177 285.275 143.307C288.805 153.437 290.094 164.319 288.335 173.552L289.317 173.74C291.117 164.293 289.792 153.229 286.22 142.978C282.647 132.726 276.809 123.235 269.528 116.953L268.875 117.71ZM250.498 111.388C255.881 110.156 262.352 112.082 268.875 117.71L269.528 116.953C262.859 111.198 256.071 109.086 250.274 110.413L250.498 111.388ZM250.588 110.443C250.475 110.393 250.363 110.344 250.252 110.295L249.853 111.212C249.962 111.26 250.072 111.308 250.184 111.357L250.588 110.443ZM249.918 110.272L237.178 113.835L237.448 114.798L250.187 111.235L249.918 110.272ZM236.838 114.473L238.869 120.609L239.818 120.295L237.788 114.159L236.838 114.473ZM237.179 128.755C237.767 125.67 238.657 122.971 239.792 120.673L238.895 120.23C237.715 122.62 236.799 125.407 236.197 128.568L237.179 128.755ZM256.639 184.597C249.522 178.457 243.769 169.131 240.239 159.001C236.709 148.87 235.42 137.988 237.179 128.755L236.197 128.568C234.397 138.014 235.722 149.078 239.294 159.33C242.867 169.581 248.705 179.073 255.986 185.354L256.639 184.597ZM262.273 188.571C260.415 187.548 258.528 186.227 256.639 184.597L255.986 185.354C257.921 187.025 259.865 188.387 261.791 189.447L262.273 188.571ZM261.557 189.166L263.676 195.569L264.625 195.255L262.506 188.852L261.557 189.166ZM264.319 195.883L275.989 191.701L275.652 190.759L263.982 194.941L264.319 195.883Z" fill="black"/>
<path d="M278.692 176.881C275.121 195.623 260.516 200.712 246.071 188.249C231.626 175.785 222.81 150.488 226.381 131.746C229.953 113.005 244.558 107.915 259.003 120.379C273.448 132.842 282.263 158.139 278.692 176.881Z" fill="white" stroke="black"/>
<path d="M272.631 171.654C269.887 186.055 258.665 189.965 247.566 180.389C236.467 170.812 229.694 151.375 232.438 136.975C235.182 122.575 246.404 118.664 257.503 128.24C268.602 137.817 275.375 157.254 272.631 171.654Z" fill="white" stroke="black"/>
<path d="M250.468 110.543C249.587 110.552 244.161 112.405 241.36 113.263C255.602 113.122 263.312 123.314 269.533 132.25L279.609 130.201C277.39 126.681 276.746 124.474 268.934 117.107C260.358 109.021 251.568 110.533 250.468 110.543Z" fill="black" stroke="black"/>
<path d="M278.081 180.668C276.868 186.552 272.352 191.272 270.246 192.897C269.534 193.415 270.38 193.511 277.792 190.409C286.927 186.585 289.361 173.882 289.385 168.603L279.718 172.072C279.733 173.833 278.633 178.536 278.081 180.668Z" fill="black"/>
<path d="M288.601 155.239L279.008 158.189C279.302 159.497 279.782 163.646 279.816 165.845L289.176 162.735C289.333 161.471 288.742 157.422 288.601 155.239Z" fill="black" stroke="black"/>
<path fill-rule="evenodd" clip-rule="evenodd" d="M350.283 230.974C356.555 229.197 361.415 223.152 363.275 213.394C366.834 194.714 358.048 169.501 343.651 157.079C337.052 151.386 330.42 149.367 324.829 150.65C324.717 150.6 324.607 150.552 324.497 150.504L311.758 154.066L313.79 160.205C312.633 162.548 311.732 165.289 311.137 168.409C307.578 187.089 316.364 212.302 330.761 224.724C332.672 226.372 334.585 227.712 336.475 228.754L338.596 235.162L350.283 230.974Z" fill="white"/>
<path d="M350.283 230.974L350.147 230.493L350.131 230.498L350.115 230.503L350.283 230.974ZM343.651 157.079L343.977 156.701L343.977 156.701L343.651 157.079ZM324.829 150.65L324.627 151.107L324.779 151.174L324.941 151.137L324.829 150.65ZM324.497 150.504L324.697 150.046L324.534 149.975L324.363 150.023L324.497 150.504ZM311.758 154.066L311.623 153.585L311.119 153.726L311.283 154.224L311.758 154.066ZM313.79 160.205L314.238 160.427L314.329 160.243L314.264 160.048L313.79 160.205ZM330.761 224.724L331.088 224.345L331.088 224.345L330.761 224.724ZM336.475 228.754L336.95 228.597L336.888 228.411L336.716 228.316L336.475 228.754ZM338.596 235.162L338.121 235.319L338.282 235.806L338.765 235.633L338.596 235.162ZM362.784 213.3C360.945 222.951 356.171 228.786 350.147 230.493L350.42 231.455C356.939 229.608 361.886 223.354 363.766 213.487L362.784 213.3ZM343.324 157.458C350.441 163.598 356.194 172.925 359.724 183.055C363.254 193.185 364.543 204.067 362.784 213.3L363.766 213.487C365.566 204.041 364.241 192.977 360.669 182.725C357.096 172.474 351.258 162.983 343.977 156.701L343.324 157.458ZM324.941 151.137C330.325 149.902 336.799 151.828 343.324 157.458L343.977 156.701C337.305 150.944 330.516 148.833 324.717 150.162L324.941 151.137ZM325.031 150.192C324.919 150.142 324.807 150.094 324.697 150.046L324.298 150.963C324.406 151.01 324.516 151.058 324.627 151.107L325.031 150.192ZM324.363 150.023L311.623 153.585L311.893 154.548L324.632 150.986L324.363 150.023ZM311.283 154.224L313.315 160.362L314.264 160.048L312.233 153.909L311.283 154.224ZM311.629 168.503C312.216 165.42 313.104 162.724 314.238 160.427L313.341 159.984C312.162 162.373 311.248 165.157 310.646 168.316L311.629 168.503ZM331.088 224.345C323.972 218.205 318.218 208.878 314.688 198.748C311.158 188.618 309.869 177.736 311.629 168.503L310.646 168.316C308.846 177.762 310.171 188.826 313.744 199.078C317.316 209.329 323.154 218.82 330.435 225.102L331.088 224.345ZM336.716 228.316C334.86 227.293 332.975 225.973 331.088 224.345L330.435 225.102C332.369 226.771 334.31 228.132 336.234 229.192L336.716 228.316ZM336 228.911L338.121 235.319L339.071 235.005L336.95 228.597L336 228.911ZM338.765 235.633L350.452 231.445L350.115 230.503L338.427 234.692L338.765 235.633Z" fill="black"/>
<path d="M353.138 216.63C349.567 235.372 334.961 240.461 320.516 227.998C306.071 215.534 297.256 190.237 300.827 171.495C304.398 152.754 319.003 147.664 333.448 160.128C347.894 172.591 356.709 197.888 353.138 216.63Z" fill="white" stroke="black"/>
<path d="M347.08 211.403C344.337 225.804 333.115 229.714 322.015 220.138C310.916 210.561 304.143 191.124 306.887 176.724C309.631 162.324 320.853 158.413 331.952 167.99C343.051 177.566 349.824 197.003 347.08 211.403Z" fill="white" stroke="black"/>
<path d="M324.913 150.29C324.032 150.298 318.606 152.151 315.806 153.009C330.048 152.868 337.758 163.06 343.978 171.997L354.055 169.948C351.835 166.428 351.192 164.22 343.379 156.854C334.803 148.768 326.014 150.28 324.913 150.29Z" fill="black" stroke="black"/>
<path fill-rule="evenodd" clip-rule="evenodd" d="M204.768 152.555C211.039 150.778 215.9 144.733 217.759 134.974C221.318 116.295 212.532 91.0819 198.135 78.6598C191.537 72.9665 184.905 70.948 179.313 72.2301C179.202 72.1807 179.091 72.1322 178.982 72.0846L166.242 75.647L168.274 81.786C167.118 84.1288 166.216 86.8694 165.622 89.9897C162.063 108.669 170.849 133.882 185.246 146.304C187.156 147.953 189.07 149.293 190.96 150.334L193.08 156.743L204.768 152.555Z" fill="white"/>
<path d="M204.768 152.555L204.631 152.074L204.615 152.078L204.599 152.084L204.768 152.555ZM198.135 78.6598L198.462 78.2812L198.462 78.2812L198.135 78.6598ZM179.313 72.2301L179.111 72.6874L179.263 72.7546L179.425 72.7174L179.313 72.2301ZM178.982 72.0846L179.181 71.6262L179.018 71.5552L178.847 71.6031L178.982 72.0846ZM166.242 75.647L166.108 75.1655L165.603 75.3066L165.768 75.8041L166.242 75.647ZM168.274 81.786L168.722 82.0073L168.813 81.8235L168.749 81.6289L168.274 81.786ZM185.246 146.304L185.572 145.926L185.572 145.926L185.246 146.304ZM190.96 150.334L191.434 150.177L191.373 149.991L191.201 149.896L190.96 150.334ZM193.08 156.743L192.606 156.9L192.767 157.386L193.249 157.214L193.08 156.743ZM217.268 134.881C215.429 144.531 210.655 150.367 204.631 152.074L204.904 153.036C211.423 151.188 216.37 144.934 218.25 135.068L217.268 134.881ZM197.808 79.0383C204.925 85.1786 210.679 94.5051 214.209 104.635C217.739 114.765 219.027 125.648 217.268 134.881L218.25 135.068C220.05 125.622 218.726 114.558 215.153 104.306C211.581 94.0542 205.742 84.5631 198.462 78.2812L197.808 79.0383ZM179.425 72.7174C184.809 71.4829 191.284 73.4085 197.808 79.0383L198.462 78.2812C191.79 72.5245 185 70.4132 179.202 71.7427L179.425 72.7174ZM179.516 71.7728C179.403 71.723 179.292 71.6742 179.181 71.6262L178.782 72.5431C178.891 72.5903 179 72.6384 179.111 72.6874L179.516 71.7728ZM178.847 71.6031L166.108 75.1655L166.377 76.1286L179.116 72.5662L178.847 71.6031ZM165.768 75.8041L167.799 81.9431L168.749 81.6289L166.717 75.4899L165.768 75.8041ZM166.113 90.0833C166.7 87.0008 167.589 84.3041 168.722 82.0073L167.826 81.5647C166.647 83.9534 165.732 86.7379 165.131 89.8961L166.113 90.0833ZM185.572 145.926C178.456 139.786 172.702 130.459 169.172 120.329C165.642 110.199 164.354 99.3166 166.113 90.0833L165.131 89.8961C163.331 99.3424 164.655 110.406 168.228 120.658C171.8 130.91 177.638 140.401 184.919 146.683L185.572 145.926ZM191.201 149.896C189.345 148.874 187.46 147.554 185.572 145.926L184.919 146.683C186.853 148.351 188.795 149.712 190.718 150.772L191.201 149.896ZM190.485 150.491L192.606 156.9L193.555 156.586L191.434 150.177L190.485 150.491ZM193.249 157.214L204.936 153.025L204.599 152.084L192.912 156.272L193.249 157.214Z" fill="black"/>
<path d="M207.626 138.208C204.055 156.95 189.45 162.039 175.004 149.576C160.559 137.112 151.744 111.815 155.315 93.0735C158.886 74.3318 173.491 69.2423 187.937 81.7059C202.382 94.1694 211.197 119.466 207.626 138.208Z" fill="white" stroke="black"/>
<path d="M201.565 132.981C198.821 147.382 187.599 151.292 176.5 141.716C165.401 132.139 158.628 112.702 161.371 98.302C164.115 83.9017 175.337 79.9912 186.436 89.5676C197.535 99.1441 204.309 118.581 201.565 132.981Z" fill="white" stroke="black"/>
<path d="M179.401 71.8682C178.521 71.8762 173.094 73.7295 170.294 74.5876C184.536 74.4466 192.246 84.6385 198.466 93.5751L208.543 91.5257C206.323 88.0059 205.68 85.7985 197.867 78.432C189.292 70.3462 180.502 71.8582 179.401 71.8682Z" fill="black" stroke="black"/>
<path d="M207.014 141.995C205.801 147.879 201.286 152.6 199.18 154.224C198.468 154.742 199.313 154.839 206.725 151.736C215.86 147.912 218.295 135.209 218.319 129.93L208.652 133.399C208.666 135.16 207.566 139.863 207.014 141.995Z" fill="black"/>
<path d="M217.531 116.566L207.938 119.516C208.231 120.825 208.712 124.974 208.745 127.172L218.106 124.063C218.263 122.799 217.671 118.75 217.531 116.566Z" fill="black" stroke="black"/>
</g>
<rect x="0.433013" y="0.75" width="210.172" height="225.139" rx="12.5" transform="matrix(0.866025 0.5 -2.20305e-08 1 81.9369 17.427)" fill="#0075FF" fill-opacity="0.19" stroke="black"/>
<rect x="0.433013" y="0.75" width="210.172" height="225.139" rx="12.5" transform="matrix(0.866025 0.5 -2.20305e-08 1 81.9369 17.427)" fill="#0075FF" fill-opacity="0.81" stroke="black"/>
<mask id="mask1_167_5212" style="mask-type:luminance" maskUnits="userSpaceOnUse" x="82" y="17" width="184" height="330">
<rect x="0.433013" y="0.75" width="209.638" height="225.139" rx="2.5" transform="matrix(0.866025 0.5 -2.20305e-08 1 82.8119 16.3968)" fill="white" stroke="white"/>
</mask>
<g mask="url(#mask1_167_5212)">
<path fill-rule="evenodd" clip-rule="evenodd" d="M184.082 209.077C192.074 206.811 198.269 199.106 200.638 186.67C205.175 162.861 193.977 130.724 175.626 114.891C167.217 107.636 158.766 105.063 151.64 106.695C151.497 106.632 151.356 106.57 151.217 106.509L134.979 111.05L137.567 118.87C136.092 121.858 134.942 125.353 134.184 129.332C129.648 153.141 140.846 185.278 159.197 201.111C161.634 203.213 164.074 204.923 166.485 206.25L169.187 214.415L184.082 209.077Z" fill="white"/>
<path d="M184.082 209.077L183.946 208.596L183.929 208.601L183.913 208.606L184.082 209.077ZM175.626 114.891L175.952 114.512L175.626 114.891ZM151.64 106.695L151.438 107.152L151.589 107.219L151.751 107.182L151.64 106.695ZM151.217 106.509L151.416 106.051L151.253 105.98L151.082 106.028L151.217 106.509ZM134.979 111.05L134.844 110.568L134.34 110.709L134.504 111.207L134.979 111.05ZM137.567 118.87L138.016 119.092L138.106 118.908L138.042 118.713L137.567 118.87ZM159.197 201.111L159.524 200.732L159.197 201.111ZM166.485 206.25L166.96 206.093L166.898 205.907L166.726 205.813L166.485 206.25ZM169.187 214.415L168.712 214.572L168.873 215.058L169.355 214.885L169.187 214.415ZM200.147 186.576C197.798 198.905 191.69 206.4 183.946 208.596L184.218 209.558C192.458 207.222 198.739 199.308 201.13 186.763L200.147 186.576ZM175.299 115.27C184.392 123.115 191.738 135.026 196.243 147.954C200.748 160.883 202.395 174.778 200.147 186.576L201.13 186.763C203.418 174.752 201.735 160.675 197.187 147.625C192.639 134.575 185.21 122.5 175.952 114.512L175.299 115.27ZM151.751 107.182C158.67 105.597 166.964 108.078 175.299 115.27L175.952 114.512C167.47 107.194 158.861 104.528 151.528 106.207L151.751 107.182ZM151.842 106.237C151.698 106.174 151.557 106.112 151.416 106.051L151.017 106.968C151.156 107.028 151.296 107.089 151.438 107.152L151.842 106.237ZM151.082 106.028L134.844 110.568L135.114 111.531L151.351 106.991L151.082 106.028ZM134.504 111.207L137.093 119.028L138.042 118.713L135.454 110.893L134.504 111.207ZM134.675 129.426C135.426 125.484 136.563 122.033 138.016 119.092L137.119 118.649C135.621 121.682 134.458 125.221 133.693 129.239L134.675 129.426ZM159.524 200.732C150.43 192.887 143.085 180.976 138.58 168.048C134.075 155.119 132.427 141.224 134.675 129.426L133.693 129.239C131.404 141.25 133.088 155.327 137.636 168.377C142.183 181.427 149.613 193.502 158.87 201.49L159.524 200.732ZM166.726 205.813C164.349 204.503 161.937 202.815 159.524 200.732L158.87 201.49C161.331 203.612 163.799 205.342 166.244 206.688L166.726 205.813ZM166.01 206.408L168.712 214.572L169.661 214.258L166.96 206.093L166.01 206.408ZM169.355 214.885L184.251 209.548L183.913 208.606L169.018 213.944L169.355 214.885Z" fill="black"/>
<path d="M187.827 190.882C183.261 214.845 164.587 221.352 146.118 205.416C127.648 189.481 116.377 157.137 120.943 133.174C125.509 109.211 144.183 102.704 162.653 118.64C181.122 134.575 192.393 166.919 187.827 190.882Z" fill="white" stroke="black"/>
<path d="M180.103 184.219C176.592 202.648 162.23 207.653 148.026 195.397C133.822 183.141 125.153 158.266 128.665 139.837C132.177 121.408 146.538 116.403 160.742 128.659C174.947 140.915 183.615 165.79 180.103 184.219Z" fill="white" stroke="black"/>
<path d="M151.749 106.238C150.626 106.249 143.71 108.611 140.14 109.705C158.293 109.525 168.12 122.515 176.049 133.906L188.893 131.294C186.064 126.808 185.244 123.994 175.285 114.605C164.355 104.298 153.151 106.226 151.749 106.238Z" fill="black" stroke="black"/>
<path d="M186.942 195.618C185.396 203.119 179.641 209.135 176.957 211.206C176.049 211.866 177.127 211.989 186.574 208.035C198.218 203.161 201.321 186.969 201.351 180.241L189.03 184.662C189.049 186.907 187.646 192.902 186.942 195.618Z" fill="black"/>
<path d="M200.353 163.207L188.126 166.967C188.5 168.635 189.113 173.923 189.155 176.725L201.086 172.762C201.287 171.151 200.532 165.99 200.353 163.207Z" fill="black" stroke="black"/>
<path fill-rule="evenodd" clip-rule="evenodd" d="M278.98 259.734C286.969 257.465 293.16 249.762 295.529 237.329C300.066 213.52 288.867 181.383 270.516 165.55C262.105 158.293 253.652 155.72 246.525 157.355C246.383 157.292 246.242 157.231 246.103 157.17L229.866 161.711L232.455 169.535C230.981 172.521 229.833 176.014 229.075 179.991C224.538 203.8 235.737 235.937 254.088 251.77C256.523 253.871 258.961 255.579 261.37 256.907L264.073 265.076L278.98 259.734Z" fill="white"/>
<path d="M278.98 259.734L278.843 259.253L278.827 259.258L278.811 259.263L278.98 259.734ZM270.516 165.55L270.843 165.172L270.516 165.55ZM246.525 157.355L246.323 157.812L246.475 157.88L246.637 157.842L246.525 157.355ZM246.103 157.17L246.303 156.712L246.14 156.641L245.969 156.689L246.103 157.17ZM229.866 161.711L229.731 161.229L229.226 161.37L229.391 161.868L229.866 161.711ZM232.455 169.535L232.904 169.756L232.994 169.573L232.93 169.378L232.455 169.535ZM254.088 251.77L254.414 251.391L254.088 251.77ZM261.37 256.907L261.845 256.749L261.783 256.563L261.611 256.469L261.37 256.907ZM264.073 265.076L263.599 265.233L263.76 265.719L264.242 265.546L264.073 265.076ZM295.038 237.235C292.689 249.56 286.585 257.055 278.843 259.253L279.117 260.215C287.353 257.876 293.631 249.963 296.02 237.422L295.038 237.235ZM270.19 165.929C279.283 173.775 286.628 185.685 291.133 198.613C295.639 211.542 297.286 225.437 295.038 237.235L296.02 237.422C298.309 225.411 296.625 211.334 292.078 198.284C287.53 185.234 280.1 173.159 270.843 165.172L270.19 165.929ZM246.637 157.842C253.557 156.255 261.852 158.735 270.19 165.929L270.843 165.172C262.359 157.851 253.747 155.186 246.413 156.868L246.637 157.842ZM246.727 156.898C246.584 156.835 246.443 156.773 246.303 156.712L245.904 157.629C246.042 157.689 246.181 157.75 246.323 157.812L246.727 156.898ZM245.969 156.689L229.731 161.229L230 162.192L246.238 157.652L245.969 156.689ZM229.391 161.868L231.981 169.692L232.93 169.378L230.34 161.554L229.391 161.868ZM229.566 180.085C230.317 176.146 231.453 172.697 232.904 169.756L232.007 169.314C230.51 172.346 229.349 175.883 228.584 179.898L229.566 180.085ZM254.414 251.391C245.321 243.546 237.976 231.635 233.471 218.707C228.965 205.778 227.318 191.883 229.566 180.085L228.584 179.898C226.295 191.909 227.979 205.986 232.526 219.036C237.074 232.086 244.503 244.161 253.761 252.149L254.414 251.391ZM261.611 256.469C259.236 255.16 256.826 253.472 254.414 251.391L253.761 252.149C256.219 254.27 258.686 255.999 261.129 257.344L261.611 256.469ZM260.895 257.064L263.599 265.233L264.548 264.919L261.845 256.749L260.895 257.064ZM264.242 265.546L279.149 260.205L278.811 259.263L263.905 264.605L264.242 265.546Z" fill="black"/>
<path d="M282.718 241.543C278.152 265.506 259.478 272.013 241.008 256.077C222.539 240.142 211.268 207.798 215.834 183.835C220.4 159.872 239.074 153.365 257.543 169.301C276.013 185.236 287.283 217.58 282.718 241.543Z" fill="white" stroke="black"/>
<path d="M274.994 234.88C271.483 253.309 257.121 258.314 242.917 246.058C228.712 233.802 220.044 208.927 223.556 190.498C227.067 172.069 241.429 167.065 255.633 179.32C269.837 191.576 278.506 216.451 274.994 234.88Z" fill="white" stroke="black"/>
<path d="M246.636 156.897C245.513 156.908 238.597 159.27 235.027 160.363C253.18 160.184 263.007 173.174 270.936 184.565L283.78 181.953C280.95 177.467 280.131 174.653 270.172 165.264C259.242 154.957 248.038 156.885 246.636 156.897Z" fill="black" stroke="black"/>
<path fill-rule="evenodd" clip-rule="evenodd" d="M93.5074 159.781C101.496 157.512 107.687 149.809 110.056 137.376C114.593 113.567 103.394 81.4303 85.0436 65.597C76.6328 58.34 68.1792 55.7674 61.0522 57.402C60.9102 57.3392 60.7697 57.2776 60.6308 57.2171L44.3932 61.7577L46.9825 69.582C45.5088 72.5681 44.3599 76.0612 43.6021 80.0381C39.0655 103.847 50.2641 135.984 68.615 151.817C71.0499 153.918 73.4884 155.626 75.8973 156.953L78.6008 165.123L93.5074 159.781Z" fill="white"/>
<path d="M93.5074 159.781L93.3708 159.3L93.3546 159.304L93.3387 159.31L93.5074 159.781ZM85.0436 65.597L85.3703 65.2184L85.0436 65.597ZM61.0522 57.402L60.85 57.8593L61.002 57.9265L61.164 57.8893L61.0522 57.402ZM60.6308 57.2171L60.8304 56.7587L60.6674 56.6877L60.4962 56.7356L60.6308 57.2171ZM44.3932 61.7577L44.2585 61.2762L43.7538 61.4173L43.9185 61.9148L44.3932 61.7577ZM46.9825 69.582L47.4309 69.8033L47.5216 69.6195L47.4572 69.4249L46.9825 69.582ZM68.615 151.817L68.9416 151.438L68.615 151.817ZM75.8973 156.953L76.372 156.796L76.3104 156.61L76.1386 156.515L75.8973 156.953ZM78.6008 165.123L78.1261 165.28L78.2871 165.766L78.7695 165.593L78.6008 165.123ZM109.565 137.282C107.217 149.607 101.112 157.101 93.3708 159.3L93.644 160.262C101.88 157.923 108.158 150.01 110.548 137.469L109.565 137.282ZM84.717 65.9755C93.8103 73.8214 101.155 85.7315 105.661 98.66C110.166 111.589 111.813 125.484 109.565 137.282L110.548 137.469C112.836 125.458 111.153 111.381 106.605 98.331C102.057 85.2807 94.6278 73.2059 85.3703 65.2184L84.717 65.9755ZM61.164 57.8893C68.084 56.3022 76.3796 58.782 84.717 65.9755L85.3703 65.2184C76.8859 57.898 68.2745 55.2325 60.9404 56.9146L61.164 57.8893ZM61.2544 56.9447C61.1115 56.8815 60.9702 56.8195 60.8304 56.7587L60.4312 57.6755C60.5692 57.7356 60.7088 57.7969 60.85 57.8593L61.2544 56.9447ZM60.4962 56.7356L44.2585 61.2762L44.5278 62.2392L60.7655 57.6986L60.4962 56.7356ZM43.9185 61.9148L46.5079 69.7391L47.4572 69.4249L44.8678 61.6006L43.9185 61.9148ZM44.0933 80.1317C44.8439 76.1926 45.9798 72.7434 47.4309 69.8033L46.5342 69.3607C45.0378 72.3927 43.876 75.9297 43.111 79.9446L44.0933 80.1317ZM68.9416 151.438C59.8483 143.592 52.5031 131.682 47.9979 118.754C43.4927 105.825 41.8453 91.9297 44.0933 80.1317L43.111 79.9446C40.8223 91.9555 42.5059 106.033 47.0536 119.083C51.6012 132.133 59.0308 144.208 68.2883 152.195L68.9416 151.438ZM76.1386 156.515C73.7634 155.207 71.3532 153.519 68.9416 151.438L68.2883 152.195C70.7466 154.316 73.2134 156.045 75.656 157.391L76.1386 156.515ZM75.4226 157.11L78.1261 165.28L79.0755 164.965L76.372 156.796L75.4226 157.11ZM78.7695 165.593L93.6761 160.252L93.3387 159.31L78.4322 164.652L78.7695 165.593Z" fill="black"/>
<path d="M97.2449 141.589C92.6789 165.552 74.0051 172.059 55.5357 156.124C37.0664 140.188 25.7954 107.844 30.3613 83.8815C34.9273 59.9187 53.6011 53.4114 72.0705 69.3471C90.5399 85.2827 101.811 117.627 97.2449 141.589Z" fill="white" stroke="black"/>
<path d="M89.5215 134.926C86.0099 153.355 71.6483 158.36 57.444 146.104C43.2397 133.849 34.5714 108.974 38.083 90.5446C41.5946 72.1155 55.9561 67.1109 70.1605 79.3666C84.3648 91.6222 93.033 116.497 89.5215 134.926Z" fill="white" stroke="black"/>
<path d="M61.1629 56.9437C60.0406 56.954 53.1239 59.3161 49.5546 60.4098C67.7076 60.2302 77.5346 73.2208 85.4634 84.6114L98.3071 81.9993C95.4778 77.5129 94.6579 74.6993 84.6997 65.31C73.7691 55.0038 62.5658 56.931 61.1629 56.9437Z" fill="black" stroke="black"/>
<path d="M96.3604 146.326C94.8143 153.826 89.0591 159.843 86.3748 161.913C85.4672 162.574 86.5452 162.697 95.9925 158.742C107.636 153.868 110.739 137.677 110.769 130.948L98.4481 135.369C98.4667 137.614 97.064 143.609 96.3604 146.326Z" fill="black"/>
<path d="M109.768 113.916L97.5407 117.676C97.9147 119.344 98.5271 124.632 98.5697 127.434L110.501 123.471C110.701 121.86 109.947 116.699 109.768 113.916Z" fill="black" stroke="black"/>
</g>
</svg>
